<?xml version="1.0" standalone="no"?>
<!DOCTYPE svg PUBLIC "-//W3C//DTD SVG 1.1//EN" "http://www.w3.org/Graphics/SVG/1.1/DTD/svg11.dtd" >
<svg xmlns="http://www.w3.org/2000/svg" xmlns:xlink="http://www.w3.org/1999/xlink" version="1.1">
<metadata>
Created by FontForge 20200427 at Sun May 22 16:11:50 2011
 By www
Copyright 2011 (c) Canada Type. All rights reserved.
</metadata>
<defs>
<font id="RatioModern" horiz-adv-x="563" >
  <font-face 
    font-family="Ratio Modern"
    font-weight="400"
    font-stretch="normal"
    units-per-em="1000"
    panose-1="2 0 0 0 0 0 0 0 0 0"
    ascent="750"
    descent="-250"
    x-height="414"
    cap-height="715"
    bbox="-64 -240 1125 1002"
    underline-thickness="50"
    underline-position="-100"
    unicode-range="U+0020-FB04"
  />
<missing-glyph horiz-adv-x="540" 
d="M47 0v712h446v-712h-446zM450 674h-360v-635h360v635z" />
    <glyph glyph-name="ff" unicode="ff" horiz-adv-x="595" 
d="M560 16q5 0 7.5 -3t2.5 -6q0 -10 -10 -10q-16 0 -29 0.5t-26.5 1t-28.5 1t-34 0.5q-32 0 -63 -1.5t-50 -1.5q-11 0 -11 10q0 3 3 6t8 3h67v383h-200v-383h60q5 0 8 -3t3 -6q0 -10 -11 -10q-17 1 -43 2t-65 1q-20 0 -34 -0.5t-26 -1t-24.5 -1t-28.5 -0.5q-11 0 -11 10
q0 3 3 6t8 3h66v383q-17 0 -31.5 -1t-34.5 -1q-11 0 -11 10q0 3 3 6t8 3l66 -3v141q0 72 21.5 111t50 57t56 21t38.5 3q33 0 59 -17t26 -57q0 -27 -13 -44t-39 -17q-23 0 -33.5 13.5t-10.5 30.5t12 30.5t32 13.5q9 0 17 -3q4 -2 5 -2q2 0 2 3q0 11 -14 20.5t-37 9.5
q-24 0 -39 -9t-23.5 -26t-11.5 -40.5t-3 -52.5v-186h200v160q0 72 21.5 111t49.5 57t55.5 21t38.5 3q33 0 59 -17t26 -57q0 -27 -13 -44t-39 -17q-23 0 -33.5 13.5t-10.5 30.5t12 30.5t32 13.5q9 0 17 -3q4 -2 5 -2q2 0 2 3q0 11 -14 20.5t-37 9.5q-24 0 -39 -9t-23 -26
t-11 -40.5t-3 -52.5v-205l69 3q5 0 7.5 -3t2.5 -6q0 -10 -10 -10q-22 0 -37 1t-32 1v-383h69z" />
    <glyph glyph-name="fi" unicode="fi" horiz-adv-x="584" 
d="M560 16q5 0 7.5 -3t2.5 -6q0 -10 -10 -10q-16 0 -29 0.5t-25.5 1t-27.5 1t-34 0.5q-39 0 -70 -1.5t-48 -1.5q-11 0 -11 10q0 3 3 6t8 3h70v346q0 23 -6.5 30t-23.5 7h-170v-383h60q5 0 8 -3t3 -6q0 -10 -11 -10q-17 1 -43 2t-65 1q-20 0 -34 -0.5t-26 -1t-24.5 -1
t-28.5 -0.5q-11 0 -11 10q0 3 3 6t8 3h66v383q-17 0 -31.5 -1t-34.5 -1q-11 0 -11 10q0 3 3 6t8 3l66 -3v141q0 72 21.5 111t50 57t56 21t38.5 3q33 0 59 -17t26 -57q0 -27 -13 -44t-39 -17q-23 0 -33.5 13.5t-10.5 30.5t12 30.5t32 13.5q9 0 17 -3q4 -2 5 -2q2 0 2 3
q0 11 -14 20.5t-37 9.5q-24 0 -39 -9t-23.5 -26t-11.5 -40.5t-3 -52.5v-186h228q29 0 43.5 2.5t19.5 2.5q4 0 4 -9v-393h69zM498 555q0 -23 -16.5 -39t-39.5 -16t-38.5 16t-15.5 39t15.5 39t38.5 16t39.5 -16t16.5 -39z" />
    <glyph glyph-name="fl" unicode="fl" horiz-adv-x="583" 
d="M266 16q5 0 7.5 -3t2.5 -6q0 -10 -10 -10q-15 0 -28 0.5l-26 1t-27.5 1t-33.5 0.5q-47 0 -74.5 -1.5t-41.5 -1.5q-10 0 -10 10q0 3 2.5 6t7.5 3h66v382q-17 0 -31.5 -1t-34.5 -1q-10 0 -10 10q0 3 2.5 6t7.5 3l66 -3v161q0 72 21.5 111t50 57t56 21t38.5 3q23 0 43.5 -8
t31.5 -26h83q29 0 43.5 2t18.5 2t4 -8v-711h69q5 0 8 -3t3 -6q0 -10 -11 -10q-15 0 -27.5 0.5l-25 1t-27 1t-33.5 0.5q-46 0 -76 -1.5t-44 -1.5q-11 0 -11 10q0 3 3 6t8 3h69v659q0 24 -6 30.5t-23 6.5h-18q3 -11 3 -21q0 -26 -13 -43.5t-39 -17.5q-23 0 -33.5 13.5
t-10.5 30.5q0 19 12 31.5t32 12.5q10 0 15 -2t7 -2t2 3q0 9 -12.5 19t-39.5 10q-24 0 -38.5 -9.5t-23 -26t-11.5 -40t-3 -51.5v-207l80 3q5 0 7.5 -3t2.5 -6q0 -10 -10 -10q-22 0 -42 1t-38 1v-382h70z" />
    <glyph glyph-name="ffi" unicode="ffi" horiz-adv-x="879" 
d="M491 413h228q29 0 43.5 2.5t19.5 2.5q4 0 4 -9v-393h69q5 0 7.5 -3t2.5 -6q0 -10 -10 -10q-16 0 -29 0.5t-25.5 1t-27.5 1t-34 0.5q-39 0 -70 -1.5t-48 -1.5q-11 0 -11 10q0 3 3 6t8 3h70v346q0 23 -6.5 30t-23.5 7h-170v-383h59q5 0 7.5 -3t2.5 -6q0 -10 -10 -10
q-16 0 -27.5 0.5l-23 1t-25 1t-32.5 0.5q-32 0 -63 -1.5t-50 -1.5q-11 0 -11 10q0 3 3 6t8 3h67v383h-200v-383h60q5 0 8 -3t3 -6q0 -10 -11 -10q-17 1 -43 2t-65 1q-20 0 -34 -0.5t-26 -1t-24.5 -1t-28.5 -0.5q-11 0 -11 10q0 3 3 6t8 3h66v383q-17 0 -31.5 -1t-34.5 -1
q-11 0 -11 10q0 3 3 6t8 3l66 -3v141q0 72 21.5 111t50 57t56 21t38.5 3q33 0 59 -17t26 -57q0 -27 -13 -44t-39 -17q-23 0 -33.5 13.5t-10.5 30.5t12 30.5t32 13.5q9 0 17 -3q4 -2 5 -2q2 0 2 3q0 11 -14 20.5t-37 9.5q-24 0 -39 -9t-23.5 -26t-11.5 -40.5t-3 -52.5v-186
h200v160q0 72 21.5 111t49.5 57t55.5 21t38.5 3q33 0 59 -17t26 -57q0 -27 -13 -44t-39 -17q-23 0 -33.5 13.5t-10.5 30.5t12 30.5t32 13.5q9 0 17 -3q4 -2 5 -2q2 0 2 3q0 11 -14 20.5t-37 9.5q-24 0 -39 -9t-23 -26t-11 -40.5t-3 -52.5v-205zM793 555q0 -23 -16.5 -39
t-39.5 -16t-38.5 16t-15.5 39t15.5 39t38.5 16t39.5 -16t16.5 -39z" />
    <glyph glyph-name="ffl" unicode="ffl" horiz-adv-x="879" 
d="M397 399h-200v-383h60q5 0 8 -3t3 -6q0 -10 -11 -10q-17 1 -43 2t-65 1q-20 0 -34 -0.5t-26 -1t-24.5 -1t-28.5 -0.5q-11 0 -11 10q0 3 3 6t8 3h66v383q-17 0 -31.5 -1t-34.5 -1q-11 0 -11 10q0 3 3 6t8 3l66 -3v141q0 72 21.5 111t50 57t56 21t38.5 3q33 0 59 -17
t26 -57q0 -27 -13 -44t-39 -17q-23 0 -33.5 13.5t-10.5 30.5t12 30.5t32 13.5q9 0 17 -3q4 -2 5 -2q2 0 2 3q0 11 -14 20.5t-37 9.5q-24 0 -39 -9t-23.5 -26t-11.5 -40.5t-3 -52.5v-186h200v160q0 72 21.5 111t50 57t56 21t38.5 3q23 0 43.5 -8t31.5 -26h83q29 0 43.5 2
t18.5 2t4 -8v-711h69q5 0 8 -3t3 -6q0 -10 -11 -10q-15 0 -27.5 0.5l-25 1t-27 1t-33.5 0.5q-46 0 -76 -1.5t-44 -1.5q-11 0 -11 10q0 3 3 6t8 3h69v659q0 24 -6 30.5t-23 6.5h-18q3 -11 3 -21q0 -26 -13 -43.5t-39 -17.5q-23 0 -33.5 13.5t-10.5 30.5q0 19 12 31.5t32 12.5
q10 0 15 -2t7 -2t2 3q0 9 -12.5 19t-39.5 10q-24 0 -38.5 -9.5t-23 -26t-11.5 -40t-3 -51.5v-207l80 3q5 0 7.5 -3t2.5 -6q0 -10 -10 -10q-22 0 -42 1t-38 1v-382h65q5 0 7.5 -3t2.5 -6q0 -10 -10 -10q-15 0 -27.5 0.5t-24.5 1t-25.5 1t-32.5 0.5q-47 0 -77 -1.5t-44 -1.5
q-10 0 -10 10q0 3 2.5 6t7.5 3h71v383z" />
    <glyph glyph-name="f_j" unicode="fj" horiz-adv-x="568" 
d="M381 399h-185v-383h70q5 0 7.5 -3t2.5 -6q0 -10 -10 -10q-16 0 -29 0.5t-26.5 1t-28.5 1t-34 0.5q-20 0 -34 -0.5t-26 -1t-24.5 -1t-28.5 -0.5q-11 0 -11 10q0 3 3 6t8 3h66v383q-17 0 -31.5 -1t-34.5 -1q-11 0 -11 10q0 3 3 6t8 3l66 -3v141q0 72 21.5 111t50 57t56 21
t38.5 3q33 0 59 -17t26 -57q0 -27 -13 -44t-39 -17q-23 0 -33.5 13.5t-10.5 30.5t12 30.5t32 13.5q9 0 17 -3q4 -2 5 -2q2 0 2 3q0 11 -14 20.5t-37 9.5q-24 0 -39 -9t-23.5 -26t-11.5 -40.5t-3 -52.5v-186h233q19 0 33.5 0.5t26.5 1t24.5 1t28.5 0.5q5 0 7.5 -3t2.5 -6
q0 -10 -10 -10h-66v-386q0 -62 -10 -105t-26 -70.5t-35.5 -42.5t-38 -22t-34 -8t-22.5 -1q-33 0 -59 17t-26 58q0 26 13 43t39 17q23 0 33.5 -13.5t10.5 -30.5t-12 -30.5t-32 -13.5q-10 0 -17 3q-4 2 -5 2q-2 0 -2 -3q0 -11 14 -20.5t37 -9.5q48 0 62.5 32.5t14.5 95.5v490z
M483 555q0 -23 -16.5 -39t-39.5 -16t-38.5 16t-15.5 39t15.5 39t38.5 16t39.5 -16t16.5 -39z" />
    <glyph glyph-name="f_t" unicode="ft" horiz-adv-x="629" 
d="M266 16q5 0 7.5 -3t2.5 -6q0 -10 -10 -10q-16 0 -29 0.5t-26.5 1t-28.5 1t-34 0.5q-20 0 -34 -0.5t-26 -1t-24.5 -1t-28.5 -0.5q-11 0 -11 10q0 3 3 6t8 3h66v383q-17 0 -31.5 -1t-34.5 -1q-11 0 -11 10q0 3 3 6t8 3l66 -3v141q0 72 21.5 111t50 57t56 21t38.5 3
q33 0 59 -17t26 -57q0 -27 -13 -44t-39 -17q-23 0 -33.5 13.5t-10.5 30.5t12 30.5t32 13.5q9 0 17 -3q4 -2 5 -2q2 0 2 3q0 11 -14 20.5t-37 9.5q-24 0 -39 -9t-23.5 -26t-11.5 -40.5t-3 -52.5v-186h105q57 0 88 21t46 52t18.5 66.5t3.5 64.5v41q0 8 1 13.5t8 5.5
q8 0 9 -5.5t1 -13.5v-245q29 0 56.5 1t50.5 2q5 0 7.5 -3t2.5 -6q0 -10 -10 -10q-23 0 -50.5 1t-56.5 2v-195q0 -13 -0.5 -30.5t-0.5 -35.5t-0.5 -34t-0.5 -27q0 -13 1.5 -26t7 -23t15 -16t25.5 -6q34 0 48.5 24t14.5 51q0 7 1 13t8 6q8 0 9 -6t1 -13q0 -18 -5 -35
t-16.5 -30.5t-30.5 -21.5t-48 -8q-45 0 -70 9t-37 33.5t-14.5 67t-2.5 108.5v194h-185v-383h70z" />
    <glyph glyph-name="t_z" unicode="tz" 
d="M421 272q-2 -3 -3.5 -5.5t-1.5 -4.5q0 -4 9 -4q42 -2 70 -22.5t28 -63.5q0 -39 -21 -69t-46.5 -57.5t-46.5 -55t-21 -60.5q0 -30 18 -47.5t47 -17.5q25 0 35.5 11t10.5 19q0 2 -0.5 2.5t-0.5 1.5l-1 1q-6 -7 -20 -7t-26 8.5t-12 27.5q0 20 13.5 31t29.5 11t29.5 -12.5
t13.5 -39.5q0 -19 -7 -32t-18 -21t-24 -11.5t-26 -3.5q-39 0 -61.5 27.5t-22.5 69.5q0 28 9 51t19.5 46.5t19.5 50t9 61.5q0 31 -7.5 50t-19 29t-24.5 13t-23 3q-14 0 -21.5 -2.5t-12.5 -2.5q-9 0 -9 7q0 1 8 12l93 132h-217v-193q0 -12 -0.5 -30t-0.5 -36t-0.5 -33.5
t-0.5 -23.5q0 -15 2 -28.5t7 -24t15 -16.5t26 -6q17 0 28.5 6.5t19 17.5t11 24t3.5 27q0 7 1 13t9 6q7 0 8 -6t1 -13q0 -21 -5 -38t-18 -30t-35 -20t-56 -7q-40 0 -62 11t-32.5 36.5t-13 67t-2.5 103.5v192q-22 0 -42.5 -1t-40.5 -1q-10 0 -10 10q0 3 2.5 6t7.5 3h9
q47 2 76 23t45.5 51.5t22.5 65t6 63.5v41q0 8 1 13.5t9 5.5q7 0 8 -5.5t1 -13.5v-245q94 0 153.5 0.5t94 1t49 1t17.5 0.5q4 0 7.5 -1.5t3.5 -8.5q0 -4 -2 -7t-8 -11z" />
    <glyph glyph-name=".notdef" horiz-adv-x="540" 
d="M47 0v712h446v-712h-446zM450 674h-360v-635h360v635z" />
    <glyph glyph-name=".null" horiz-adv-x="0" 
 />
    <glyph glyph-name="nonmarkingreturn" horiz-adv-x="260" 
 />
    <glyph glyph-name="space" unicode=" " horiz-adv-x="260" 
 />
    <glyph glyph-name="exclam" unicode="!" horiz-adv-x="268" 
d="M134 153q-7 0 -8 7t-1 16q0 86 -7.5 159.5t-16.5 133.5t-16.5 107t-7.5 80q0 14 2 27.5t8 24.5t17.5 18t30.5 7t30 -7t17 -17.5t7.5 -24t1.5 -26.5q0 -35 -7.5 -82t-16 -107t-16 -133t-7.5 -160q0 -10 -1 -16.5t-9 -6.5zM134 -7q-23 0 -39 16t-16 39t16 39.5t39 16.5
t39.5 -16.5t16.5 -39.5t-16.5 -39t-39.5 -16z" />
    <glyph glyph-name="quotedbl" unicode="&#x22;" horiz-adv-x="273" 
d="M87 441q-7 0 -8.5 5t-1.5 16q-1 62 -4 99.5t-6.5 61t-6 38.5t-2.5 32q0 15 4.5 27.5t24.5 12.5q19 0 23 -12t4 -26q0 -19 -2.5 -33.5t-5.5 -38t-6 -60.5t-4 -101q0 -11 -1 -16t-8 -5zM188 441q-7 0 -8.5 5t-1.5 16q-2 62 -5 99.5t-6 61t-5.5 38.5t-2.5 32q0 15 4.5 27.5
t24.5 12.5q18 0 22 -12t4 -26q0 -19 -2 -33.5t-5 -38t-6 -60.5t-4 -101q0 -11 -1.5 -16t-7.5 -5z" />
    <glyph glyph-name="numbersign" unicode="#" horiz-adv-x="1162" 
d="M927 190q-42 0 -78 17t-62.5 45.5t-41.5 65.5t-15 77t15 78t41 67.5t62.5 47.5t78.5 18t78 -18t63 -47t42 -67.5t15 -78.5t-15 -77t-41.5 -65.5t-63 -45.5t-78.5 -17zM927 207q29 0 49 15.5t32 42t17.5 60.5t5.5 70t-5.5 71t-17.5 62.5t-32 44t-50 16.5q-29 0 -49 -16.5
t-32 -44t-17 -62.5t-5 -71t5 -70t17 -60.5t32 -42t50 -15.5zM834 82v19h185v-19h-185zM170 638v-522q0 -33 5 -53t15.5 -30.5t26.5 -13.5t37 -3h17q5 0 7.5 -3t2.5 -6q0 -10 -10 -10q-20 0 -32 0.5t-23 1t-23 1t-30 0.5q-44 0 -68.5 -1.5t-44.5 -1.5q-10 0 -10 10q0 3 2.5 6
t7.5 3h17q17 0 32 2.5t26.5 10.5t18.5 22.5t7 38.5v573q-13 23 -22 28t-19 5h-54q-10 0 -10 10q0 2 1.5 5.5t8.5 3.5q54 -3 88 -3q28 0 54.5 1.5t43.5 1.5l365 -554v461q0 24 -7 38.5t-18.5 22.5t-26.5 10.5t-32 2.5h-17q-10 0 -10 10q0 9 10 9q19 0 31.5 -0.5t23.5 -1
t23 -1t30 -0.5q44 0 68.5 1.5t44.5 1.5q10 0 10 -9q0 -10 -10 -10h-17q-21 0 -37 -3t-26.5 -13t-15.5 -30t-5 -53v-601q0 -8 -1.5 -12.5t-8.5 -4.5q-5 0 -10.5 3.5t-12.5 14.5z" />
    <glyph glyph-name="dollar" unicode="$" horiz-adv-x="566" 
d="M281 -48v57q-42 1 -69.5 13.5t-46.5 26.5t-32 26t-25 12q-13 0 -17.5 -12.5t-4.5 -25.5v-7q0 -16 -11 -16q-5 0 -7 3t-2 13v205q0 10 2 13t7 3q9 0 9 -6t1 -10q12 -106 63 -162t133 -57v289q-38 11 -75.5 23.5t-67.5 33t-48.5 52.5t-18.5 82q0 47 16.5 82.5t44 59.5
t63.5 36t75 12h11v50h18v-52q37 -4 65.5 -17.5t52.5 -28.5q17 -11 22 -13t8 -2q6 0 7 3t1 10v28q0 17 12 17q8 0 9.5 -5t1.5 -12q3 -58 6.5 -90t6.5 -48.5t5 -22t2 -10.5q0 -7 -7 -7q-11 0 -16 16q-26 75 -68.5 115t-107.5 46v-255q39 -11 77 -24.5t68.5 -35.5t49 -55.5
t18.5 -83.5q0 -48 -17 -86.5t-46 -66t-68 -43t-82 -16.5v-57h-18zM299 28q31 1 59.5 11.5t50 28.5t34.5 44t13 59t-13 56t-34.5 39t-50 26.5t-59.5 19.5v-284zM281 677h-6q-39 0 -69.5 -10.5t-51.5 -27.5t-32.5 -40.5t-11.5 -48.5q0 -30 14 -49.5t37.5 -33.5t54.5 -23.5
t65 -18.5v252z" />
    <glyph glyph-name="percent" unicode="%" horiz-adv-x="631" 
d="M81 0l439 499h33l-441 -499h-31zM448 -7q-26 0 -47.5 10t-37.5 27.5t-25 40t-9 46.5t9 47t25 40.5t37.5 28.5t47.5 11t48 -11t37.5 -29t24.5 -40.5t9 -46.5t-9 -46.5t-24.5 -40t-37.5 -27.5t-48 -10zM448 4q18 0 30 9.5t19.5 25t10.5 36t3 42.5q0 21 -3 42t-10.5 37.5
t-19.5 27t-30 10.5t-30 -10t-19.5 -26.5t-10.5 -37.5t-3 -43t3 -42.5t10.5 -36t19.5 -25t30 -9.5zM180 254q-25 0 -46.5 10t-37.5 27t-25 39t-9 46t9 47t25 40.5t37.5 28.5t46.5 11t47 -11t37.5 -28.5t24.5 -40.5t9 -47t-9 -46t-24.5 -39t-37.5 -27t-47 -10zM180 264
q18 0 29.5 9.5t19 25t10.5 35.5t3 42t-3 42.5t-10.5 37t-19.5 26.5t-30 10q-17 0 -29 -10t-19 -26.5t-10 -37t-3 -42.5t3 -42t10.5 -35.5t19 -25t29.5 -9.5z" />
    <glyph glyph-name="ampersand" unicode="&#x26;" horiz-adv-x="704" 
d="M642 379q-17 0 -29 -3.5t-20.5 -12t-15.5 -23.5t-14 -38q-7 -21 -13 -42.5t-14 -44t-20.5 -46.5t-32.5 -51q27 -45 53.5 -71t61.5 -26q14 0 27.5 5.5t22.5 17.5q11 13 16 13t9 -4t4 -9q0 -6 -4 -11.5t-8 -8.5q-18 -18 -41.5 -26t-58.5 -8q-37 0 -70 12t-68 53
q-34 -30 -73.5 -47.5t-86.5 -17.5q-36 0 -74 12t-69 37t-51 63t-20 90q0 50 18.5 89t46 68.5t60 50.5t60.5 35q-13 32 -20.5 54t-11 37t-4.5 24t-1 16q0 39 10.5 66.5t28 45t40.5 26t49 8.5q13 0 32.5 -3t38.5 -14t32.5 -32t13.5 -57q0 -30 -10 -51.5t-27 -38t-39.5 -29
t-46.5 -24.5l89 -200q11 -25 19 -42.5t15 -32t13 -26.5t14 -27q19 27 31.5 53.5t19.5 50.5t9.5 44.5t2.5 35.5q0 12 -0.5 23t-4.5 19t-12.5 13t-23.5 5h-11q-11 0 -11 10q0 7 4 8t9 1q4 0 27.5 -1.5t61.5 -1.5t60 1.5t27 1.5q9 0 9 -9q0 -7 -3 -8.5t-8 -1.5h-18zM244 419
q-28 -18 -48 -34t-33 -35t-19 -42.5t-6 -55.5q0 -59 18 -101.5t45 -70t58 -40.5t57 -13q29 0 55 13t44 29q-14 19 -27.5 40t-27 46t-28 55.5t-30.5 68.5zM317 477q23 14 39.5 27.5t27 28.5t15.5 33t5 41q0 50 -19 68t-45 18q-29 0 -46.5 -19.5t-17.5 -62.5q0 -12 1.5 -23.5
t6 -26.5t12.5 -35t21 -49z" />
    <glyph glyph-name="quotesingle" unicode="'" horiz-adv-x="173" 
d="M87 441q-7 0 -8.5 5t-1.5 16q-1 62 -4 99.5t-6.5 61t-6 38.5t-2.5 32q0 15 4.5 27.5t24.5 12.5q19 0 23 -12t4 -26q0 -19 -2.5 -33.5t-5.5 -38t-6 -60.5t-4 -101q0 -11 -1 -16t-8 -5z" />
    <glyph glyph-name="parenleft" unicode="(" horiz-adv-x="254" 
d="M201 -64q-5 -3 -8 -2t-9 9q-19 20 -42 58.5t-43 90t-33.5 112.5t-13.5 126q0 67 14.5 127t35.5 108.5t43.5 84t38.5 54.5q7 8 10 8.5t7 -1.5q4 -4 3 -7.5t-3 -8.5q-14 -21 -29 -49t-28.5 -70.5t-22 -103t-8.5 -146.5q0 -76 7 -135.5t19 -105.5t28 -78.5t34 -54.5
q3 -5 4 -8t-4 -8z" />
    <glyph glyph-name="parenright" unicode=")" horiz-adv-x="254" 
d="M71 -57q-6 -8 -9 -9t-8 2q-7 7 0 16q18 22 34 54.5t28 78.5t19 105.5t7 135.5q0 86 -8.5 146.5t-22 103t-29 70.5t-28.5 49q-6 10 0 16q5 4 8.5 1.5t8.5 -8.5q16 -19 38.5 -54.5t43 -84t35 -108.5t14.5 -127q0 -65 -13.5 -126t-33.5 -112.5t-42.5 -90t-41.5 -58.5z" />
    <glyph glyph-name="asterisk" unicode="*" horiz-adv-x="409" 
d="M275 444q-8 11 -23 42t-48 75q-32 -44 -46.5 -75t-22.5 -42q-3 -4 -6.5 -7t-8.5 -3t-10 4q-6 6 -6 11q0 6 4 14q9 11 32.5 35t56.5 70q-53 20 -83.5 25.5t-47.5 11.5q-6 2 -10.5 6t-4.5 10q0 5 3.5 10.5t12.5 5.5q15 0 45 -18.5t88 -40.5q0 56 -6 88.5t-6 46.5
q0 7 3 13.5t13 6.5q11 0 13.5 -6.5t2.5 -13.5q0 -14 -5 -46.5t-5 -88.5q57 22 88 40.5t45 18.5q8 0 11.5 -5t3.5 -11q0 -11 -14 -16q-17 -6 -47.5 -11.5t-83.5 -25.5q33 -46 56.5 -70t31.5 -35q5 -8 5 -13q0 -6 -7 -12q-4 -4 -9 -4q-9 0 -15 10z" />
    <glyph glyph-name="plus" unicode="+" horiz-adv-x="428" 
d="M189 162v142h-141v49h141v142h50v-142h141v-49h-141v-142h-50z" />
    <glyph glyph-name="comma" unicode="," horiz-adv-x="265" 
d="M75 -132q-13 0 -13 9q0 8 7.5 10t15.5 4q28 6 48 20t32.5 30.5t18 32.5t5.5 27q0 10 -4 18.5t-10 8.5q-5 0 -9 -5.5t-10 -12t-15 -12t-24 -5.5q-24 0 -39.5 14t-15.5 40q0 29 19 44t44 15q15 0 30 -6t27 -17.5t19.5 -29.5t7.5 -42q0 -36 -16.5 -63t-38.5 -44.5
t-44.5 -26.5t-34.5 -9z" />
    <glyph glyph-name="hyphen" unicode="-" horiz-adv-x="422" 
d="M115 249q-15 0 -23 -2t-14 -8q-5 -4 -7 -8t-4 -4t-2 3q0 2 1.5 6.5t3.5 12.5l12 40q2 6 4.5 7t6.5 1h215q28 0 37 10q5 5 7.5 8.5t4.5 3.5v-1q0 -1 0.5 -1t0.5 -1q0 -4 -4 -19l-13 -40q-2 -6 -4 -7t-7 -1h-215z" />
    <glyph glyph-name="period" unicode="." horiz-adv-x="235" 
d="M118 -7q-23 0 -39.5 16t-16.5 39t16.5 39.5t39.5 16.5t39 -16.5t16 -39.5t-16 -39t-39 -16z" />
    <glyph glyph-name="slash" unicode="/" horiz-adv-x="428" 
d="M33 -109l326 855h38l-326 -855h-38z" />
    <glyph glyph-name="zero" unicode="0" horiz-adv-x="595" 
d="M298 -13q-47 0 -91 31.5t-78 84t-55 121t-21 141.5t21 138t55 113.5t78 77t91 28.5q46 0 90 -28.5t78 -77t55 -113.5t21 -138t-21 -141.5t-55 -121t-78 -84t-90 -31.5zM298 6q36 0 62 31t43 81.5t25.5 115t8.5 131.5q0 66 -8.5 127.5t-25.5 108t-43 74.5t-62 28t-62 -28
t-43.5 -74.5t-26 -108t-8.5 -127.5q0 -67 8.5 -131.5t26 -115t43.5 -81.5t62 -31z" />
    <glyph glyph-name="one" unicode="1" horiz-adv-x="378" 
d="M337 16q5 0 7.5 -3t2.5 -6q0 -10 -10 -10q-38 1 -72 2t-72 1q-23 0 -47 -0.5t-44 -1t-35.5 -1t-22.5 -0.5q-11 0 -11 10q0 3 3 6t8 3h98v550l-77 -77q-5 -5 -11 -5q-2 0 -5 2t-3 5q0 5 6 11l16.5 16.5t31 32t36 38.5t30.5 37q22 29 34 50t20 34q5 11 14 11q8 0 8 -11
v-694h95z" />
    <glyph glyph-name="two" unicode="2" horiz-adv-x="566" 
d="M83 0q-9 0 -14 0.5t-8 3.5t-4 8t-1 19q0 26 3.5 52t14 51t29.5 49t50 46q22 16 47.5 30.5t51 31.5t49 37t41.5 46.5t29 60.5t11 79q0 78 -33.5 124.5t-102.5 46.5q-21 0 -48 -5.5t-51.5 -20.5t-41.5 -41.5t-17 -68.5q0 -23 5 -40t12.5 -29t15 -20t13.5 -13q11 -9 11 -15
q0 -4 -4 -7t-9 -3q-6 0 -16 9q-5 5 -13.5 15t-17.5 24.5t-15.5 33.5t-6.5 43q0 25 9.5 55.5t32.5 57t61.5 44t95.5 17.5q55 0 98.5 -17t74 -46t47 -68t16.5 -82q0 -48 -20 -85t-56 -67.5t-86.5 -58t-110.5 -56.5q-15 -8 -36.5 -20.5t-41 -30.5t-34 -40.5t-15.5 -49.5h329
q35 0 44.5 10t9.5 30v80q0 11 10 11q3 0 6 -3t3 -8q0 -2 -1 -26t-1 -54q0 -15 0.5 -33.5t0.5 -35.5t0.5 -30t0.5 -18q0 -14 -5 -19q-3 -4 -21 -4h-391z" />
    <glyph glyph-name="three" unicode="3" horiz-adv-x="553" 
d="M180 398q-5 0 -8 1t-3 9q0 9 11 9h36q17 0 43 5.5t50 21.5t41.5 45.5t17.5 76.5q0 64 -36 100t-106 36q-28 0 -51.5 -5.5t-41 -14.5t-27 -20.5t-9.5 -23.5q0 -8 4.5 -13t12.5 -5t16 4t23 4q25 0 36 -14t11 -33q0 -29 -20 -42t-46 -13q-30 0 -50.5 17.5t-20.5 55.5
q0 36 19 60t47.5 38t63 19.5t65.5 5.5q49 0 90 -11.5t70.5 -31.5t46 -48.5t16.5 -62.5q0 -37 -18 -64.5t-46.5 -46.5t-63 -31t-67.5 -17q39 -5 76.5 -20.5t67.5 -41.5t48 -63t18 -85q0 -53 -22 -92t-57.5 -65t-80 -39t-90.5 -13q-39 0 -74.5 8t-63 25.5t-44 45.5t-16.5 68
q0 27 8 45t20 28t27.5 14t30.5 4q22 0 36.5 -6.5t23.5 -16.5t13 -22.5t4 -25.5q0 -26 -13.5 -42.5t-43.5 -16.5q-16 0 -25 4.5t-14.5 10t-9.5 10t-10 4.5q-14 0 -14 -21q0 -15 11 -31.5t31 -29.5t48 -21.5t63 -8.5q40 0 68.5 14t46.5 38.5t26 58t8 72.5q0 75 -24 115.5
t-56 59.5t-63 22t-45 3h-15z" />
    <glyph glyph-name="four" unicode="4" horiz-adv-x="594" 
d="M498 16q5 0 8 -3t3 -6q0 -10 -11 -10q-38 1 -71.5 2t-71.5 1q-23 0 -47 -0.5t-44 -1t-35.5 -1t-22.5 -0.5q-11 0 -11 10q0 3 3 6t8 3h98v181h-274q-8 0 -17.5 2t-9.5 13q0 5 3 7l376 492q3 5 5.5 8t7.5 3q8 0 8 -11v-429h71q35 0 44.5 10t9.5 30v81q0 5 3 7.5t6 2.5
q10 0 10 -10q0 -3 -1 -27t-1 -54q0 -31 1 -61.5t1 -41.5q0 -14 -5 -19q-4 -3 -22 -3h-117v-181h95zM304 581l-227 -299h227v299z" />
    <glyph glyph-name="five" unicode="5" horiz-adv-x="544" 
d="M126 591l-11 -210q9 10 22.5 21.5t31.5 21t41.5 15.5t53.5 6q41 0 83 -13t75.5 -40.5t54.5 -69t21 -98.5q0 -58 -22 -102t-58.5 -73t-83 -44t-94.5 -15q-35 0 -69 8t-61 26t-43.5 46t-16.5 68q0 27 7.5 44t20 27.5t28 14.5t30.5 4q22 0 36.5 -6.5t23.5 -16.5t13 -22.5
t4 -25.5q0 -26 -13.5 -42.5t-43.5 -16.5q-16 0 -25 4.5t-14.5 10t-9.5 10t-10 4.5q-14 0 -14 -21q0 -15 11 -31.5t31 -29.5t48 -21.5t61 -8.5q45 0 74 15.5t46.5 43t24 64t6.5 78.5q0 33 -5 69t-20.5 66t-44 49.5t-75.5 19.5q-52 0 -84.5 -22.5t-42.5 -56.5q-2 -7 -3.5 -8.5
t-5.5 -1.5q-8 0 -9.5 4t-1.5 15l12 322q0 10 5 14.5t21 4.5h223q21 0 35 0.5t23.5 2t16 5t11.5 9.5l14 16t15 8q6 0 9.5 -4t3.5 -8t-4 -12l-9 -18t-11 -20t-10 -18q-15 -29 -19 -42t-7 -15q-4 -4 -26 -4h-270z" />
    <glyph glyph-name="six" unicode="6" horiz-adv-x="519" 
d="M158 351q7 14 19.5 28.5t31 26t42.5 19t54 7.5q41 0 74.5 -16.5t57.5 -44.5t37.5 -66t13.5 -81q0 -61 -20.5 -105t-51.5 -72.5t-67 -42.5t-67 -14q-47 0 -88.5 25t-73 68.5t-50 101.5t-18.5 124q0 57 14.5 116.5t47.5 114.5t86 101.5t130 77.5q9 4 15 4q11 0 11 -13
q0 -3 -2.5 -6t-12.5 -8q-53 -25 -87.5 -64.5t-55 -86t-29.5 -97t-11 -97.5zM157 306q0 -66 5.5 -120.5t19.5 -94t38 -61t60 -21.5q43 0 73 56t30 159q0 49 -9 82.5t-24.5 54.5t-36.5 30.5t-44 9.5q-45 0 -73 -25t-39 -70z" />
    <glyph glyph-name="seven" unicode="7" horiz-adv-x="499" 
d="M119 591q-36 0 -45.5 -10t-9.5 -30v-81q0 -10 -9 -10q-10 0 -10 10q0 3 1 27t1 55q0 15 -0.5 33t-0.5 35t-0.5 30t-0.5 18q0 14 5 19q3 3 8 3.5t14 0.5h391q18 0 21 -4q4 -4 4.5 -10t0.5 -11q0 -38 -4.5 -63.5t-15.5 -47t-29.5 -42.5t-47.5 -51q-34 -35 -61.5 -65.5
t-47 -61.5t-30 -66t-10.5 -80q0 -31 3.5 -63.5t4.5 -70.5q0 -10 -1.5 -22t-7.5 -22t-17.5 -17t-31.5 -7q-22 0 -33.5 8.5t-17 22.5t-6.5 32t-1 37q0 79 21 133.5t55.5 97t78 79t89.5 79.5q26 24 51.5 55t30.5 60h-342z" />
    <glyph glyph-name="eight" unicode="8" horiz-adv-x="585" 
d="M399 389q27 -11 50.5 -26.5t41.5 -37t28.5 -48.5t10.5 -59q0 -35 -13.5 -75.5t-43 -75t-76.5 -57.5t-113 -23q-55 0 -97.5 16t-71 43t-43 62t-14.5 72q0 40 15.5 69t37.5 49t46 32t42 18q-28 12 -51.5 28.5t-41 38.5t-27 50t-9.5 64q0 57 23 94.5t57.5 59.5t75 30.5
t74.5 8.5q38 0 76 -9.5t68 -29.5t49 -51.5t19 -75.5q0 -40 -14.5 -69.5t-34 -50t-38 -32t-26.5 -15.5zM216 340q-16 -5 -33 -15t-30.5 -28t-22.5 -44t-9 -62t10 -69.5t30.5 -59t52 -41t75.5 -15.5q35 0 65.5 10.5t52.5 30t34.5 47t12.5 62.5q0 45 -21 73t-55 47t-76.5 33
t-85.5 31zM379 397q9 5 21.5 14.5t24.5 25.5t20 39.5t8 57.5q0 19 -4.5 47.5t-20.5 55.5t-46.5 46.5t-82.5 19.5q-32 0 -59 -8.5t-47 -25t-31.5 -41t-11.5 -57.5q0 -44 20 -71t52.5 -45t73.5 -30.5t83 -27.5z" />
    <glyph glyph-name="nine" unicode="9" horiz-adv-x="519" 
d="M361 363q-14 -30 -51 -56t-96 -26q-41 0 -74.5 16.5t-57.5 44.5t-37.5 66t-13.5 81q0 61 20.5 105.5t51.5 73t67 42t67 13.5q46 0 88 -25t73.5 -68.5t50 -101t18.5 -123.5q0 -57 -14 -117t-46 -114.5t-84.5 -101.5t-129.5 -78q-9 -4 -15 -4q-12 0 -12 14q0 3 3 5.5
t13 7.5q53 25 86.5 65t53.5 86.5t28.5 97t10.5 97.5zM362 407q0 66 -5.5 120.5t-20 94t-38 61t-59.5 21.5q-43 0 -73 -56t-30 -159q0 -49 9 -82.5t24.5 -54.5t36.5 -30t44 -9q44 0 72.5 24.5t39.5 69.5z" />
    <glyph glyph-name="colon" unicode=":" horiz-adv-x="239" 
d="M120 -7q-23 0 -39.5 16t-16.5 39t16.5 39.5t39.5 16.5t39 -16.5t16 -39.5t-16 -39t-39 -16zM120 285q-23 0 -39.5 16t-16.5 39t16.5 39t39.5 16t39 -16t16 -39t-16 -39t-39 -16z" />
    <glyph glyph-name="semicolon" unicode=";" horiz-adv-x="276" 
d="M134 286q-23 0 -39 16t-16 39t16 39t39 16t39 -16t16 -39t-16 -39t-39 -16zM80 -132q-13 0 -13 9q0 8 7.5 10t15.5 4q27 6 47 19.5t32.5 29.5t18.5 32.5t6 28.5q0 11 -4.5 19t-9.5 8t-9 -5.5t-10 -12t-15 -12t-24 -5.5q-24 0 -39.5 14t-15.5 40q0 29 19 44t44 15
q15 0 30 -6t27 -17.5t19.5 -29.5t7.5 -42q0 -36 -16.5 -63t-38.5 -44.5t-44.5 -26.5t-34.5 -9z" />
    <glyph glyph-name="less" unicode="&#x3c;" horiz-adv-x="439" 
d="M42 287q-7 5 -7 9q0 5 7 10l287 197q10 5 14 5q5 0 9.5 -3.5t4.5 -8.5q0 -7 -7 -12l-280 -188l280 -188q7 -5 7 -11q0 -5 -4.5 -8.5t-9.5 -3.5q-3 0 -5.5 0.5t-8.5 4.5z" />
    <glyph glyph-name="equal" unicode="=" horiz-adv-x="495" 
d="M71 217v52h353v-52h-353zM71 386v52h353v-52h-353z" />
    <glyph glyph-name="greater" unicode="&#x3e;" horiz-adv-x="439" 
d="M110 90q-6 -4 -8.5 -4.5t-5.5 -0.5q-5 0 -9.5 3.5t-4.5 8.5q0 6 7 11l280 188l-280 188q-7 5 -7 12q0 5 4.5 8.5t9.5 3.5q4 0 14 -5l287 -197q7 -5 7 -10q0 -4 -7 -9z" />
    <glyph glyph-name="question" unicode="?" horiz-adv-x="446" 
d="M171 181q-10 8 -21 18t-20 24t-14.5 32.5t-5.5 42.5q0 44 17 75t42 56t54.5 45.5t54.5 42.5t42 48t17 62q0 50 -34 75t-92 25q-35 0 -58.5 -8t-38 -18.5t-21 -21t-6.5 -15.5t2 -5q1 0 3.5 1t7.5 1q22 0 34 -12.5t12 -31.5q0 -22 -13 -33.5t-32 -11.5q-23 0 -36.5 15
t-13.5 38q0 16 8 36.5t27.5 39.5t52 32t80.5 13q37 0 72 -9.5t61.5 -29t42.5 -49.5t16 -71q0 -46 -19.5 -80.5t-48 -61.5t-62.5 -49.5t-62.5 -44t-48 -44.5t-19.5 -52q0 -22 10.5 -35t24.5 -26q6 -5 6 -9q0 -8 -9 -8q-4 0 -12 4zM165 -7q-23 0 -39 16t-16 39t16 39.5
t39 16.5t39.5 -16.5t16.5 -39.5t-16.5 -39t-39.5 -16z" />
    <glyph glyph-name="at" unicode="@" horiz-adv-x="917" 
d="M532 207q-15 20 -37 28t-46 8q-27 0 -44 -9t-27.5 -24.5t-14.5 -35t-4 -40.5q0 -54 22.5 -84.5t62.5 -30.5q30 0 51 16t37 39v133zM579 -191q-42 -7 -72 -9t-53 -2q-96 0 -171.5 35.5t-127 93.5t-79 131.5t-27.5 150.5q0 74 26 145t80 126t136 88.5t194 33.5
q79 0 150.5 -19t125.5 -59.5t86 -104t32 -151.5q0 -47 -11 -96t-38 -89t-72.5 -65t-114.5 -25q-48 0 -76 14t-33 46q-32 -35 -67 -50.5t-73 -15.5q-59 0 -97.5 32.5t-38.5 89.5q0 31 12 58.5t34.5 48.5t55.5 33t74 12q39 0 61.5 -9.5t36.5 -22.5v57q0 32 -1.5 56t-10 40
t-27.5 24t-54 8q-28 0 -47 -4.5t-31 -10.5t-17.5 -12.5t-5.5 -11.5q0 -3 3 -3t5.5 1t7.5 1q17 0 31 -11.5t14 -32.5t-13 -33t-33 -12t-34.5 14t-14.5 43q0 15 5.5 31.5t21 29.5t42.5 21.5t70 8.5q28 0 60.5 -5t60 -18t45.5 -36t18 -59v-207q0 -32 1 -50.5t5 -28.5
t11.5 -12.5t20.5 -2.5q48 0 84.5 20.5t61 55.5t37 81t12.5 98q0 83 -30 142.5t-81 97.5t-118.5 56t-142.5 18q-107 0 -185 -32.5t-129 -85.5t-75.5 -120.5t-24.5 -138.5q0 -73 25.5 -142.5t76.5 -124t126 -88t174 -33.5q24 0 50 1.5t53 6.5v-17z" />
    <glyph glyph-name="A" unicode="A" horiz-adv-x="678" 
d="M689 16q5 0 7.5 -3t2.5 -6q0 -10 -10 -10q-22 0 -39 0.5l-34 1t-35.5 1t-43.5 0.5q-63 0 -103.5 -1.5t-47.5 -1.5q-10 0 -12 3t-2 6q0 10 10 10h61q22 0 32 3t10 17q0 6 -1.5 12t-4.5 14l-73 200h-221l-40 -120q-8 -27 -13.5 -47.5t-5.5 -36.5q0 -42 50 -42h37
q5 0 7.5 -3t2.5 -6q0 -10 -10 -10q-19 0 -33 0.5t-26.5 1t-25.5 1t-31 0.5q-45 0 -69 -1.5t-44 -1.5q-11 0 -11 10q0 3 3 6t8 3h17q45 0 70.5 18t39.5 61l204 604q5 15 9.5 24.5t10.5 9.5q4 0 6.5 -3t7.5 -15l234 -639q7 -20 12.5 -31.5t11 -17.5t11 -8.5t11.5 -2.5h60z
M291 578l-99 -297h207z" />
    <glyph glyph-name="B" unicode="B" horiz-adv-x="644" 
d="M142 696h-98q-10 0 -10 10q0 4 2.5 6.5t10.5 2.5q3 0 25 -0.5t50.5 -1t56 -1t40.5 -0.5q20 0 45 1t48 1q37 0 82 -5.5t85 -23t67 -51.5t27 -91q0 -39 -14 -69.5t-38.5 -51.5t-57.5 -34t-70 -18q40 -6 75.5 -20t62.5 -36.5t42.5 -55t15.5 -75.5q0 -57 -26 -93t-66 -57
t-86.5 -28.5t-88.5 -7.5q-31 0 -64 2.5t-64 2.5q-16 0 -40 -1t-47.5 -1.5t-41 -1.5t-20.5 -1q-7 0 -9 3.5t-2 6.5t2.5 6t7.5 3h98v680zM270 19q36 0 74 3.5t69.5 20t51.5 50t20 93.5q0 63 -21.5 98t-55 52t-74.5 20.5t-79 3.5h-13v-341h28zM255 379q37 0 75 2.5t69 17.5
t50.5 46.5t19.5 88.5q0 60 -21.5 93t-54.5 48.5t-72.5 18t-75.5 2.5h-3v-317h13z" />
    <glyph glyph-name="C" unicode="C" horiz-adv-x="747" 
d="M701 161q-45 -85 -111.5 -129.5t-168.5 -44.5q-83 0 -151 29t-117 79.5t-76 118.5t-27 146q0 73 24.5 140.5t70 119t110.5 82.5t146 31q43 0 81.5 -11t84.5 -40q12 -8 19.5 -12t15.5 -4q5 0 9.5 3.5t4.5 11.5q0 6 -1.5 14t-1.5 15q0 10 11 10q9 0 13 -16q4 -19 7.5 -33
t9.5 -30.5t16 -40t26 -60.5q2 -4 2 -7q0 -9 -10 -9q-5 0 -7 3.5t-7 10.5q-32 49 -65.5 82.5t-67.5 54.5t-68.5 30t-68.5 9q-67 0 -114.5 -30.5t-77.5 -79t-44 -110.5t-14 -125q0 -72 17 -137.5t51.5 -115.5t87 -80t122.5 -30q83 0 147.5 42.5t104.5 118.5q4 8 8 8q2 0 6 -2
q5 -3 5 -7q0 -3 -2 -5z" />
    <glyph glyph-name="D" unicode="D" horiz-adv-x="808" 
d="M142 696h-98q-10 0 -10 10q0 4 2 6.5t10 2.5q3 0 25.5 -0.5t51 -1t55.5 -1t39 -0.5t31.5 0.5t41.5 1t42.5 1t33.5 0.5q21 0 58 -3t80 -14t87.5 -33.5t80.5 -62.5t59 -99t23 -144q0 -89 -25.5 -150.5t-65.5 -101.5t-89.5 -62t-96.5 -32t-87 -12t-62 -2q-46 0 -75.5 0.5
t-58.5 0.5q-24 0 -48 -0.5t-44.5 -1t-35.5 -1t-22 -0.5q-10 0 -10 10q0 3 2.5 6t7.5 3h98v680zM242 19q37 0 81.5 1.5t89.5 11t87.5 30t75.5 58t53 95.5t20 143q0 84 -19.5 142t-52.5 95.5t-75.5 58t-87.5 30t-90 11t-82 1.5v-677z" />
    <glyph glyph-name="E" unicode="E" horiz-adv-x="659" 
d="M399 16q55 0 89 14t52.5 37t26.5 53t13 62q1 7 2 12t8 5t8 -4.5t1 -11.5q-1 -27 -5.5 -66t-4.5 -88v-16t1 -16q-3 0 -20 0.5t-61 1t-120.5 1t-198.5 0.5q-21 0 -44.5 -0.5t-43.5 -1t-36 -1t-22 -0.5q-11 0 -11 10q0 3 3 6t8 3h98v680h-98q-11 0 -11 10q0 9 11 9
q39 -1 72 -2t74 -1h141.5h101.5t69.5 0.5t44.5 0.5t26.5 0.5t16.5 1.5q0 -14 0.5 -39.5t2.5 -41.5q2 -23 3 -39.5t1.5 -28t1 -19.5t0.5 -14t-1 -11t-8 -5t-8 4t-2 12q-2 31 -7 60.5t-23.5 52t-56 36.5t-103.5 14h-149v-290h45q46 0 70 10t35 26t13 36.5t2 40.5q0 16 11 16
q7 0 8 -4.5t1 -10.5q0 -33 -2.5 -59t-2.5 -65t2.5 -73.5t2.5 -63.5q0 -7 -1 -11.5t-8 -4.5q-8 0 -9 6t-1 10q-3 33 -6.5 57.5t-15.5 40t-35 23t-64 7.5h-45v-371h158z" />
    <glyph glyph-name="F" unicode="F" horiz-adv-x="620" 
d="M337 16q5 0 7.5 -3t2.5 -6q0 -10 -10 -10q-39 1 -73 2t-73 1q-40 0 -73.5 -1t-73.5 -2q-10 0 -10 10q0 3 2.5 6t7.5 3h98v680h-98q-10 0 -10 10q0 9 10 9q40 -1 73.5 -2t73.5 -1h196.5t115.5 0.5t59.5 1t28.5 1.5q0 -14 0.5 -39.5t2.5 -41.5q1 -21 2 -34t1.5 -23.5
t0.5 -20.5t1 -23q0 -8 -1 -12t-7 -4q-11 0 -11 16q0 33 -6.5 63t-26.5 52t-57.5 35t-99.5 13h-148v-290h45q30 0 52 3.5t37 15.5t22.5 34t8.5 60q0 16 11 16q6 0 7 -4.5t1 -11.5q-1 -37 -2 -53.5t-1.5 -25.5t-0.5 -17v-27v-29.5t0.5 -21t1.5 -30.5t2 -56q0 -7 -1 -11.5
t-7 -4.5q-11 0 -11 16q-1 42 -8.5 67t-22.5 38.5t-37 18t-52 4.5h-45v-371h95z" />
    <glyph glyph-name="G" unicode="G" horiz-adv-x="781" 
d="M579 305h-98q-10 0 -10 8q0 2 1.5 6t8.5 4q37 -1 71 -2t72 -1q45 0 78 1.5t50 1.5q10 0 10 -10q0 -8 -10 -8h-73v-197q0 -22 -2 -23q-2 -2 -7 -3.5t-10 -4.5q-14 -7 -31.5 -18.5t-30.5 -19.5q-36 -23 -77.5 -37.5t-92.5 -14.5q-64 0 -131 24.5t-122 71.5t-90 116.5
t-35 158.5q0 69 22.5 136t66.5 120t110 86t152 33q44 0 82 -11t84 -40q12 -8 19 -12.5t15 -4.5q14 0 14 16q0 6 -1.5 14t-1.5 14q0 11 11 11q10 0 13 -17q5 -21 9 -35.5t10 -30.5t15.5 -38.5t25.5 -59.5q2 -4 2 -7t-2.5 -6t-7.5 -3t-7.5 4t-6.5 10q-30 48 -62.5 81.5
t-67 54.5t-70.5 30.5t-71 9.5q-67 0 -114 -30.5t-77 -80t-44 -112t-14 -127.5q0 -79 19 -144.5t54.5 -112.5t86.5 -73t114 -26q39 0 66 9t44.5 21t27 25t13.5 22v221z" />
    <glyph glyph-name="H" unicode="H" horiz-adv-x="803" 
d="M756 16q5 0 8 -3t3 -6q0 -10 -11 -10q-38 1 -71.5 2t-71.5 1q-23 0 -47 -0.5t-44 -1t-35.5 -1t-22.5 -0.5q-11 0 -11 10q0 3 3 6t8 3h98v330h-321v-330h95q5 0 8 -3t3 -6q0 -10 -11 -10q-38 1 -71.5 2t-71.5 1q-23 0 -47 -0.5t-44 -1t-35.5 -1t-22.5 -0.5q-11 0 -11 10
q0 3 3 6t8 3h98v680h-98q-11 0 -11 10q0 9 11 9q38 -1 71.5 -2t71.5 -1q23 0 47 0.5t44 1t35.5 1t22.5 0.5q11 0 11 -9q0 -10 -11 -10h-95v-331h321v331h-98q-11 0 -11 10q0 9 11 9q38 -1 71.5 -2t71.5 -1q23 0 47 0.5t44 1t35.5 1t22.5 0.5q11 0 11 -9q0 -10 -11 -10h-95
v-680h95z" />
    <glyph glyph-name="I" unicode="I" horiz-adv-x="383" 
d="M337 16q5 0 7.5 -3t2.5 -6q0 -10 -10 -10q-38 1 -71.5 2t-71.5 1q-23 0 -47 -0.5t-44.5 -1t-36 -1t-22.5 -0.5q-10 0 -10 10q0 3 2.5 6t7.5 3h98v680h-98q-10 0 -10 10q0 9 10 9q38 -1 72 -2t72 -1q23 0 47 0.5t44 1t35.5 1t22.5 0.5q10 0 10 -9q0 -10 -10 -10h-95v-680
h95z" />
    <glyph glyph-name="J" unicode="J" horiz-adv-x="372" 
d="M136 696h-98q-10 0 -10 10q0 9 10 9q38 -1 71.5 -2t71.5 -1q23 0 47 0.5t44.5 1t36 1t22.5 0.5q10 0 10 -9q0 -10 -10 -10h-95v-666q0 -64 -10.5 -109t-26.5 -75t-36 -47t-39 -25t-34.5 -10t-23.5 -2q-16 0 -32 4t-28.5 13t-20.5 23t-8 35q0 27 14 46t42 19
q25 0 37.5 -14t12.5 -33q0 -23 -14.5 -37t-35.5 -14q-10 0 -14.5 2.5t-6.5 2.5t-2 -3q0 -8 13.5 -16.5t39.5 -8.5q46 0 59.5 33t13.5 95v787z" />
    <glyph glyph-name="K" unicode="K" horiz-adv-x="717" 
d="M723 16q5 0 7.5 -3t2.5 -6q0 -10 -10 -10q-22 0 -41 0.5t-37.5 1t-39 1t-45.5 0.5q-63 0 -103.5 -1.5t-47.5 -1.5q-10 0 -12.5 3t-2.5 6q0 10 11 10h48q21 0 35.5 3t14.5 16q0 8 -4.5 14t-9.5 13l-224 288l-24 -32v-302h95q5 0 8 -3t3 -6q0 -10 -11 -10q-38 1 -71.5 2
t-71.5 1q-23 0 -47 -0.5t-44 -1t-35.5 -1t-22.5 -0.5q-11 0 -11 10q0 3 3 6t8 3h98v680h-98q-11 0 -11 10q0 9 11 9q38 -1 71.5 -2t71.5 -1q23 0 47 0.5t44 1t35.5 1t22.5 0.5q11 0 11 -9q0 -10 -11 -10h-95v-348l192 252q17 22 25 37.5t8 31.5q0 27 -32 27h-26
q-11 0 -11 10q0 9 11 9q19 0 31 -0.5t22.5 -1t22.5 -1t30 -0.5q45 0 79.5 1.5t51.5 1.5q11 0 11 -9q0 -10 -11 -10h-17q-36 0 -58.5 -4.5t-39 -14.5t-29.5 -24.5t-29 -35.5l-141 -184l277 -357q25 -32 39.5 -46t32.5 -14h43z" />
    <glyph glyph-name="L" unicode="L" horiz-adv-x="618" 
d="M399 16q55 0 89 14t52.5 37t26.5 53t13 62q1 7 2.5 12t7.5 5q7 0 8 -4.5t1 -11.5q-1 -27 -5.5 -66t-4.5 -88v-16t1 -16q-11 1 -22 1.5t-27.5 0.5t-42 0.5t-66.5 0.5h-100h-142q-21 0 -44.5 -0.5t-43.5 -1t-36 -1t-22 -0.5q-11 0 -11 10q0 3 3 6t8 3h98v680h-98
q-11 0 -11 10q0 9 11 9q38 -1 71.5 -2t71.5 -1q23 0 47 0.5t44 1t35.5 1t22.5 0.5q11 0 11 -9q0 -10 -11 -10h-95v-680h158z" />
    <glyph glyph-name="M" unicode="M" horiz-adv-x="864" 
d="M818 16q5 0 8 -3t3 -6q0 -10 -11 -10q-38 1 -71.5 2t-71.5 1q-23 0 -47 -0.5t-44 -1t-35.5 -1t-22.5 -0.5q-11 0 -11 10q0 3 3 6t8 3h97v593l-201 -596q-5 -15 -9 -24.5t-11 -9.5q-4 0 -6.5 3.5t-6.5 14.5l-226 616v-497q0 -33 5 -53t15.5 -30.5t26 -13.5t36.5 -3h17
q5 0 8 -3t3 -6q0 -10 -11 -10q-19 0 -31.5 0.5t-23 1t-22.5 1t-30 0.5q-44 0 -68.5 -1.5t-44.5 -1.5q-11 0 -11 10q0 3 3 6t8 3h17q16 0 31 2.5t27 10.5t19 22.5t7 38.5v573q-11 24 -18 28.5t-18 4.5h-59q-11 0 -11 10q0 2 2 5.5t9 3.5q54 -3 88 -3q28 0 55 1.5t44 1.5
l211 -580l193 580q1 0 7.5 -0.5t15.5 -1t18.5 -1t15.5 -0.5t21.5 0.5t32.5 1t32 1t21 0.5q10 0 10 -10q0 -3 -2 -6t-8 -3h-81v-680h95z" />
    <glyph glyph-name="N" unicode="N" horiz-adv-x="757" 
d="M163 638v-522q0 -33 5 -53t15.5 -30.5t26.5 -13.5t37 -3h17q5 0 7.5 -3t2.5 -6q0 -10 -10 -10q-20 0 -32 0.5t-23 1t-23 1t-30 0.5q-44 0 -68.5 -1.5t-44.5 -1.5q-10 0 -10 10q0 3 2.5 6t7.5 3h17q17 0 32 2.5t26.5 10.5t18.5 22.5t7 38.5v573q-13 23 -22 28t-19 5h-54
q-10 0 -10 10q0 2 1.5 5.5t8.5 3.5q54 -3 88 -3q28 0 54.5 1.5t43.5 1.5l365 -554v461q0 24 -7 38.5t-18.5 22.5t-26.5 10.5t-32 2.5h-17q-10 0 -10 10q0 9 10 9q19 0 31.5 -0.5t23.5 -1t23 -1t30 -0.5q44 0 68.5 1.5t44.5 1.5q10 0 10 -9q0 -10 -10 -10h-17q-21 0 -37 -3
t-26.5 -13t-15.5 -30t-5 -53v-601q0 -8 -1.5 -12.5t-8.5 -4.5q-5 0 -10.5 3.5t-12.5 14.5z" />
    <glyph glyph-name="O" unicode="O" horiz-adv-x="801" 
d="M400 -13q-77 0 -141 31t-111 82.5t-73 119t-26 140.5t26 140.5t73 119t111 82.5t141 31q76 0 141 -31t111.5 -82.5t73 -119t26.5 -140.5t-26.5 -140.5t-73 -119t-111.5 -82.5t-141 -31zM400 6q70 0 117 30.5t76 80t41.5 113t12.5 130.5t-12.5 130.5t-41.5 113t-76 80
t-117 30.5t-117 -30.5t-76 -80t-41.5 -113t-12.5 -130.5t12.5 -130.5t41.5 -113t76 -80t117 -30.5z" />
    <glyph glyph-name="P" unicode="P" horiz-adv-x="613" 
d="M337 16q5 0 7.5 -3t2.5 -6q0 -10 -10 -10q-38 1 -72 2t-72 1q-23 0 -46.5 -0.5t-44 -1t-36 -1t-22.5 -0.5q-10 0 -10 10q0 3 2.5 6t7.5 3h98v680h-98q-10 0 -10 10q0 9 13 9q3 0 25.5 -0.5t51 -1t55.5 -1t40 -0.5q21 0 45.5 1t49.5 1q40 0 88.5 -5.5t89.5 -24t69 -54
t28 -94.5q0 -49 -19.5 -82.5t-50.5 -55t-69.5 -33.5t-77.5 -17t-73.5 -6t-56.5 -1v-325h95zM248 360q36 0 78 3t77 18.5t58.5 49t23.5 95.5t-24 96.5t-60 51t-79 19.5t-80 3v-336h6z" />
    <glyph glyph-name="Q" unicode="Q" horiz-adv-x="803" 
d="M403 -13q-77 0 -142 31t-112 82.5t-73 119t-26 140.5t26 140.5t73 119t111 82.5t141 31q76 0 141 -31t111.5 -82.5t73 -119t26.5 -140.5q0 -57 -16.5 -111t-46 -100t-71.5 -82t-93 -57q14 -50 33.5 -83.5t45 -54.5t57.5 -31.5t72 -14.5q24 -2 30 -3t6 -6q0 -10 -10.5 -13
t-40.5 -3q-72 0 -123 11.5t-85.5 29t-55 39t-31.5 42t-15.5 38t-5.5 26.5zM401 6q70 0 117 30.5t76 80t41.5 113t12.5 130.5t-12.5 130.5t-41.5 113t-76 80t-117 30.5t-117 -30.5t-76 -80t-41.5 -113t-12.5 -130.5t12.5 -130.5t41.5 -113t76 -80t117 -30.5z" />
    <glyph glyph-name="R" unicode="R" horiz-adv-x="694" 
d="M335 16q10 0 10 -10q0 -9 -10 -9q-38 1 -71.5 2t-71.5 1q-23 0 -47 -0.5t-44.5 -1t-35 -1t-18.5 -0.5q-9 0 -11.5 2t-2.5 7q0 10 10 10h98v681h-98q-10 0 -10 10q0 4 2 6.5t10 2.5q3 0 25.5 -0.5t51 -1.5t56 -1.5t40.5 -0.5q23 0 46 1.5t52 1.5q42 0 87.5 -6t84 -24
t63.5 -52t25 -90q0 -41 -14.5 -72.5t-38.5 -53t-56 -35t-66 -18.5q63 -12 97 -36t49.5 -56.5t18.5 -70.5t3 -78q0 -20 1.5 -39.5t7.5 -36t18 -26.5t32 -10q16 0 28 5t17 7q6 3 9 3q7 0 7 -7q0 -5 -5 -9q-3 -3 -19.5 -10.5t-54.5 -7.5q-49 0 -77.5 15t-42.5 39t-18 53.5
t-5 58.5q-2 47 -5.5 83.5t-20.5 62t-51.5 38.5t-97.5 13h-51v-339h94zM279 374q30 0 64 3.5t62.5 19t47.5 47t19 87.5q0 57 -20 90t-52.5 50t-74 21.5t-84.5 4.5v-323h38z" />
    <glyph glyph-name="S" unicode="S" horiz-adv-x="581" 
d="M85 20q0 -16 -11 -16q-9 0 -9 16v205q0 16 8 16q5 0 8 -2t3 -14q0 -48 20.5 -88t52 -69t70 -45.5t73.5 -16.5q38 0 70 10.5t55.5 31.5t36.5 52.5t13 72.5q0 58 -30 89.5t-75 50t-97.5 31.5t-97.5 34.5t-75 59t-30 104.5q0 47 16.5 83t44 60t63.5 36t75 12q74 0 148 -48
q17 -11 21.5 -13t9.5 -2t6 3.5t1 9.5v29q0 16 11 16q12 0 12 -16q0 -46 3 -77.5t6.5 -51t6.5 -29.5t3 -13t-1 -5.5t-6 -2.5q-4 0 -8.5 2.5t-6.5 13.5q-8 39 -28.5 69.5t-49 51.5t-62.5 31.5t-68 10.5q-29 0 -57.5 -8.5t-51 -25t-36 -41t-13.5 -55.5q0 -36 18 -59t48 -37.5
t67.5 -24.5t77.5 -21t77.5 -26t67.5 -40.5t48 -64t18 -95.5q0 -31 -12.5 -70.5t-40 -74t-71.5 -58.5t-107 -24q-39 0 -69.5 12.5t-54 27t-41.5 27t-31 12.5q-9 0 -14 -12t-5 -26v-8z" />
    <glyph glyph-name="T" unicode="T" horiz-adv-x="645" 
d="M468 16q5 0 7.5 -3t2.5 -6q0 -10 -10 -10q-38 1 -72 2t-72 1q-23 0 -47 -0.5t-44 -1t-35.5 -1t-22.5 -0.5q-10 0 -10 10q0 3 2.5 6t7.5 3h98v680h-45q-63 0 -98.5 -14.5t-53.5 -38t-24 -53.5t-9 -60q-1 -11 -3 -13.5t-7 -2.5q-7 0 -8 4t-1 12l11 185q18 -1 33 -1.5t32 -1
t38.5 -0.5h51.5h265h51.5t38.5 0.5t32.5 1t32.5 1.5l12 -185q0 -8 -1 -12t-8 -4t-8.5 4t-1.5 12q-3 30 -9 60t-24.5 53.5t-54 38t-98.5 14.5h-44v-680h95z" />
    <glyph glyph-name="U" unicode="U" horiz-adv-x="764" 
d="M616 622q0 24 -7 38.5t-18.5 22.5t-26.5 10.5t-32 2.5h-17q-10 0 -10 10q0 9 10 9q19 0 31.5 -0.5t23.5 -1t23 -1t32 -0.5t32.5 0.5t23 1t23 1t32.5 0.5q10 0 10 -9q0 -10 -10 -10h-17q-21 0 -37 -3t-26.5 -13t-15.5 -30t-5 -53v-356q0 -59 -8.5 -106t-32 -80
t-65.5 -50.5t-108 -17.5q-90 0 -147.5 15.5t-90 48.5t-44.5 85t-12 125v435h-98q-11 0 -11 10q0 9 11 9q39 -1 73 -2t73 -1t73 1t73 2q11 0 11 -9q0 -10 -11 -10h-95v-450q0 -56 3.5 -100.5t22.5 -75.5t58 -47.5t111 -16.5q59 0 97 14.5t59.5 43.5t30 72t8.5 100v386z" />
    <glyph glyph-name="V" unicode="V" horiz-adv-x="676" 
d="M94 636q-8 21 -13.5 33t-11 18t-10.5 7.5t-11 1.5h-60q-10 0 -10 10q0 9 10 9q22 0 39 -0.5l34 -1t35.5 -1t43.5 -0.5q63 0 103.5 1.5t47.5 1.5q10 0 12.5 -2.5t2.5 -5.5q0 -11 -11 -11h-61q-19 0 -30 -3.5t-11 -17.5q0 -7 5 -24l188 -516l146 436q8 26 13.5 47t5.5 36
q0 22 -11.5 32t-38.5 10h-37q-10 0 -10 10q0 9 10 9q19 0 33 -0.5t26.5 -1t25.5 -1t31 -0.5q45 0 69 1.5t44 1.5q11 0 11 -9q0 -10 -11 -10h-17q-34 0 -63.5 -15t-46.5 -64l-204 -604q-5 -15 -9.5 -24.5t-10.5 -9.5q-4 0 -6.5 3.5t-7.5 14.5z" />
    <glyph glyph-name="W" unicode="W" horiz-adv-x="928" 
d="M470 470l-136 -457q-7 -22 -10.5 -28t-8.5 -6q-8 0 -15 18l-211 639q-14 39 -24 49.5t-22 10.5h-60q-10 0 -10 10q0 9 10 9q22 0 39 -0.5l34 -1t35.5 -1t43.5 -0.5q62 0 90.5 1.5t41.5 1.5q11 0 11 -9q0 -10 -11 -10h-38q-21 0 -30 -3t-9 -16q0 -6 2 -12t4 -14l159 -507
l105 356l-45 136q-7 21 -12.5 33t-11 18t-10.5 7.5t-11 1.5h-36q-11 0 -11 10q0 9 11 9q22 0 35 -0.5t25.5 -1t27.5 -1t40 -0.5q62 0 97 1.5t43 1.5q9 0 11.5 -2.5t2.5 -5.5q0 -11 -11 -11h-49q-22 0 -32 -3t-10 -17q0 -5 2 -11t4 -14l160 -505l120 425q16 52 16 83
q0 22 -11 32t-38 10h-54q-11 0 -11 10q0 9 11 9q19 0 32 -0.5t24 -1t23.5 -1t30.5 -0.5q44 0 65.5 1.5t41.5 1.5q11 0 11 -9q0 -10 -11 -10h-14q-10 0 -21 -1t-22.5 -8.5t-22 -23.5t-19.5 -46l-171 -604q-5 -20 -9 -27t-10 -7q-7 0 -14 18z" />
    <glyph glyph-name="X" unicode="X" horiz-adv-x="684" 
d="M688 16q5 0 7.5 -3t2.5 -6q0 -10 -10 -10q-21 0 -40 0.5l-38 1t-39.5 1t-45.5 0.5q-60 0 -89.5 -1.5t-36.5 -1.5q-9 0 -11.5 3t-2.5 6q0 10 10 10h35q23 0 34.5 3.5t11.5 20.5q0 4 -1.5 7.5t-8.5 14.5l-152 265l-94 -186q-13 -26 -20.5 -46.5t-7.5 -39.5q0 -20 10 -29.5
t33 -9.5h19q5 0 7.5 -3t2.5 -6q0 -10 -10 -10q-20 0 -30 0.5t-18 1t-17.5 1t-27.5 0.5q-45 0 -73 -1.5t-47 -1.5q-11 0 -11 10q0 3 3 6t8 3h17q19 0 35 3t30 11.5t27.5 24t26.5 40.5l127 250l-166 291q-22 38 -37 49t-34 11h-61q-11 0 -11 10q0 9 11 9q21 0 40 -0.5t38.5 -1
t40 -1t45.5 -0.5q61 0 88.5 1.5t35.5 1.5q10 0 12.5 -2.5t2.5 -5.5q0 -11 -11 -11h-33q-22 0 -34 -3t-12 -17q0 -4 2 -9.5t8 -15.5l132 -233l79 154q13 26 20.5 45t7.5 39t-9 30t-32 10h-19q-10 0 -10 10q0 9 10 9q20 0 29.5 -0.5t17 -1t17 -1t27.5 -0.5q45 0 75 1.5t47 1.5
q11 0 11 -9q0 -10 -11 -10h-18q-18 0 -33 -1.5t-29.5 -9t-28 -23.5t-28.5 -45l-113 -217l187 -324q20 -36 35 -48t35 -12h60z" />
    <glyph glyph-name="Y" unicode="Y" horiz-adv-x="575" 
d="M432 16q5 0 8 -3t3 -6q0 -10 -11 -10q-38 1 -71.5 2t-71.5 1q-23 0 -47 -0.5t-44 -1t-35.5 -1t-22.5 -0.5q-11 0 -11 10q0 3 3 6t8 3h98v327l-138 293q-10 21 -18.5 33t-16 18t-14 7.5t-13.5 1.5h-48q-11 0 -11 10q0 9 11 9q22 0 39 -0.5t33.5 -1t35.5 -1t44 -0.5
q30 0 51.5 0.5t36.5 1t24.5 1t16.5 0.5q10 0 10 -9q0 -10 -10 -10h-35q-18 0 -31.5 -2.5t-13.5 -16.5q0 -10 9 -26l132 -281l97 220q7 17 12 33.5t5 33.5q0 24 -11.5 31.5t-37.5 7.5h-20q-10 0 -10 10q0 9 10 9q19 0 30 -0.5t20 -1t19.5 -1t28.5 -0.5q22 0 38.5 0.5t29.5 1
t23.5 1t20.5 0.5q11 0 11 -9q0 -10 -11 -10h-17q-17 0 -31.5 -2t-28 -9.5t-26 -23.5t-24.5 -44l-123 -274v-327h95z" />
    <glyph glyph-name="Z" unicode="Z" horiz-adv-x="589" 
d="M538 19q0 -11 -0.5 -14.5t-2.5 -5.5q-4 -2 -9 -2q-3 0 -14 0.5t-45 1t-98.5 1t-175.5 0.5h-154q-13 0 -13 5q0 3 3.5 8.5t5.5 10.5l378 672h-112q-48 0 -84.5 -8t-62.5 -26.5t-43.5 -50t-28.5 -78.5q-2 -8 -3.5 -12t-9.5 -4t-8 5q0 2 0.5 4.5t1.5 6.5l38 182
q20 -2 71 -2.5t120 -0.5h220q23 0 23 -4q0 -3 -3.5 -9t-5.5 -10l-377 -673h198q60 0 93.5 16t50.5 40t21.5 53.5t6.5 56.5q0 6 1.5 11.5t7.5 5.5q7 0 8.5 -4.5t1.5 -12.5v-163z" />
    <glyph glyph-name="bracketleft" unicode="[" horiz-adv-x="291" 
d="M262 -31q11 0 11 -10q0 -9 -11 -9q-20 0 -37 0.5t-36 1t-41 0.5h-52v808q66 0 109 1.5t57 1.5q11 0 11 -10q0 -3 -3 -6t-8 -3h-95v-775h95z" />
    <glyph glyph-name="backslash" unicode="\" horiz-adv-x="428" 
d="M395 -109h-37l-327 855h38z" />
    <glyph glyph-name="bracketright" unicode="]" horiz-adv-x="291" 
d="M195 -48h-52t-41 -0.5t-36 -1t-37 -0.5q-11 0 -11 9q0 10 11 10h95v775h-95q-5 0 -8 3t-3 6q0 10 11 10q14 0 57.5 -1.5t108.5 -1.5v-808z" />
    <glyph glyph-name="asciicircum" unicode="^" horiz-adv-x="365" 
d="M316 461l-134 172l-134 -172h-30l149 221h31l149 -221h-31z" />
    <glyph glyph-name="underscore" unicode="_" horiz-adv-x="529" 
d="M57 -20v40h415v-40h-415z" />
    <glyph glyph-name="grave" unicode="`" horiz-adv-x="228" 
d="M145 461l-102 127h80l57 -127h-35z" />
    <glyph glyph-name="a" unicode="a" horiz-adv-x="492" 
d="M402 108q0 -28 0.5 -46t3.5 -28.5t9.5 -15t18.5 -4.5q22 0 26 10t4 21q0 2 1 7.5t9 5.5q7 0 8 -5.5t1 -7.5q0 -10 -2.5 -19.5t-11 -16.5t-24 -11.5t-41.5 -4.5q-37 0 -62 12.5t-33 47.5q-32 -35 -66.5 -50.5t-72.5 -15.5q-59 0 -97.5 32.5t-38.5 89.5q0 31 12 58.5
t34.5 48.5t55 33t74.5 12q38 0 60.5 -9.5t36.5 -22.5v57q0 31 -1.5 55t-10 40.5t-27.5 24.5t-53 8q-30 0 -49.5 -4.5t-31 -10.5t-16 -13t-4.5 -11v-2q0 -1 1 -1q2 0 4 1t9 1q22 0 34 -13t12 -31q0 -21 -13 -33t-32 -12q-20 0 -35 14t-15 43q0 15 5.5 31.5t21 29.5t42.5 21.5
t70 8.5q28 0 60.5 -5t60 -18t45.5 -36t18 -59v-207zM307 208q-15 20 -36.5 27.5t-44.5 7.5q-27 0 -45 -9.5t-28.5 -24.5t-14.5 -34.5t-4 -40.5q0 -54 22.5 -84.5t62.5 -30.5q30 0 51.5 16.5t36.5 39.5v133z" />
    <glyph glyph-name="b" unicode="b" 
d="M188 25q0 -10 -0.5 -14.5t-3.5 -7.5q-5 -5 -18 -5q-9 0 -34 1t-52 1q-14 0 -20.5 -0.5t-11.5 -0.5t-10 -0.5t-15 -0.5t-10 10q0 3 2.5 6t7.5 3h70v658q0 24 -6.5 30.5t-23.5 6.5h-40q-10 0 -10 10q0 9 10 9h98q29 0 43.5 2t19.5 2q4 0 4 -8v-365q12 19 31 35
q17 14 42.5 25t63.5 11q45 0 82 -18t63.5 -49t40.5 -71t14 -85q0 -50 -17 -91t-45.5 -70t-65 -45.5t-75.5 -16.5q-36 0 -61.5 12t-41 26.5t-23 27.5t-8.5 15v-43zM188 163q0 -42 11 -71.5t28.5 -48.5t40.5 -28t47 -9q36 0 57.5 17.5t33.5 46t15.5 65t3.5 73.5
q0 34 -3.5 70.5t-15.5 66.5t-34.5 49.5t-61.5 19.5q-34 0 -57 -13.5t-37 -29.5q-17 -19 -28 -43v-165z" />
    <glyph glyph-name="c" unicode="c" horiz-adv-x="467" 
d="M430 105q-19 -58 -63 -88t-108 -30q-43 0 -83 14t-70.5 41t-49 67t-18.5 93q0 45 14.5 86.5t44 74t72.5 51.5t100 19q45 0 74.5 -10.5t46.5 -26.5t24 -35t7 -35q0 -25 -13.5 -40t-36.5 -15q-18 0 -31.5 11.5t-13.5 32.5t13.5 33t30.5 12q8 0 10.5 -1t4.5 -1t2 4
q0 6 -7 14.5t-20.5 17t-34 14.5t-48.5 6q-78 0 -108.5 -52t-30.5 -147q0 -60 10 -100.5t28 -64.5t42.5 -34t53.5 -10q36 0 61.5 12t42 29t26 36t14.5 34q4 12 11 12q8 0 8 -6q0 -4 -5 -18z" />
    <glyph glyph-name="d" unicode="d" 
d="M540 17q5 0 7.5 -3t2.5 -6q0 -10 -10 -10q-18 0 -23.5 0.5t-7.5 1t-5 0.5h-15q-35 0 -57.5 -1t-33.5 -1q-14 0 -19 5q-4 4 -4 22v24q-1 -2 -8.5 -11.5t-23 -21t-39.5 -20.5t-58 -9q-44 0 -82 17t-66 47t-44 71t-16 88q0 45 14 85t40.5 71t63.5 49t82 18q38 0 63.5 -11
t42.5 -25q19 -16 31 -35v313q0 24 -6 30.5t-23 6.5h-40q-11 0 -11 10q0 9 11 9h98q29 0 43.5 2t18.5 2t4 -8v-710h70zM375 328q-11 24 -28 43q-14 16 -37.5 29.5t-56.5 13.5q-39 0 -61.5 -19t-34.5 -49.5t-15.5 -68t-3.5 -73.5q0 -39 4 -75t16 -63t35.5 -43.5t62.5 -16.5
q40 0 71.5 18.5t47.5 60.5v243z" />
    <glyph glyph-name="e" unicode="e" horiz-adv-x="471" 
d="M138 241q0 -55 3 -98.5t15 -74t35.5 -46.5t64.5 -16q20 0 42.5 5t43.5 18.5t39.5 36t30.5 57.5q2 4 4.5 8t8.5 4q7 0 7 -8q0 -2 -1 -4.5t-4 -11.5q-20 -58 -66.5 -91t-109.5 -33q-42 0 -80.5 14.5t-68 42t-47 68t-17.5 92.5q0 46 16 87.5t44.5 73t68 50t86.5 18.5
q37 0 67 -13t52.5 -35t37.5 -51t23 -61q1 -3 2.5 -10.5t1.5 -11.5q0 -7 -4 -8.5t-10 -1.5h-285zM329 260q0 32 -2.5 60t-11 49t-25.5 33t-46 12q-53 0 -77.5 -39.5t-27.5 -114.5h190z" />
    <glyph glyph-name="f" unicode="f" horiz-adv-x="301" 
d="M266 16q5 0 7.5 -3t2.5 -6q0 -10 -10 -10q-15 0 -28 0.5l-26 1t-27.5 1t-33.5 0.5q-47 0 -74.5 -1.5t-41.5 -1.5q-10 0 -10 10q0 3 2.5 6t7.5 3h66v380q-17 0 -31.5 -1t-34.5 -1q-10 0 -10 10q0 3 2.5 6t7.5 3l66 -3v138q0 72 21.5 111t50 57t56 21t38.5 3q33 0 59 -17
t26 -57q0 -26 -13 -43.5t-39 -17.5q-23 0 -33.5 13.5t-10.5 30.5q0 19 12 31.5t32 12.5q10 0 15 -2t7 -2t2 3q0 9 -12.5 19t-39.5 10q-24 0 -38.5 -9.5t-23 -26t-11.5 -40t-3 -51.5v-184l70 3q5 0 7.5 -3t2.5 -6q0 -10 -10 -10q-22 0 -37 1t-33 1v-380h70z" />
    <glyph glyph-name="g" unicode="g" horiz-adv-x="471" 
d="M314 45q12 0 33.5 -1.5t41.5 -12t35 -33t15 -64.5q0 -51 -17 -84t-45.5 -52.5t-67 -27.5t-81.5 -8q-37 0 -73 5t-64.5 17t-46 31.5t-17.5 47.5q0 19 8 34t19.5 27t25 21t25.5 15q-37 10 -53 34t-16 52q0 25 10.5 43.5t25.5 32t32 22t29 13.5q-34 18 -54 50t-20 74
q0 32 12.5 60t34 48.5t51 32t63.5 11.5q35 0 63.5 -12t51.5 -32q9 23 28 39t48 16q12 0 24 -3t21.5 -10t16 -18.5t6.5 -27.5q0 -21 -11 -35.5t-32 -14.5q-20 0 -30 11.5t-10 26.5q0 12 4.5 17.5t10 9t10 6.5t4.5 8q0 13 -23 13t-37 -15t-22 -33q17 -20 27.5 -45t10.5 -54
q0 -32 -12.5 -58.5t-34 -45.5t-51 -30t-63.5 -11q-32 0 -59 9q-12 -2 -24 -6.5t-22 -11.5t-16.5 -17t-6.5 -25q0 -8 2.5 -15t11.5 -12.5t25.5 -8.5t44.5 -3h138zM189 -45q-32 0 -51 -5.5t-29.5 -15t-14 -22t-3.5 -26.5q0 -38 18 -59t44 -31t56.5 -11.5t55.5 -1.5
q27 0 52.5 5t45.5 17.5t32 34.5t12 56q0 22 -10 34t-25.5 17.5t-34.5 6.5t-37 1h-111zM220 147q21 0 34 11t20 30t9.5 43t2.5 50t-2.5 51t-9.5 45t-20 32t-34 12t-34 -12t-20 -31.5t-9.5 -44.5t-2.5 -50q0 -26 2.5 -50.5t9.5 -43.5t20 -30.5t34 -11.5z" />
    <glyph glyph-name="h" unicode="h" horiz-adv-x="557" 
d="M542 16q5 0 7 -3t2 -6q0 -10 -9 -10q-15 0 -28 0.5t-25.5 1t-27 1t-33.5 0.5q-46 0 -78 -1.5t-39 -1.5q-11 0 -13.5 3t-2.5 6q0 10 12 10h69v284q0 22 -2.5 42t-10 34.5t-20 23t-32.5 8.5q-27 0 -49.5 -14.5t-39 -39t-25.5 -56.5t-9 -67v-215h69q6 0 9 -3t3 -6
q0 -10 -12 -10q-15 0 -27.5 0.5l-25 1t-26.5 1t-33 0.5q-45 0 -77.5 -1.5t-39.5 -1.5q-11 0 -13.5 3t-2.5 6q0 10 12 10h69v661q0 23 -6.5 29.5t-23.5 6.5h-39q-12 0 -12 9q0 7 3.5 8.5t8.5 1.5q31 -1 51 -1h47q29 0 44 3t19 3q3 0 3 -9v-409q0 2 7 19t23.5 37t44.5 36.5
t71 16.5q41 0 67.5 -16t42 -41t21.5 -55.5t6 -58.5v-241h71z" />
    <glyph glyph-name="i" unicode="i" horiz-adv-x="292" 
d="M268 16q5 0 8 -3t3 -6q0 -10 -11 -10q-16 0 -28.5 0.5l-25 1t-26.5 1t-33 0.5q-47 0 -76.5 -1.5t-43.5 -1.5q-11 0 -11 10q0 3 3 6t8 3h69v342q0 23 -6.5 30t-23.5 7h-39q-11 0 -11 10q0 3 3 6t8 3q13 0 23 -0.5t20.5 -0.5h23h30.5q29 0 43.5 2.5t19.5 2.5q4 0 4 -9v-393
h69zM206 615q0 -23 -16.5 -39t-39.5 -16t-38.5 16t-15.5 39t15.5 39t38.5 16t39.5 -16t16.5 -39z" />
    <glyph glyph-name="j" unicode="j" horiz-adv-x="279" 
d="M92 397h-70q-10 0 -10 10q0 3 2.5 6t7.5 3q15 0 28 -0.5l26 -1t27.5 -1t33.5 -0.5q47 0 74.5 1.5t41.5 1.5q5 0 8 -3t3 -6q0 -10 -11 -10h-66v-386q0 -62 -10 -105t-26 -70.5t-35.5 -42.5t-38 -22t-34 -8t-22.5 -1q-33 0 -59 17t-26 58q0 26 13 43t39 17q24 0 34 -13
t10 -30q0 -19 -12 -32t-32 -13q-10 0 -15 2.5t-7 2.5t-2 -3q0 -8 12.5 -19t41.5 -11q46 0 60 33.5t14 94.5v488zM196 615q0 -23 -16 -39t-39 -16t-38.5 16t-15.5 39t15.5 39t38.5 16t39 -16t16 -39z" />
    <glyph glyph-name="k" unicode="k" horiz-adv-x="576" 
d="M562 17q2 0 5 -1.5t3 -7.5q0 -7 -3 -8.5t-5 -1.5q-11 0 -29.5 0.5t-38.5 1t-40.5 0.5h-35.5q-43 0 -71 -1t-33 -1q-2 0 -4.5 1.5t-2.5 8.5q0 6 2.5 7.5t4.5 1.5h38q18 0 25 0.5t7 5.5q0 3 -3 7t-10 12l-156 176l-28 -24v-178h70q5 0 7.5 -3t2.5 -6q0 -10 -10 -10
q-16 0 -28.5 0.5l-25 1t-27 1t-33.5 0.5q-46 0 -76 -1.5t-44 -1.5q-11 0 -11 10q0 3 3 6t8 3h69v659q0 24 -6 30.5t-23 6.5h-40q-11 0 -11 10q0 9 11 9h98q29 0 43.5 2t18.5 2t4 -8v-509l105 90q32 28 50 46t18 28t-15.5 12t-25.5 2h-20q-3 0 -5 1.5t-2 8.5q0 6 2 7.5t5 1.5
q12 -1 37 -1.5t53 -0.5q19 0 41 0.5t41.5 0.5t33 0.5t16.5 0.5t6 -1.5t3 -7.5q0 -8 -3 -9t-5 -1h-45q-27 0 -49.5 -6.5t-45.5 -26.5l-101 -88l205 -231q14 -17 30 -22t35 -5h11z" />
    <glyph glyph-name="l" unicode="l" horiz-adv-x="279" 
d="M256 16q5 0 8 -3t3 -6q0 -10 -11 -10q-15 0 -27.5 0.5l-25 1t-27 1t-33.5 0.5q-46 0 -76 -1.5t-44 -1.5q-11 0 -11 10q0 3 3 6t8 3h69v659q0 24 -6 30.5t-23 6.5h-40q-11 0 -11 10q0 9 11 9h98q29 0 43.5 2t18.5 2t4 -8v-711h69z" />
    <glyph glyph-name="m" unicode="m" horiz-adv-x="852" 
d="M835 16q5 0 7.5 -3t2.5 -6q0 -10 -10 -10q-16 0 -28.5 0.5l-25 1t-26.5 1t-33 0.5q-47 0 -77 -1.5t-44 -1.5q-10 0 -10 10q0 3 2.5 6t7.5 3h69v283q0 22 -2.5 42t-10 34.5t-20 23t-32.5 8.5q-26 0 -48.5 -13.5t-39 -36.5t-26 -53.5t-9.5 -64.5v-223h70q5 0 7.5 -3t2.5 -6
q0 -10 -10 -10q-16 0 -28.5 0.5l-25 1t-26.5 1t-33 0.5q-47 0 -77 -1.5t-44 -1.5q-11 0 -11 10q0 3 3 6t8 3h69v283q0 22 -2.5 42t-10 34.5t-20 23t-32.5 8.5q-26 0 -48.5 -14t-39 -37.5t-26 -54.5t-9.5 -65v-220h69q5 0 8 -3t3 -6q0 -10 -11 -10q-15 0 -27.5 0.5l-25 1
t-27 1t-33.5 0.5q-46 0 -76 -1.5t-44 -1.5q-11 0 -11 10q0 3 3 6t8 3h69v342q0 23 -6 30t-23 7h-40q-11 0 -11 10q0 3 3 6t8 3q19 0 32.5 -0.5t24 -0.5h20h21.5q29 0 43.5 2.5t18.5 2.5t4 -9v-91q0 2 7 19t23.5 37t44.5 36.5t70 16.5q32 0 55.5 -10.5t40 -27t25.5 -37.5
t12 -43q6 14 15.5 34t26.5 39t43 32t65 13q42 0 68.5 -16t42 -41t21.5 -55.5t6 -58.5v-240h70z" />
    <glyph glyph-name="n" unicode="n" horiz-adv-x="569" 
d="M551 16q5 0 8 -3t3 -6q0 -10 -11 -10q-15 0 -27.5 0.5l-25 1t-27 1t-33.5 0.5q-46 0 -76 -1.5t-44 -1.5q-11 0 -11 10q0 3 3 6t8 3h69v283q0 22 -2.5 42t-10 34.5t-20.5 23t-33 8.5q-26 0 -48 -14t-38.5 -37.5t-26 -54.5t-9.5 -65v-220h69q5 0 8 -3t3 -6q0 -10 -11 -10
q-16 0 -28.5 0.5l-25 1t-26.5 1t-33 0.5q-47 0 -76.5 -1.5t-43.5 -1.5q-11 0 -11 10q0 3 3 6t8 3h69v342q0 23 -6.5 30t-23.5 7h-39q-11 0 -11 10q0 3 3 6t8 3q19 0 32.5 -0.5t24 -0.5h19.5h21q29 0 43.5 2.5t19.5 2.5q4 0 4 -9v-91q0 2 7 19t23.5 37t44.5 36.5t71 16.5
q41 0 67.5 -16t42 -41t21.5 -55.5t6 -58.5v-240h69z" />
    <glyph glyph-name="o" unicode="o" horiz-adv-x="498" 
d="M249 -13q-46 0 -84.5 18t-67 48.5t-44.5 70t-16 82.5t16 83.5t44.5 72.5t67 51.5t84.5 19.5q45 0 84 -19.5t67.5 -51.5t44.5 -72.5t16 -83.5t-16 -82.5t-44.5 -70t-67.5 -48.5t-84 -18zM249 6q31 0 52.5 16.5t35 44.5t19 63.5t5.5 74.5t-5.5 76.5t-19 67t-35 47.5
t-52.5 18q-32 0 -53.5 -17.5t-34.5 -47t-18.5 -66.5t-5.5 -76t5.5 -75t18.5 -64t34.5 -45t53.5 -17z" />
    <glyph glyph-name="p" unicode="p" horiz-adv-x="562" 
d="M257 -221q10 0 10 -10q0 -9 -10 -9q-16 0 -28.5 0.5l-25 1t-27 0.5h-33.5q-46 0 -76 -1t-44 -1q-11 0 -11 9q0 10 11 10h69v617h-69q-11 0 -11 10q0 3 3 6t8 3q11 -1 29.5 -1.5t32.5 -0.5q10 0 22.5 0.5t23.5 0.5t20.5 0.5t13.5 0.5q14 0 18 -5q4 -3 4 -21v-27
q12 19 31 35q17 14 42.5 25t63.5 11q46 0 83 -18t63 -49t40 -71.5t14 -85.5q0 -49 -16 -90t-44 -70t-65.5 -45.5t-79.5 -16.5q-36 0 -60 10t-39 23.5t-22.5 27t-10.5 20.5v-289h70zM187 167q0 -44 11 -75t29 -50t41 -27.5t47 -8.5q36 0 57.5 16t33 43t15.5 62.5t4 74.5
q0 30 -3 67t-15 69.5t-35 54t-63 21.5q-33 0 -56.5 -13.5t-37.5 -29.5q-18 -19 -28 -43v-161z" />
    <glyph glyph-name="q" unicode="q" horiz-adv-x="562" 
d="M540 -221q10 0 10 -10q0 -9 -10 -9q-15 0 -28 0.5l-26 1t-27.5 0.5h-33.5q-47 0 -76 -1t-43 -1q-11 0 -11 9q0 10 11 10h69v289q-2 -5 -9 -18t-22 -27t-39.5 -25t-61.5 -11q-42 0 -79.5 16.5t-65.5 45.5t-44 70t-16 90q0 45 14 85.5t40 71.5t63.5 49t84.5 18
q39 0 64.5 -11t41.5 -25q18 -16 29 -35v27q0 18 4 21q5 5 18 5q9 0 35 -1t50 -1q23 0 38.5 1t19.5 1q5 0 7.5 -3t2.5 -6q0 -10 -10 -10h-70v-617h70zM375 328q-10 24 -27 43q-14 16 -37 29.5t-56 13.5q-41 0 -64.5 -21.5t-35 -53.5t-14.5 -69t-3 -68q0 -39 3.5 -74.5
t15 -62.5t33 -43t57.5 -16q24 0 47 8t41 26.5t29 47.5t11 71v169z" />
    <glyph glyph-name="r" unicode="r" horiz-adv-x="386" 
d="M268 16q5 0 8 -3t3 -6q0 -10 -11 -10q-16 0 -28.5 0.5l-25 1t-26.5 1t-33 0.5q-47 0 -76.5 -1.5t-43.5 -1.5q-11 0 -11 10q0 3 3 6t8 3h69v342q0 23 -6.5 30t-23.5 7h-39q-11 0 -11 10q0 3 3 6t8 3q19 0 32.5 -0.5t24 -0.5h19.5h21q29 0 43.5 2.5t19.5 2.5q4 0 4 -9v-66
q4 14 11.5 29t18.5 27t27 20t38 8q29 0 52 -16.5t23 -56.5q0 -27 -13 -44t-39 -17q-24 0 -34 13t-10 30q0 19 12 32t32 13q11 0 15.5 -2.5t6.5 -2.5q1 0 1 3q0 11 -14 20t-34 9q-27 0 -44.5 -18.5t-28.5 -46.5t-15.5 -61t-4.5 -62v-204h69z" />
    <glyph glyph-name="s" unicode="s" horiz-adv-x="402" 
d="M51 129q0 10 10 10q5 0 7 -1.5t2 -8.5q0 -29 12.5 -51.5t32 -38.5t44.5 -24.5t50 -8.5q19 0 38.5 5.5t35.5 16t25.5 27t9.5 38.5q0 30 -20 46t-50 26t-65 18t-65 22.5t-50 40t-20 70.5q0 28 11.5 49.5t29.5 36.5t41 23t46 8q42 0 64.5 -12t42.5 -27q11 -8 14 -8q4 0 4 14
v17q0 10 9 10q10 0 10 -10v-28.5t1 -21.5t3 -20t5 -23q2 -4 2 -8q0 -6 -11 -6q-5 0 -9 9q-29 55 -61.5 75t-75.5 20q-33 0 -57.5 -20t-24.5 -53q0 -25 20.5 -37.5t51 -20.5t66 -15.5t66 -22.5t51 -41.5t20.5 -72.5q0 -63 -44 -103.5t-120 -40.5q-26 0 -47 7.5t-37 16t-27 16
t-16 7.5t-5.5 -5.5t-0.5 -19.5q0 -6 -1.5 -8.5t-7.5 -2.5q-10 0 -10 11v120z" />
    <glyph glyph-name="t" unicode="t" horiz-adv-x="343" 
d="M190 397v-192q0 -12 -0.5 -30t-0.5 -36t-0.5 -33.5t-0.5 -23.5q0 -15 2 -28.5t7 -24t15 -16.5t26 -6q34 0 48.5 24t14.5 51q0 7 1 13t8 6q8 0 9 -6t1 -13q0 -21 -5 -38t-18 -30t-35 -20t-56 -7q-40 0 -62.5 10.5t-33 31.5t-13 53t-2.5 76v239q-22 0 -42.5 -1t-39.5 -1
q-11 0 -11 10q0 9 11 9q14 0 40.5 5t52.5 25t45.5 60.5t19.5 111.5v42q0 8 1 13.5t9 5.5q7 0 8 -5.5t1 -13.5v-245h55t30 0.5t13.5 0.5h6.5q13 0 15.5 -3t2.5 -5q0 -11 -11 -11z" />
    <glyph glyph-name="u" unicode="u" horiz-adv-x="558" 
d="M535 17q5 0 7.5 -3t2.5 -6q0 -10 -10 -10q-11 1 -28 1.5t-33 0.5q-22 0 -47 -1t-35 -1q-13 0 -18 5q-4 4 -4 22v71q0 -2 -7 -19.5t-23.5 -37.5t-44.5 -36t-71 -16q-41 0 -67.5 16t-42 41t-21.5 55.5t-6 58.5v200q0 23 -6 30t-23 7h-40q-10 0 -10 10q0 3 2.5 6t7.5 3
q16 0 28 -0.5t22.5 -0.5h21.5h26q29 0 43.5 1t18.5 1t4 -8v-292q0 -45 13 -76.5t52 -31.5q26 0 48.5 14.5t39 39t26 56t9.5 66.5v175q0 23 -6 30t-23 7h-40q-10 0 -10 10q0 3 2.5 6t7.5 3q16 0 28 -0.5t22.5 -0.5h21.5h26q29 0 43.5 2.5t19.5 2.5q3 0 3 -9v-392h70z" />
    <glyph glyph-name="v" unicode="v" horiz-adv-x="455" 
d="M72 347q-14 30 -19.5 39t-19.5 9h-31q-8 0 -8 10q0 9 8 9h15t14.5 -0.5t28.5 -0.5h58h61t33 0.5t15 0.5h6q12 0 12 -9q0 -10 -8 -10h-50q-8 0 -15.5 -1.5t-7.5 -9.5q0 -5 2.5 -13t7.5 -20l93 -222l80 203q5 12 9 24.5t4 23.5t-6 13t-21 2h-35q-3 0 -6.5 2.5t-3.5 7.5
t3.5 7t6.5 2q22 -1 43.5 -1h23.5h44t24.5 0.5t11.5 0.5h5q12 0 12 -8q0 -6 -3.5 -8.5t-5.5 -2.5h-11q-15 0 -24.5 -0.5t-16 -4t-12 -11.5t-11.5 -22l-139 -354q-7 -16 -12 -16q-3 0 -7 10z" />
    <glyph glyph-name="w" unicode="w" horiz-adv-x="708" 
d="M351 287l-112 -284q-7 -16 -12 -16q-4 0 -7 10l-149 350q-13 30 -19 39t-20 9h-30q-3 0 -6 2.5t-3 7.5t3 7t6 2h15t14 -0.5t28.5 -0.5h58.5h61t33 0.5t15 0.5h6q12 0 12 -9q0 -10 -8 -10h-50q-8 0 -16 -1.5t-8 -9.5t11 -33l93 -222l105 265q5 11 8 15.5t11 4.5t11 -5
t8 -16l111 -264l79 203q5 11 9.5 24t4.5 24t-6.5 13t-21.5 2h-35q-3 0 -6 2.5t-3 7.5t3 7t6 2q23 -1 44.5 -1h23.5h44t24 0.5t11 0.5h5q12 0 12 -8q0 -6 -3 -8.5t-6 -2.5h-11q-14 0 -23.5 -0.5t-16.5 -4t-12 -11.5t-11 -22l-140 -354q-4 -9 -5.5 -12.5t-5.5 -3.5t-8 10z" />
    <glyph glyph-name="x" unicode="x" horiz-adv-x="571" 
d="M556 17q2 0 4.5 -1.5t2.5 -7.5q0 -7 -2.5 -8.5t-4.5 -1.5q-12 0 -32 0.5t-42.5 1t-44.5 0.5h-37q-44 0 -71 -1t-32 -1q-3 0 -5 1.5t-2 8.5q0 6 2 7.5t5 1.5h38q17 0 22.5 0.5t5.5 4.5q0 5 -10 20l-93 136l-73 -94q-10 -14 -17.5 -26.5t-7.5 -26.5q0 -11 6 -12.5t18 -1.5
h40q3 0 5.5 -1.5t2.5 -7.5q0 -7 -2.5 -8.5t-5.5 -1.5q-6 0 -19.5 0.5t-29.5 1t-32 0.5h-28q-17 0 -33 -0.5t-29.5 -0.5t-22.5 -0.5t-11 -0.5q-4 0 -7 1.5t-3 8.5t3 8t6 1h53q10 0 18.5 0.5t16 3.5t15 10t16.5 19l111 143l-39 58l-81 119q-14 20 -21.5 23t-18.5 3h-46
q-2 0 -5 1.5t-3 8.5q0 6 3 7.5t5 1.5q11 0 31 -0.5t42.5 -1t44 -0.5h35.5q42 0 61.5 1t24.5 1q3 0 5.5 -1.5t2.5 -7.5q0 -7 -2.5 -8.5t-5.5 -1.5h-19q-17 0 -22.5 -0.5t-5.5 -4.5q0 -5 10 -20l66 -97l43 56q10 13 17.5 25.5t7.5 26.5q0 11 -6 12.5t-18 1.5h-10
q-3 0 -5.5 1.5t-2.5 8.5q0 6 2.5 7.5t5.5 1.5q12 -1 32.5 -1.5t44.5 -0.5q16 0 32.5 0.5t30.5 0.5t23.5 0.5t11.5 0.5q4 0 7 -1.5t3 -7.5q0 -8 -3 -9t-6 -1h-53q-11 0 -19 -0.5t-15.5 -3.5t-15 -10t-16.5 -19l-81 -105l147 -214q14 -20 21.5 -23.5t18.5 -3.5h47z" />
    <glyph glyph-name="y" unicode="y" horiz-adv-x="498" 
d="M85 347q-9 17 -16 27t-13.5 14.5t-12.5 5.5t-13 1h-30q-3 0 -6 2.5t-3 7.5t3 7t6 2q11 0 28.5 -0.5t35.5 -0.5h35h28h63t44 1q9 0 9 -9q0 -10 -9 -10h-32q-13 0 -20 -1.5t-7 -9.5q0 -5 2 -14t10 -23l119 -231l84 216q5 12 9 25t4 22q0 12 -5.5 14t-21.5 2h-35
q-3 0 -6.5 2.5t-3.5 7.5t3.5 7t6.5 2q22 -1 41 -1h42q38 0 52 0.5t20 0.5q3 0 6 -2t3 -7t-3.5 -7.5t-5.5 -2.5h-11q-15 0 -24.5 -0.5t-16 -4t-11.5 -11.5t-11 -22l-134 -340q-29 -72 -46.5 -116t-32.5 -67t-30 -30.5t-37 -7.5q-26 0 -43.5 13t-17.5 39q0 23 14 33.5t31 10.5
t30.5 -12t13.5 -32q0 -10 -2.5 -14.5t-2.5 -6.5q0 -4 6 -4q9 0 18.5 14t20.5 38.5t23.5 57.5t28.5 71z" />
    <glyph glyph-name="z" unicode="z" horiz-adv-x="473" 
d="M430 14q0 -12 -2 -14t-4.5 -2.5t-10.5 -0.5q-23 1 -75.5 2t-145.5 1h-150q-14 0 -14 5q0 4 3.5 9.5t6.5 9.5l261 373h-62q-30 0 -56.5 -1.5t-48.5 -11.5t-38.5 -31.5t-26.5 -61.5q-2 -9 -3 -12.5t-9 -3.5q-6 0 -7.5 1.5t-1.5 4.5q0 2 2 10l27 125q21 -2 71.5 -2.5
t119.5 -0.5h132q24 0 24 -5q0 -6 -10 -19l-261 -373h88q48 0 81 4.5t53 18.5t29 39t9 66q0 17 10 17q6 0 7.5 -4.5t1.5 -12.5v-130z" />
    <glyph glyph-name="braceleft" unicode="{" horiz-adv-x="306" 
d="M39 356q-10 0 -15 1.5t-5 9.5t20 8h4q12 0 29 3t33 13.5t27.5 30.5t11.5 53t-9 58t-20.5 48.5t-20.5 48t-9 54.5q0 39 21.5 67.5t67.5 28.5q10 0 22.5 -3.5t23.5 -12t18.5 -22t7.5 -34.5q0 -26 -13.5 -38.5t-30.5 -12.5q-16 0 -28.5 11.5t-12.5 31.5q0 17 12 26t26 9
q9 0 12.5 -2t5.5 -2q1 0 1 2q0 7 -10 17.5t-33 10.5q-29 0 -46 -16.5t-17 -46.5q0 -33 20.5 -58.5t45.5 -49.5t45.5 -51.5t20.5 -65.5q0 -30 -14 -49t-36 -30.5t-49 -17.5t-53 -9q26 -4 53 -11t49 -19.5t36 -31.5t14 -47q0 -38 -20.5 -65t-45.5 -51.5t-45.5 -49.5t-20.5 -59
q0 -30 17 -46t46 -16q23 0 33 10.5t10 16.5q0 3 -1 3q-2 0 -5.5 -2.5t-12.5 -2.5q-14 0 -26 9t-12 26q0 21 12.5 32t28.5 11q17 0 30.5 -12t13.5 -38q0 -21 -7.5 -34.5t-18.5 -22t-23.5 -12t-22.5 -3.5q-46 0 -67.5 28t-21.5 67q0 30 9 54.5t20.5 48t20.5 48.5t9 58
t-11.5 53t-27.5 30.5t-33 13.5t-29 3h-4z" />
    <glyph glyph-name="bar" unicode="|" horiz-adv-x="220" 
d="M93 -238v969h34v-969h-34z" />
    <glyph glyph-name="braceright" unicode="}" horiz-adv-x="307" 
d="M264 356q-12 0 -29.5 -3t-33.5 -13.5t-27.5 -30.5t-11.5 -53t9 -58t20.5 -48.5t20.5 -48t9 -54.5q0 -39 -21.5 -67t-66.5 -28q-10 0 -22.5 3.5t-24 12t-19 22t-7.5 34.5q0 26 13.5 38t30.5 12q16 0 29 -11t13 -32q0 -17 -12 -26t-27 -9q-8 0 -11.5 2.5t-5.5 2.5
q-1 0 -1 -3q0 -6 9.5 -16.5t33.5 -10.5q29 0 45.5 16t16.5 46q0 34 -20.5 59t-45.5 49.5t-45.5 51.5t-20.5 65q0 28 14 47t36.5 31.5t49 19.5t52.5 11q-26 3 -52.5 9t-49 17.5t-36.5 30.5t-14 49q0 38 20.5 65.5t45.5 51.5t45.5 49.5t20.5 58.5q0 30 -16.5 46.5t-45.5 16.5
q-24 0 -33.5 -10.5t-9.5 -17.5q0 -2 1 -2q2 0 5.5 2t11.5 2q15 0 27 -9t12 -26q0 -20 -13 -31.5t-29 -11.5q-17 0 -30.5 12.5t-13.5 38.5q0 21 7.5 34.5t19 22t24 12t22.5 3.5q45 0 66.5 -28.5t21.5 -67.5q0 -30 -9 -54.5t-20.5 -48t-20.5 -48.5t-9 -58t11.5 -53t27.5 -30.5
t33.5 -13.5t29.5 -3h4q20 0 20 -8t-5 -9.5t-15 -1.5h-4z" />
    <glyph glyph-name="asciitilde" unicode="~" horiz-adv-x="451" 
d="M418 459q-14 -38 -32.5 -51.5t-38.5 -13.5t-44.5 6t-51.5 13.5t-54.5 13.5t-53.5 6q-11 0 -22 -4.5t-20.5 -11t-16.5 -13t-10 -10.5q-2 -2 -5 -4t-5 -2t-4 1.5t-2 3.5q0 4 8 12q24 23 38 37t24.5 21.5t20 10t23.5 2.5q24 0 51 -5.5t52 -12.5t47.5 -12.5t37.5 -5.5
q14 0 26 6t23 22q4 6 7 6q4 0 4 -5q0 -2 -0.5 -3.5t-1.5 -6.5z" />
    <glyph glyph-name="nonbreakingspace" unicode="&#xa0;" horiz-adv-x="260" 
 />
    <glyph glyph-name="exclamdown" unicode="&#xa1;" horiz-adv-x="264" 
d="M133 -238q-19 0 -30.5 7t-17.5 18t-8 24.5t-2 27.5q0 34 7.5 81t16.5 107t16.5 133.5t7.5 159.5q0 9 1 16t8 7q8 0 9 -7t1 -16q0 -87 7.5 -160t16 -133t16 -107t7.5 -82q0 -13 -1.5 -26.5t-7.5 -24.5t-17 -18t-30 -7zM188 447q0 -23 -16.5 -39t-39.5 -16t-39 16t-16 39
t16 39.5t39 16.5t39.5 -16.5t16.5 -39.5z" />
    <glyph glyph-name="cent" unicode="&#xa2;" horiz-adv-x="477" 
d="M253 0v135q-42 1 -80.5 15.5t-68 42t-47.5 67t-18 91.5q0 43 13.5 83t40.5 71.5t67 51.5t93 23v132h18v-131q45 0 74 -11t46.5 -27t24 -34.5t6.5 -34.5q0 -25 -13.5 -40t-35.5 -15q-19 0 -32.5 11.5t-13.5 33.5q0 20 13.5 32t30.5 12q8 0 10.5 -1t4.5 -1t2 4
q0 6 -6.5 14.5t-20 17t-34 14.5t-48.5 6h-8v-408h2q36 0 61.5 12t42.5 29t26.5 36t14.5 34q2 8 4.5 10t6.5 2q8 0 8 -6q0 -2 -1 -5.5t-4 -11.5q-19 -56 -60 -86.5t-101 -32.5v-135h-18zM253 560q-63 -8 -88.5 -59t-25.5 -138q0 -55 8.5 -93t23.5 -63t36 -37t46 -15v405z" />
    <glyph glyph-name="sterling" unicode="&#xa3;" horiz-adv-x="493" 
d="M444 16q5 0 8 -3t3 -6q0 -10 -11 -10h-23t-43.5 0.5t-56 1t-59 1t-53 0.5h-37.5q-41 0 -73.5 -1.5t-46.5 -1.5q-11 0 -11 10q0 3 3 6t8 3h48q17 0 19.5 5.5t2.5 27.5v479q0 61 23 97.5t56 56t68.5 25t60.5 5.5q18 0 38.5 -4t37 -12.5t27.5 -22.5t11 -35q0 -26 -13 -43
t-39 -17q-23 0 -33.5 13.5t-10.5 30.5t12 30.5t32 13.5q9 0 17 -3q4 -2 5 -2q2 0 2 3q0 11 -23 20t-56 9q-29 0 -50.5 -6t-36 -20.5t-21.5 -39t-7 -61.5v-186q9 0 27.5 0.5t39.5 1t40 1t29 0.5t10 -10q0 -3 -2.5 -6t-7.5 -3q-11 0 -30 0.5t-39.5 0.5t-39 0.5t-27.5 0.5v-253
q0 -30 -6 -48.5t-16.5 -29t-23.5 -15t-26 -4.5h294z" />
    <glyph glyph-name="currency" unicode="&#xa4;" horiz-adv-x="607" 
d="M429 139q-26 -20 -57 -30.5t-66 -10.5q-36 0 -68 11.5t-58 31.5l-81 -80l-28 28l80 79q-27 31 -42 69t-15 80q0 37 12 72t33 65l-68 70l28 29l67 -68q28 27 63 43t77 16q40 0 74.5 -15t61.5 -40l64 64l28 -29l-65 -65q23 -30 36 -67t13 -75q0 -43 -16 -82.5t-44 -69.5
l76 -76l-28 -28zM306 130q39 0 72.5 15.5t57.5 41.5t38 60t14 71q0 36 -14 71t-38 62.5t-57.5 44t-72.5 16.5t-72 -16.5t-57 -44t-38 -62.5t-14 -71q0 -37 14 -71t38 -60t57 -41.5t72 -15.5z" />
    <glyph glyph-name="yen" unicode="&#xa5;" horiz-adv-x="697" 
d="M398 171v-155h95q5 0 7.5 -3t2.5 -6q0 -10 -10 -10q-40 1 -73.5 2t-73.5 1q-39 0 -73 -1t-73 -2q-10 0 -10 10q0 3 2.5 6t7.5 3h98v155h-235v19h235v76h-235v19h235v58l-138 293q-10 21 -18.5 33t-16 18t-14 7.5t-13.5 1.5h-48q-11 0 -11 10q0 9 11 9q39 -1 73 -2t73 -1
q31 0 50.5 0.5t33 1t24.5 1t27 0.5q11 0 11 -9q0 -10 -11 -10h-35q-18 0 -31.5 -2.5t-13.5 -16.5q0 -10 9 -26l132 -281l97 220q7 17 12 33.5t5 34.5q0 23 -11 30.5t-38 7.5h-19q-11 0 -11 10q0 9 11 9q19 0 30 -0.5t20 -1t19.5 -1t30.5 -0.5q19 0 31.5 0.5t23 1t22.5 1
t32 0.5q11 0 11 -9q0 -10 -11 -10h-17q-17 0 -31.5 -2t-28 -9.5t-26 -23.5t-24.5 -44l-122 -274v-58h236v-19h-236v-76h236v-19h-236z" />
    <glyph glyph-name="brokenbar" unicode="&#xa6;" horiz-adv-x="234" 
d="M100 -238v361h34v-361h-34zM100 341v371h34v-371h-34z" />
    <glyph glyph-name="section" unicode="&#xa7;" horiz-adv-x="457" 
d="M76 101q0 9 11 9q5 0 6.5 -1.5t1.5 -7.5q0 -29 12.5 -51.5t32.5 -39t44.5 -25t49.5 -8.5q19 0 38.5 5.5t35.5 16.5t25.5 27.5t9.5 38.5q0 30 -20 46t-50 25.5t-65 17.5t-65 22.5t-50 40.5t-20 71q0 23 8 42t21.5 33t31 23.5t36.5 14.5q-20 7 -37.5 16.5t-31 24t-21 34.5
t-7.5 47q0 28 11.5 50t30 37t41.5 22.5t46 7.5q21 0 36.5 -3.5t27.5 -8.5t22 -12.5t20 -14.5q12 -8 14 -8q4 0 4 14v17q0 10 10 10q9 0 9 -10v-28.5t1 -21.5t3 -20t6 -23q2 -4 2 -8q0 -6 -12 -6q-4 0 -5 2.5t-3 6.5q-29 55 -61.5 75t-75.5 20q-34 0 -58.5 -20t-24.5 -53
q0 -25 20.5 -37.5t51 -20.5t66.5 -15.5t66.5 -22.5t51 -41.5t20.5 -72.5q0 -41 -18.5 -72.5t-53.5 -49.5q31 -15 51.5 -41.5t20.5 -71.5q0 -32 -11.5 -58.5t-33 -45.5t-52 -30t-68.5 -11q-25 0 -46 7.5t-37.5 16.5t-27.5 16.5t-16 7.5t-5.5 -5.5t-0.5 -20.5q0 -10 -8 -10
q-11 0 -11 10v121zM226 385q-7 1 -13.5 1h-12.5q-34 0 -58.5 -20.5t-24.5 -52.5q0 -23 17 -35t43 -19.5t57.5 -14t61.5 -17.5q20 11 33.5 29t13.5 44q0 21 -9.5 34.5t-26 22.5t-37.5 15.5t-44 12.5z" />
    <glyph glyph-name="dieresis" unicode="&#xa8;" horiz-adv-x="391" 
d="M153 513q0 -22 -15.5 -37t-37.5 -15t-37.5 15t-15.5 37t15.5 37.5t37.5 15.5t37.5 -15.5t15.5 -37.5zM344 513q0 -22 -15.5 -37t-37.5 -15t-37.5 15t-15.5 37t15.5 37.5t37.5 15.5t37.5 -15.5t15.5 -37.5z" />
    <glyph glyph-name="copyright" unicode="&#xa9;" horiz-adv-x="847" 
d="M425 -18q-77 0 -145.5 29.5t-119.5 80.5t-81 119.5t-30 145.5q0 76 30 144t81 119t119.5 81t145.5 30q76 0 144 -30t119 -81t80.5 -119t29.5 -144q0 -77 -29.5 -145.5t-80.5 -119.5t-119 -80.5t-144 -29.5zM425 8q71 0 133.5 27.5t109.5 75t74.5 111t27.5 135.5
q0 71 -27.5 134t-74.5 110.5t-109.5 75.5t-133.5 28q-72 0 -135 -28t-110 -75.5t-74.5 -110.5t-27.5 -134q0 -72 27.5 -135.5t74.5 -111t110 -75t135 -27.5zM633 225q-31 -57 -76 -91.5t-114 -34.5q-60 0 -108 19.5t-82 54t-52.5 80t-18.5 98.5q0 49 17 95t48.5 80.5
t77.5 55.5t104 21q29 0 55 -7.5t58 -27.5q14 -10 23 -10q10 0 10 9q0 5 -1 10t-1 10q0 7 7 7q8 0 9 -11q2 -13 4.5 -24t6.5 -24t10.5 -30t17.5 -42q2 -4 2 -5q0 -6 -7 -6q-4 0 -5 2t-4 7q-43 67 -89.5 93t-93.5 26q-45 0 -74.5 -19t-46 -50.5t-23 -71.5t-6.5 -83
q0 -48 8.5 -91t28.5 -75t52.5 -50.5t79.5 -18.5q56 0 98.5 29t71.5 80q2 5 7 5q2 0 4.5 -2t2.5 -4q0 -1 -0.5 -1.5t-0.5 -2.5z" />
    <glyph glyph-name="ordfeminine" unicode="&#xaa;" horiz-adv-x="446" 
d="M344 446q0 -23 0.5 -37.5t3 -23t7.5 -12t15 -3.5q17 0 20.5 8t3.5 16q0 2 1 6.5t8 4.5q5 0 6 -4.5t1 -6.5q0 -8 -2 -16t-9 -14t-20 -9.5t-34 -3.5q-30 0 -51 11t-26 39q-26 -29 -55 -41.5t-59 -12.5q-49 0 -80.5 26.5t-31.5 72.5q0 25 10 48t28.5 40.5t45 27.5t60.5 10
q32 0 50.5 -8t29.5 -19v47q0 26 -1 45.5t-8 32.5t-22.5 19.5t-43.5 6.5q-24 0 -40.5 -3.5t-26 -8.5t-13.5 -10.5t-4 -8.5v-2q0 -1 1 -1q2 0 4 1t8 1q17 0 27 -10.5t10 -25.5q0 -17 -10.5 -27t-26.5 -10q-17 0 -29 11.5t-12 34.5q0 13 4.5 26t17.5 24t35 18t57 7
q23 0 49.5 -4t49 -14.5t37.5 -29.5t15 -48v-170zM266 528q-12 16 -30 22.5t-37 6.5q-22 0 -36.5 -7.5t-23 -20t-12 -29t-3.5 -33.5q0 -45 18.5 -69.5t51.5 -24.5q25 0 42.5 13t29.5 33v109zM123 227q-27 0 -37 -9q-4 -5 -6.5 -9t-4.5 -4t-2 3q0 2 5 19l12 40q2 6 4.5 7
t7.5 1h214q28 0 37 10q5 5 7.5 8.5t4.5 3.5t2 -3q0 -1 -5 -19l-12 -39q-2 -7 -4.5 -8t-7.5 -1h-215z" />
    <glyph glyph-name="guillemotleft" unicode="&#xab;" horiz-adv-x="336" 
d="M54 218q-6 7 -6 9t6 8l110 118q6 6 11 6t6 -4q4 -4 4 -7q0 -5 -4 -10l-105 -112l97 -114q5 -7 5 -9q0 -5 -5 -9q-4 -2 -7 -2q-4 0 -9 5zM139 218q-6 7 -6 9t6 8l110 118q6 6 10 6t7 -4q4 -4 4 -7q0 -5 -5 -10l-104 -112l96 -114q5 -7 5 -9q0 -5 -5 -9q-2 -2 -6 -2
q-5 0 -10 5z" />
    <glyph glyph-name="logicalnot" unicode="&#xac;" horiz-adv-x="552" 
d="M475 134h-40v175h-364v43h404v-218z" />
    <glyph glyph-name="uni00AD" unicode="&#xad;" horiz-adv-x="422" 
d="M115 249q-15 0 -23 -2t-14 -8q-5 -4 -7 -8t-4 -4t-2 3q0 2 1.5 6.5t3.5 12.5l12 40q2 6 4.5 7t6.5 1h215q28 0 37 10q5 5 7.5 8.5t4.5 3.5v-1q0 -1 0.5 -1t0.5 -1q0 -4 -4 -19l-13 -40q-2 -6 -4 -7t-7 -1h-215z" />
    <glyph glyph-name="registered" unicode="&#xae;" horiz-adv-x="847" 
d="M425 -18q-77 0 -145.5 29.5t-119.5 80.5t-81 119.5t-30 145.5q0 76 30 144t81 119t119.5 81t145.5 30q76 0 144 -30t119 -81t80.5 -119t29.5 -144q0 -77 -29.5 -145.5t-80.5 -119.5t-119 -80.5t-144 -29.5zM425 8q71 0 133.5 27.5t109.5 75t74.5 111t27.5 135.5
q0 71 -27.5 134t-74.5 110.5t-109.5 75.5t-133.5 28q-72 0 -135 -28t-110 -75.5t-74.5 -110.5t-27.5 -134q0 -72 27.5 -135.5t74.5 -111t110 -75t135 -27.5zM439 154q6 0 8.5 -4.5t2.5 -7.5q0 -2 -2.5 -5t-8.5 -3q-29 0 -52.5 1t-52.5 1t-53 -1t-53 -1q-7 0 -9 3t-2 5
q0 3 2 7.5t9 4.5h69v440h-69q-11 0 -11 10q0 2 2 6t9 4q4 0 15.5 -0.5t27 -1.5t31.5 -1.5t29 -0.5q4 0 13 0.5l18 1t17 1t12 0.5q33 0 69 -4.5t65.5 -17.5t49 -37t19.5 -63q0 -25 -11 -44t-29 -33t-41.5 -23t-48.5 -13q47 -9 72.5 -26.5t37 -39t13.5 -44t2 -40.5
q0 -15 1.5 -29.5t6 -25.5t13.5 -17.5t24 -6.5q17 0 28 6t13 6q5 0 5 -7t-5 -12l-14 -7t-34 -6q-29 0 -50.5 6t-36 20t-21.5 38.5t-7 60.5q0 24 -3 45t-16 37t-39 25t-71 9h-10v-216h66zM373 389q26 0 52 2t46.5 11.5t33.5 28.5t13 53q0 40 -16.5 62t-39.5 32.5t-48 13
t-41 2.5v-205z" />
    <glyph glyph-name="macron" unicode="&#xaf;" horiz-adv-x="332" 
d="M19 480v28h294v-28h-294z" />
    <glyph glyph-name="degree" unicode="&#xb0;" horiz-adv-x="309" 
d="M46 603q0 23 8.5 43t23 34.5t34 23t42.5 8.5t43 -8.5t34.5 -23t23 -34.5t8.5 -43t-8.5 -42.5t-23 -34t-34.5 -23t-43 -8.5t-42.5 8.5t-34 23t-23 34t-8.5 42.5zM77 603q0 -31 23 -54t54 -23q16 0 30.5 6.5t25 17t17 24.5t6.5 29q0 32 -23.5 55.5t-55.5 23.5
q-15 0 -29 -6.5t-24.5 -17t-17 -25t-6.5 -30.5z" />
    <glyph glyph-name="plusminus" unicode="&#xb1;" horiz-adv-x="492" 
d="M221 221v142h-141v49h141v142h50v-142h141v-49h-141v-142h-50zM80 106v50h332v-50h-332z" />
    <glyph glyph-name="twosuperior" unicode="&#xb2;" horiz-adv-x="383" 
d="M78 351q-9 0 -12 1q-3 3 -3 17q0 33 13.5 55.5t34.5 39.5t44.5 31.5t44.5 30.5t34.5 35.5t13.5 47.5q0 45 -19 64t-59 19q-11 0 -26 -3.5t-28 -12t-22 -23.5t-9 -39q0 -26 10 -38.5t15 -19.5q4 -4 4 -9q0 -6 -8 -6q-4 0 -10.5 6t-12.5 16t-10.5 23t-4.5 27q0 15 5.5 32
t18 32t34 25t54.5 10q62 0 98 -28t36 -78q0 -27 -15.5 -48t-39.5 -37t-52.5 -29.5t-53.5 -26t-43.5 -26.5t-22.5 -31h182q21 0 26 5t5 16v47q0 2 2.5 4t4.5 2q8 0 8 -6q0 -2 -0.5 -16t-0.5 -31t0.5 -38.5t0.5 -26.5q0 -10 -2 -12q-3 -1 -13 -1h-222z" />
    <glyph glyph-name="threesuperior" unicode="&#xb3;" horiz-adv-x="362" 
d="M130 545q-3 0 -5 0.5t-2 5.5q0 6 7 6h20q9 0 23.5 2t28 9.5t23.5 22t10 39.5q0 71 -79 71q-32 0 -53 -11.5t-21 -24.5q0 -10 10 -10q5 0 9 2t13 2q14 0 20 -7.5t6 -17.5q0 -17 -11 -24.5t-25 -7.5q-17 0 -29 10t-12 31t10.5 34t27 21t36 11t37.5 3q55 0 90 -21.5
t35 -59.5q0 -19 -10 -32.5t-26 -23t-35.5 -15t-37.5 -8.5q22 -3 43 -10.5t38 -20t27.5 -29.5t10.5 -38q0 -30 -12.5 -51.5t-33 -35t-46 -19.5t-50.5 -6q-22 0 -42 4.5t-35.5 14.5t-25 25.5t-9.5 38.5q0 30 16 40.5t33 10.5q25 0 33.5 -13t8.5 -27t-7 -23.5t-24 -9.5
q-18 0 -23 8t-11 8q-8 0 -8 -12q0 -17 24 -34.5t62 -17.5q47 0 66 27t19 72q0 30 -11 48t-26.5 27.5t-31.5 12.5t-26 3h-19z" />
    <glyph glyph-name="acute" unicode="&#xb4;" horiz-adv-x="228" 
d="M83 461h-36l57 127h81z" />
    <glyph glyph-name="paragraph" unicode="&#xb6;" horiz-adv-x="572" 
d="M429 656h-34v-656h-43v284q-32 -19 -62 -27.5t-59 -8.5q-42 0 -78 17.5t-62.5 51t-41.5 81.5t-15 109q0 46 10 86.5t33 71.5t62 49t96 18q25 0 55.5 -3t60 -7t54.5 -7t39 -3q39 0 54 1t19 1q10 0 10 -9q0 -10 -11 -10h-69v-779q0 -29 -2.5 -49.5t-6.5 -34t-9 -22.5
t-11 -16q-27 -32 -68 -32q-15 0 -31 5.5t-29 15.5t-21.5 24.5t-8.5 32.5q0 26 15.5 45.5t43.5 19.5q22 0 35.5 -14t13.5 -34q0 -21 -16 -38t-38 -17q-5 0 -11.5 1t-11.5 4q0 -5 16.5 -16.5t41.5 -11.5q15 0 31 6t27 20q11 15 16.5 39t5.5 69v743z" />
    <glyph glyph-name="periodcentered" unicode="&#xb7;" horiz-adv-x="239" 
d="M120 193q-23 0 -39.5 16t-16.5 39t16.5 39t39.5 16t39 -16t16 -39t-16 -39t-39 -16z" />
    <glyph glyph-name="cedilla" unicode="&#xb8;" horiz-adv-x="276" 
d="M81 -67q25 13 52 13q43 0 68 -20.5t25 -49.5q0 -11 -5 -26t-16.5 -28.5t-31 -22.5t-49.5 -9q-6 0 -20 1.5t-28 4.5t-24.5 7t-10.5 8t3 4q2 0 17 -3.5t27 -3.5q15 0 29.5 4t26 12.5t18.5 22t7 33.5q0 25 -16 38t-36 13q-15 0 -29.5 -7.5t-23.5 -22.5q-7 -12 -11 -12
q-5 0 -6 2t-1 4l1.5 3l7 14t17 33t32.5 61l12 -4z" />
    <glyph glyph-name="onesuperior" unicode="&#xb9;" horiz-adv-x="325" 
d="M278 366q7 0 7 -7q0 -8 -7 -8q-29 1 -54 1.5t-54 0.5q-36 0 -65 -1t-40 -1q-7 0 -7 8q0 7 7 7h74v232l-67 -58l-3.5 -3.5t-3.5 -1.5q-1 0 -3.5 2t-2.5 4q0 4 5 7q22 20 42 42.5t36.5 44t28 40t17.5 30.5q3 6 6 7.5t5 1.5q8 0 8 -9v-339h71z" />
    <glyph glyph-name="ordmasculine" unicode="&#xba;" horiz-adv-x="405" 
d="M206 346q-38 0 -69.5 14.5t-55 39.5t-36.5 57.5t-13 67.5t13 68.5t36.5 60t55 42.5t69.5 16q37 0 69 -16t55.5 -42.5t36.5 -60t13 -68.5t-13 -67.5t-36.5 -57.5t-55.5 -39.5t-69 -14.5zM206 361q26 0 43.5 13.5t28 36.5t15 52t4.5 61t-4.5 62.5t-15 54.5t-28 39t-43.5 15
t-43.5 -14.5t-28.5 -38t-15.5 -54t-4.5 -62.5t4.5 -61.5t15.5 -52.5t28.5 -37t43.5 -14zM110 227q-15 0 -23 -2t-14 -7q-5 -5 -7 -9t-4 -4t-2 3q0 2 1 6.5t3 12.5l13 40q2 6 4 7t7 1h215q15 0 23 2t14 8q5 5 7 8.5t4 3.5t2 -3q0 -1 -5 -19l-12 -39q-2 -7 -4.5 -8t-6.5 -1
h-215z" />
    <glyph glyph-name="guillemotright" unicode="&#xbb;" horiz-adv-x="335" 
d="M180 97q-5 -5 -10 -5q-3 0 -7 2q-4 4 -4 9q0 1 4 9l97 114l-104 112q-5 5 -5 10q0 3 4 7q3 4 6 4q5 0 11 -6l110 -118q6 -6 6 -8t-6 -9zM95 97q-5 -5 -10 -5q-2 0 -6 2q-5 4 -5 9q0 2 5 9l97 114l-105 112q-5 5 -5 10q0 3 4 7q3 4 7 4q5 0 10 -6l111 -118q5 -7 5 -8
t-5 -9z" />
    <glyph glyph-name="onequarter" unicode="&#xbc;" horiz-adv-x="662" 
d="M99 0l446 596h32l-447 -596h-31zM267 281q6 0 6 -6q0 -9 -6 -9q-29 2 -54.5 2.5t-54.5 0.5q-35 0 -64 -1.5t-40 -1.5q-8 0 -8 9q0 6 8 6h73v232l-66 -58l-3.5 -3.5t-4.5 -1.5q-1 0 -3.5 2t-2.5 4q0 5 5 8q22 20 42 42.5t36.5 43.5t28 39.5t17.5 30.5q3 7 6.5 8.5t5.5 1.5
q7 0 7 -10v-339h72zM574 13q6 0 6 -7q0 -2 -1.5 -5t-4.5 -3q-22 1 -41.5 1.5t-41.5 0.5q-27 0 -53.5 -1t-34.5 -1q-2 0 -3.5 3t-1.5 5q0 7 5 7h57v69h-159q-5 0 -10 1t-5 7q0 1 2 5l218 258q2 3 3.5 5t4.5 2q5 0 5 -7v-222h37q21 0 26.5 6.5t5.5 17.5v46q0 3 3 5t6 2
q6 0 6 -7q0 -2 -0.5 -15.5t-0.5 -30.5q0 -19 0.5 -36.5t0.5 -23.5q0 -10 -3 -11q-3 -2 -13 -2h-68v-69h55zM460 275l-122 -144h122v144z" />
    <glyph glyph-name="onehalf" unicode="&#xbd;" horiz-adv-x="714" 
d="M99 0l446 596h32l-447 -596h-31zM267 281q6 0 6 -6q0 -9 -6 -9q-29 2 -54.5 2.5t-54.5 0.5q-35 0 -64 -1.5t-40 -1.5q-8 0 -8 9q0 6 8 6h73v232l-66 -58l-3.5 -3.5t-4.5 -1.5q-1 0 -3.5 2t-2.5 4q0 5 5 8q22 20 42 42.5t36.5 43.5t28 39.5t17.5 30.5q3 7 6.5 8.5t5.5 1.5
q7 0 7 -10v-339h72zM417 0q-10 0 -13 2q-1 2 -1.5 5t-0.5 11q0 32 13.5 55t34.5 40t44.5 31.5t44.5 30.5t34.5 35.5t13.5 47.5q0 45 -19.5 64t-58.5 19q-11 0 -26 -3t-28.5 -12t-22.5 -24t-9 -39q0 -26 10 -38t16 -20q4 -4 4 -8q0 -6 -9 -6q-4 0 -10.5 6t-12.5 15.5
t-10.5 22.5t-4.5 27q0 15 5.5 32t18.5 32t34.5 25t53.5 10q63 0 98.5 -28t35.5 -77q0 -28 -15.5 -48.5t-39.5 -37t-52.5 -30t-53.5 -26t-43.5 -26.5t-22.5 -31h183q20 0 25.5 5.5t5.5 16.5v46q0 2 2.5 4t4.5 2q7 0 7 -6q0 -2 -0.5 -15.5t-0.5 -30.5v-19t0.5 -20t0.5 -17v-10
q0 -9 -2 -11t-13 -2h-221z" />
    <glyph glyph-name="threequarters" unicode="&#xbe;" horiz-adv-x="701" 
d="M137 0l446 596h33l-448 -596h-31zM613 13q6 0 6 -7q0 -2 -1.5 -5t-4.5 -3q-23 1 -42 1.5t-42 0.5q-27 0 -53 -1t-34 -1q-3 0 -4.5 3t-1.5 5q0 7 6 7h57v69h-160q-4 0 -9.5 1t-5.5 7q0 1 2 5l218 258q2 3 3.5 5t4.5 2q6 0 6 -7v-222h37q20 0 25.5 6.5t5.5 17.5v46
q0 7 10 7q5 0 5 -7q0 -2 -0.5 -15.5t-0.5 -30.5q0 -19 0.5 -36.5t0.5 -23.5q0 -9 -2 -11q-3 -2 -14 -2h-67v-69h55zM499 275l-123 -144h123v144zM124 465q-7 0 -7 5q0 6 7 6h20q9 0 23.5 2t28 9.5t23.5 22t10 39.5q0 71 -80 71q-32 0 -53 -11.5t-21 -24.5q0 -10 11 -10
q5 0 9 2.5t12 2.5q14 0 20.5 -8t6.5 -18q0 -17 -11 -24t-25 -7q-18 0 -30 9.5t-12 30.5t10.5 34.5t27 21.5t36 11t37.5 3q55 0 90.5 -22t35.5 -60q0 -19 -10 -32.5t-26 -23t-35.5 -15t-38.5 -8.5q22 -2 43 -10t38 -20.5t27.5 -29.5t10.5 -38q0 -30 -12.5 -51t-32.5 -34.5
t-45.5 -20t-50.5 -6.5q-22 0 -42 4.5t-35.5 14.5t-25 25.5t-9.5 38.5q0 31 15.5 41t33.5 10q24 0 33 -13t9 -27t-7.5 -23.5t-24.5 -9.5q-9 0 -14 2.5t-8.5 5.5t-6 5.5t-5.5 2.5q-7 0 -7 -12q0 -17 24 -34t62 -17q47 0 66 26.5t19 71.5q0 30 -11.5 48.5t-27 28t-31.5 12.5
t-25 3h-19z" />
    <glyph glyph-name="questiondown" unicode="&#xbf;" horiz-adv-x="446" 
d="M259 314q-6 5 -6 9q0 3 2.5 6t6.5 3t12 -5q10 -8 21 -18t20 -24t14.5 -32.5t5.5 -42.5q0 -43 -17 -74.5t-42 -56.5t-54.5 -45.5t-54.5 -42.5t-42 -48.5t-17 -61.5q0 -50 34 -75t92 -25q35 0 58.5 8t38 18.5t21 21t6.5 15.5q0 2 -0.5 2.5t-0.5 1.5v1q-2 0 -4.5 -1t-7.5 -1
q-22 0 -34 12.5t-12 32.5q0 21 13 32.5t32 11.5q23 0 36.5 -15t13.5 -38q0 -16 -8 -37t-27.5 -39.5t-52 -31.5t-80.5 -13q-38 0 -72.5 9.5t-61 29t-42.5 49.5t-16 71q0 46 19.5 80.5t48 61.5t62.5 49.5t62.5 44t48 45t19.5 52.5q0 21 -10.5 34t-24.5 26zM335 460
q0 -23 -16 -39t-39 -16t-39.5 16t-16.5 39t16.5 39t39.5 16t39 -16t16 -39z" />
    <glyph glyph-name="Agrave" unicode="&#xc0;" horiz-adv-x="678" 
d="M689 16q5 0 7.5 -3t2.5 -6q0 -10 -10 -10q-22 0 -39 0.5l-34 1t-35.5 1t-43.5 0.5q-63 0 -103.5 -1.5t-47.5 -1.5q-10 0 -12 3t-2 6q0 10 10 10h61q22 0 32 3t10 17q0 6 -1.5 12t-4.5 14l-73 200h-221l-40 -120q-8 -27 -13.5 -47.5t-5.5 -36.5q0 -42 50 -42h37
q5 0 7.5 -3t2.5 -6q0 -10 -10 -10q-19 0 -33 0.5t-26.5 1t-25.5 1t-31 0.5q-45 0 -69 -1.5t-44 -1.5q-11 0 -11 10q0 3 3 6t8 3h17q45 0 70.5 18t39.5 61l204 604q5 15 9.5 24.5t10.5 9.5q4 0 6.5 -3t7.5 -15l234 -639q7 -20 12.5 -31.5t11 -17.5t11 -8.5t11.5 -2.5h60z
M291 578l-99 -297h207zM332 760l-103 127h81l57 -127h-35z" />
    <glyph glyph-name="Aacute" unicode="&#xc1;" horiz-adv-x="678" 
d="M689 16q5 0 7.5 -3t2.5 -6q0 -10 -10 -10q-22 0 -39 0.5l-34 1t-35.5 1t-43.5 0.5q-63 0 -103.5 -1.5t-47.5 -1.5q-10 0 -12 3t-2 6q0 10 10 10h61q22 0 32 3t10 17q0 6 -1.5 12t-4.5 14l-73 200h-221l-40 -120q-8 -27 -13.5 -47.5t-5.5 -36.5q0 -42 50 -42h37
q5 0 7.5 -3t2.5 -6q0 -10 -10 -10q-19 0 -33 0.5t-26.5 1t-25.5 1t-31 0.5q-45 0 -69 -1.5t-44 -1.5q-11 0 -11 10q0 3 3 6t8 3h17q45 0 70.5 18t39.5 61l204 604q5 15 9.5 24.5t10.5 9.5q4 0 6.5 -3t7.5 -15l234 -639q7 -20 12.5 -31.5t11 -17.5t11 -8.5t11.5 -2.5h60z
M291 578l-99 -297h207zM337 760h-35l57 127h81z" />
    <glyph glyph-name="Acircumflex" unicode="&#xc2;" horiz-adv-x="678" 
d="M689 16q5 0 7.5 -3t2.5 -6q0 -10 -10 -10q-22 0 -39 0.5l-34 1t-35.5 1t-43.5 0.5q-63 0 -103.5 -1.5t-47.5 -1.5q-10 0 -12 3t-2 6q0 10 10 10h61q22 0 32 3t10 17q0 6 -1.5 12t-4.5 14l-73 200h-221l-40 -120q-8 -27 -13.5 -47.5t-5.5 -36.5q0 -42 50 -42h37
q5 0 7.5 -3t2.5 -6q0 -10 -10 -10q-19 0 -33 0.5t-26.5 1t-25.5 1t-31 0.5q-45 0 -69 -1.5t-44 -1.5q-11 0 -11 10q0 3 3 6t8 3h17q45 0 70.5 18t39.5 61l204 604q5 15 9.5 24.5t10.5 9.5q4 0 6.5 -3t7.5 -15l234 -639q7 -20 12.5 -31.5t11 -17.5t11 -8.5t11.5 -2.5h60z
M291 578l-99 -297h207zM482 773l-15 -13l-131 87l-131 -87l-14 13l132 119h27z" />
    <glyph glyph-name="Atilde" unicode="&#xc3;" horiz-adv-x="678" 
d="M689 16q5 0 7.5 -3t2.5 -6q0 -10 -10 -10q-22 0 -39 0.5l-34 1t-35.5 1t-43.5 0.5q-63 0 -103.5 -1.5t-47.5 -1.5q-10 0 -12 3t-2 6q0 10 10 10h61q22 0 32 3t10 17q0 6 -1.5 12t-4.5 14l-73 200h-221l-40 -120q-8 -27 -13.5 -47.5t-5.5 -36.5q0 -42 50 -42h37
q5 0 7.5 -3t2.5 -6q0 -10 -10 -10q-19 0 -33 0.5t-26.5 1t-25.5 1t-31 0.5q-45 0 -69 -1.5t-44 -1.5q-11 0 -11 10q0 3 3 6t8 3h17q45 0 70.5 18t39.5 61l204 604q5 15 9.5 24.5t10.5 9.5q4 0 6.5 -3t7.5 -15l234 -639q7 -20 12.5 -31.5t11 -17.5t11 -8.5t11.5 -2.5h60z
M291 578l-99 -297h207zM497 825q-14 -39 -32.5 -52t-37.5 -13q-20 0 -44 6t-48.5 13.5t-46.5 13.5t-37 6q-12 0 -23 -5t-20 -11.5t-16 -13t-10 -9.5q-2 -2 -5 -4.5t-5 -2.5t-4 2t-2 4q0 5 8 11q24 23 38 37.5t24.5 22t20 10t23.5 2.5q13 0 34 -5.5t43.5 -12.5t44.5 -12.5
t37 -5.5q14 0 26 6t23 22q4 6 7 6q5 0 5 -5q0 -3 -3 -10z" />
    <glyph glyph-name="Adieresis" unicode="&#xc4;" horiz-adv-x="678" 
d="M689 16q5 0 7.5 -3t2.5 -6q0 -10 -10 -10q-22 0 -39 0.5l-34 1t-35.5 1t-43.5 0.5q-63 0 -103.5 -1.5t-47.5 -1.5q-10 0 -12 3t-2 6q0 10 10 10h61q22 0 32 3t10 17q0 6 -1.5 12t-4.5 14l-73 200h-221l-40 -120q-8 -27 -13.5 -47.5t-5.5 -36.5q0 -42 50 -42h37
q5 0 7.5 -3t2.5 -6q0 -10 -10 -10q-19 0 -33 0.5t-26.5 1t-25.5 1t-31 0.5q-45 0 -69 -1.5t-44 -1.5q-11 0 -11 10q0 3 3 6t8 3h17q45 0 70.5 18t39.5 61l204 604q5 15 9.5 24.5t10.5 9.5q4 0 6.5 -3t7.5 -15l234 -639q7 -20 12.5 -31.5t11 -17.5t11 -8.5t11.5 -2.5h60z
M291 578l-99 -297h207zM292 812q0 -21 -15.5 -36.5t-37.5 -15.5t-37.5 15.5t-15.5 36.5q0 23 15.5 38t37.5 15t37.5 -15t15.5 -38zM483 812q0 -21 -15.5 -36.5t-38.5 -15.5q-21 0 -36.5 15.5t-15.5 36.5q0 23 15.5 38t36.5 15q23 0 38.5 -15t15.5 -38z" />
    <glyph glyph-name="Aring" unicode="&#xc5;" horiz-adv-x="678" 
d="M689 16q5 0 7.5 -3t2.5 -6q0 -10 -10 -10q-22 0 -39 0.5l-34 1t-35.5 1t-43.5 0.5q-63 0 -103.5 -1.5t-47.5 -1.5q-10 0 -12 3t-2 6q0 10 10 10h61q22 0 32 3t10 17q0 6 -1.5 12t-4.5 14l-73 200h-221l-40 -120q-8 -27 -13.5 -47.5t-5.5 -36.5q0 -42 50 -42h37
q5 0 7.5 -3t2.5 -6q0 -10 -10 -10q-19 0 -33 0.5t-26.5 1t-25.5 1t-31 0.5q-45 0 -69 -1.5t-44 -1.5q-11 0 -11 10q0 3 3 6t8 3h17q45 0 70.5 18t39.5 61l204 604q5 15 9.5 24.5t10.5 9.5q4 0 6.5 -3t7.5 -15l234 -639q7 -20 12.5 -31.5t11 -17.5t11 -8.5t11.5 -2.5h60z
M291 578l-99 -297h207zM413 826q0 -17 -7 -29.5t-18 -20.5t-25 -12t-28 -4t-27.5 4t-24.5 12t-18 20.5t-7 29.5t7 29t18 20t24.5 12t27.5 4t28 -4t25 -12t18 -20t7 -29zM335 775q20 0 30 14.5t10 36.5q0 21 -10 36t-30 15q-19 0 -29 -15t-10 -36q0 -22 10 -36.5t29 -14.5z
" />
    <glyph glyph-name="AE" unicode="&#xc6;" horiz-adv-x="977" 
d="M717 16q50 0 83.5 12.5t54 34.5t30.5 52.5t13 66.5q0 17 10 17q7 0 8 -4.5t1 -12.5q-2 -35 -6 -71.5t-4 -81.5v-16t1 -16q-11 1 -22 1.5t-27.5 0.5h-42t-66.5 0.5t-100 0.5h-142q-39 0 -73 -1t-73 -2q-11 0 -11 10q0 3 3 6t8 3h98v246h-234l-72 -120q-15 -26 -25 -47.5
t-10 -38.5q0 -19 14 -29.5t46 -10.5h28q5 0 7.5 -3t2.5 -6q0 -10 -10 -10q-20 0 -33.5 0.5t-26.5 1t-27 1t-33 0.5q-20 0 -32 -0.5t-22.5 -1t-23 -1t-31.5 -0.5q-11 0 -11 10q0 3 3 6t8 3h17q38 0 62.5 20t47.5 59l354 601h-97q-11 0 -11 10q0 9 11 9q39 -1 73 -2t73 -1
h141.5h101.5t69.5 0.5t44.5 0.5t26.5 0.5t16.5 1.5q0 -14 0.5 -39.5t2.5 -41.5q2 -21 3 -34t1.5 -23.5t0.5 -20.5t1 -23q0 -8 -1 -12t-8 -4q-10 0 -10 16q0 33 -6.5 63t-27 52t-57.5 35t-99 13h-149v-290h45q30 0 52.5 3.5t37.5 15.5t22.5 34t8.5 60q0 16 10 16q7 0 8 -4.5
t1 -11.5q-2 -37 -2.5 -53.5t-1.5 -25.5t-1 -17v-27v-29.5t1 -21t1.5 -30.5t2.5 -56q0 -7 -1 -11.5t-8 -4.5q-10 0 -10 16q-1 42 -8.5 67t-22.5 38.5t-37.5 18t-52.5 4.5h-45v-371h158zM460 658l-223 -377h223v377z" />
    <glyph glyph-name="Ccedilla" unicode="&#xc7;" horiz-adv-x="748" 
d="M378 -68q25 12 52 12q43 0 68.5 -20.5t25.5 -48.5q0 -12 -5 -27t-16.5 -28.5t-31 -22.5t-49.5 -9q-6 0 -20 1.5t-28.5 4.5t-25 7t-10.5 8t3 4t18 -3.5t27 -3.5q15 0 29.5 4t26 12.5t18.5 22t7 33.5q0 25 -16 38t-37 13q-15 0 -29.5 -7.5t-23.5 -22.5q-7 -12 -10 -12
q-5 0 -6.5 2t-1.5 4q0 1 1.5 3.5t6.5 12t14.5 28.5t26.5 52q-76 5 -139 35.5t-108 80.5t-69.5 115.5t-24.5 139.5q0 73 24.5 140.5t70 119t111 82.5t146.5 31q43 0 81 -11t84 -40q12 -8 20 -12t15 -4q6 0 10.5 3.5t4.5 11.5q0 6 -1.5 14t-1.5 15q0 10 10 10t14 -16
q4 -19 7.5 -33t9.5 -30.5t15.5 -40t25.5 -60.5q2 -4 2 -7q0 -9 -9 -9q-5 0 -7.5 3.5t-6.5 10.5q-32 49 -65.5 82.5t-67.5 54.5t-68.5 30t-68.5 9q-68 0 -115.5 -30.5t-77.5 -79t-43.5 -110.5t-13.5 -125q0 -72 17 -137.5t51.5 -115.5t86.5 -80t122 -30q84 0 148.5 42.5
t104.5 118.5q4 8 8 8q1 0 5 -2q6 -3 6 -7q0 -3 -2 -5q-45 -85 -111.5 -129.5t-168.5 -44.5q-5 0 -9 0.5t-7 0.5z" />
    <glyph glyph-name="Egrave" unicode="&#xc8;" horiz-adv-x="659" 
d="M399 16q55 0 89 14t52.5 37t26.5 53t13 62q1 7 2 12t8 5t8 -4.5t1 -11.5q-1 -27 -5.5 -66t-4.5 -88v-16t1 -16q-3 0 -20 0.5t-61 1t-120.5 1t-198.5 0.5q-21 0 -44.5 -0.5t-43.5 -1t-36 -1t-22 -0.5q-11 0 -11 10q0 3 3 6t8 3h98v680h-98q-11 0 -11 10q0 9 11 9
q39 -1 72 -2t74 -1h141.5h101.5t69.5 0.5t44.5 0.5t26.5 0.5t16.5 1.5q0 -14 0.5 -39.5t2.5 -41.5q2 -23 3 -39.5t1.5 -28t1 -19.5t0.5 -14t-1 -11t-8 -5t-8 4t-2 12q-2 31 -7 60.5t-23.5 52t-56 36.5t-103.5 14h-149v-290h45q46 0 70 10t35 26t13 36.5t2 40.5q0 16 11 16
q7 0 8 -4.5t1 -10.5q0 -33 -2.5 -59t-2.5 -65t2.5 -73.5t2.5 -63.5q0 -7 -1 -11.5t-8 -4.5q-8 0 -9 6t-1 10q-3 33 -6.5 57.5t-15.5 40t-35 23t-64 7.5h-45v-371h158zM363 760l-103 127h81l57 -127h-35z" />
    <glyph glyph-name="Eacute" unicode="&#xc9;" horiz-adv-x="659" 
d="M399 16q55 0 89 14t52.5 37t26.5 53t13 62q1 7 2 12t8 5t8 -4.5t1 -11.5q-1 -27 -5.5 -66t-4.5 -88v-16t1 -16q-3 0 -20 0.5t-61 1t-120.5 1t-198.5 0.5q-21 0 -44.5 -0.5t-43.5 -1t-36 -1t-22 -0.5q-11 0 -11 10q0 3 3 6t8 3h98v680h-98q-11 0 -11 10q0 9 11 9
q39 -1 72 -2t74 -1h141.5h101.5t69.5 0.5t44.5 0.5t26.5 0.5t16.5 1.5q0 -14 0.5 -39.5t2.5 -41.5q2 -23 3 -39.5t1.5 -28t1 -19.5t0.5 -14t-1 -11t-8 -5t-8 4t-2 12q-2 31 -7 60.5t-23.5 52t-56 36.5t-103.5 14h-149v-290h45q46 0 70 10t35 26t13 36.5t2 40.5q0 16 11 16
q7 0 8 -4.5t1 -10.5q0 -33 -2.5 -59t-2.5 -65t2.5 -73.5t2.5 -63.5q0 -7 -1 -11.5t-8 -4.5q-8 0 -9 6t-1 10q-3 33 -6.5 57.5t-15.5 40t-35 23t-64 7.5h-45v-371h158zM357 760h-35l57 127h81z" />
    <glyph glyph-name="Ecircumflex" unicode="&#xca;" horiz-adv-x="659" 
d="M399 16q55 0 89 14t52.5 37t26.5 53t13 62q1 7 2 12t8 5t8 -4.5t1 -11.5q-1 -27 -5.5 -66t-4.5 -88v-16t1 -16q-3 0 -20 0.5t-61 1t-120.5 1t-198.5 0.5q-21 0 -44.5 -0.5t-43.5 -1t-36 -1t-22 -0.5q-11 0 -11 10q0 3 3 6t8 3h98v680h-98q-11 0 -11 10q0 9 11 9
q39 -1 72 -2t74 -1h141.5h101.5t69.5 0.5t44.5 0.5t26.5 0.5t16.5 1.5q0 -14 0.5 -39.5t2.5 -41.5q2 -23 3 -39.5t1.5 -28t1 -19.5t0.5 -14t-1 -11t-8 -5t-8 4t-2 12q-2 31 -7 60.5t-23.5 52t-56 36.5t-103.5 14h-149v-290h45q46 0 70 10t35 26t13 36.5t2 40.5q0 16 11 16
q7 0 8 -4.5t1 -10.5q0 -33 -2.5 -59t-2.5 -65t2.5 -73.5t2.5 -63.5q0 -7 -1 -11.5t-8 -4.5q-8 0 -9 6t-1 10q-3 33 -6.5 57.5t-15.5 40t-35 23t-64 7.5h-45v-371h158zM496 773l-14 -13l-131 87l-131 -87l-15 13l132 119h27z" />
    <glyph glyph-name="Edieresis" unicode="&#xcb;" horiz-adv-x="659" 
d="M399 16q55 0 89 14t52.5 37t26.5 53t13 62q1 7 2 12t8 5t8 -4.5t1 -11.5q-1 -27 -5.5 -66t-4.5 -88v-16t1 -16q-3 0 -20 0.5t-61 1t-120.5 1t-198.5 0.5q-21 0 -44.5 -0.5t-43.5 -1t-36 -1t-22 -0.5q-11 0 -11 10q0 3 3 6t8 3h98v680h-98q-11 0 -11 10q0 9 11 9
q39 -1 72 -2t74 -1h141.5h101.5t69.5 0.5t44.5 0.5t26.5 0.5t16.5 1.5q0 -14 0.5 -39.5t2.5 -41.5q2 -23 3 -39.5t1.5 -28t1 -19.5t0.5 -14t-1 -11t-8 -5t-8 4t-2 12q-2 31 -7 60.5t-23.5 52t-56 36.5t-103.5 14h-149v-290h45q46 0 70 10t35 26t13 36.5t2 40.5q0 16 11 16
q7 0 8 -4.5t1 -10.5q0 -33 -2.5 -59t-2.5 -65t2.5 -73.5t2.5 -63.5q0 -7 -1 -11.5t-8 -4.5q-8 0 -9 6t-1 10q-3 33 -6.5 57.5t-15.5 40t-35 23t-64 7.5h-45v-371h158zM304 812q0 -21 -15.5 -36.5t-37.5 -15.5t-37 15.5t-15 36.5q0 23 15 38t37 15t37.5 -15t15.5 -38z
M495 812q0 -21 -15.5 -36.5t-37.5 -15.5t-37 15.5t-15 36.5q0 23 15 38t37 15t37.5 -15t15.5 -38z" />
    <glyph glyph-name="Igrave" unicode="&#xcc;" horiz-adv-x="383" 
d="M337 16q5 0 7.5 -3t2.5 -6q0 -10 -10 -10q-38 1 -71.5 2t-71.5 1q-23 0 -47 -0.5t-44.5 -1t-36 -1t-22.5 -0.5q-10 0 -10 10q0 3 2.5 6t7.5 3h98v680h-98q-10 0 -10 10q0 9 10 9q38 -1 72 -2t72 -1q23 0 47 0.5t44 1t35.5 1t22.5 0.5q10 0 10 -9q0 -10 -10 -10h-95v-680
h95zM188 760l-103 127h81l57 -127h-35z" />
    <glyph glyph-name="Iacute" unicode="&#xcd;" horiz-adv-x="383" 
d="M337 16q5 0 7.5 -3t2.5 -6q0 -10 -10 -10q-38 1 -71.5 2t-71.5 1q-23 0 -47 -0.5t-44.5 -1t-36 -1t-22.5 -0.5q-10 0 -10 10q0 3 2.5 6t7.5 3h98v680h-98q-10 0 -10 10q0 9 10 9q38 -1 72 -2t72 -1q23 0 47 0.5t44 1t35.5 1t22.5 0.5q10 0 10 -9q0 -10 -10 -10h-95v-680
h95zM196 760h-35l57 127h81z" />
    <glyph glyph-name="Icircumflex" unicode="&#xce;" horiz-adv-x="383" 
d="M337 16q5 0 7.5 -3t2.5 -6q0 -10 -10 -10q-38 1 -71.5 2t-71.5 1q-23 0 -47 -0.5t-44.5 -1t-36 -1t-22.5 -0.5q-10 0 -10 10q0 3 2.5 6t7.5 3h98v680h-98q-10 0 -10 10q0 9 10 9q38 -1 72 -2t72 -1q23 0 47 0.5t44 1t35.5 1t22.5 0.5q10 0 10 -9q0 -10 -10 -10h-95v-680
h95zM337 773l-14 -13l-131 87l-131 -87l-15 13l132 119h27z" />
    <glyph glyph-name="Idieresis" unicode="&#xcf;" horiz-adv-x="383" 
d="M337 16q5 0 7.5 -3t2.5 -6q0 -10 -10 -10q-38 1 -71.5 2t-71.5 1q-23 0 -47 -0.5t-44.5 -1t-36 -1t-22.5 -0.5q-10 0 -10 10q0 3 2.5 6t7.5 3h98v680h-98q-10 0 -10 10q0 9 10 9q38 -1 72 -2t72 -1q23 0 47 0.5t44 1t35.5 1t22.5 0.5q10 0 10 -9q0 -10 -10 -10h-95v-680
h95zM149 812q0 -21 -15.5 -36.5t-37.5 -15.5t-37.5 15.5t-15.5 36.5q0 23 15.5 38t37.5 15t37.5 -15t15.5 -38zM340 812q0 -21 -15.5 -36.5t-37.5 -15.5t-37.5 15.5t-15.5 36.5q0 23 15.5 38t37.5 15t37.5 -15t15.5 -38z" />
    <glyph glyph-name="Eth" unicode="&#xd0;" horiz-adv-x="807" 
d="M142 333h-50q-15 0 -23 -1.5t-14 -7.5q-4 -5 -6.5 -8.5t-4.5 -3.5t-2 2t5 19l12 40q2 7 4.5 8t7.5 1h71v314h-98q-11 0 -11 10q0 9 13 9q3 0 25.5 -0.5t51 -1t55.5 -1t39 -0.5t31.5 0.5t41.5 1t42.5 1t33.5 0.5q21 0 58 -3t80 -14t87.5 -33.5t80.5 -62.5t59 -99t23 -144
q0 -89 -25.5 -150.5t-65.5 -101.5t-89.5 -62t-97 -32t-87.5 -12t-61 -2q-46 0 -75.5 0.5t-58.5 0.5q-25 0 -48.5 -0.5t-44 -1t-35.5 -1t-22 -0.5q-11 0 -11 10q0 3 3 6t8 3h98v317zM242 333v-314q37 0 81.5 1.5t89.5 11t87.5 30t75.5 58t53 95.5t20 143q0 84 -19.5 142
t-52.5 95.5t-75.5 58t-87.5 30t-90 11t-82 1.5v-314h129q15 0 23 2t14 7q4 5 6.5 9t4.5 4t2 -3q0 -2 -5 -19l-12 -40q-2 -7 -4.5 -8t-6.5 -1h-151z" />
    <glyph glyph-name="Ntilde" unicode="&#xd1;" horiz-adv-x="757" 
d="M163 638v-522q0 -33 5 -53t15.5 -30.5t26.5 -13.5t37 -3h17q5 0 7.5 -3t2.5 -6q0 -10 -10 -10q-20 0 -32 0.5t-23 1t-23 1t-30 0.5q-44 0 -68.5 -1.5t-44.5 -1.5q-10 0 -10 10q0 3 2.5 6t7.5 3h17q17 0 32 2.5t26.5 10.5t18.5 22.5t7 38.5v573q-13 23 -22 28t-19 5h-54
q-10 0 -10 10q0 2 1.5 5.5t8.5 3.5q54 -3 88 -3q28 0 54.5 1.5t43.5 1.5l365 -554v461q0 24 -7 38.5t-18.5 22.5t-26.5 10.5t-32 2.5h-17q-10 0 -10 10q0 9 10 9q19 0 31.5 -0.5t23.5 -1t23 -1t30 -0.5q44 0 68.5 1.5t44.5 1.5q10 0 10 -9q0 -10 -10 -10h-17q-21 0 -37 -3
t-26.5 -13t-15.5 -30t-5 -53v-601q0 -8 -1.5 -12.5t-8.5 -4.5q-5 0 -10.5 3.5t-12.5 14.5zM556 825q-14 -39 -32 -52t-38 -13t-44 6t-48 13.5t-46.5 13.5t-37.5 6q-11 0 -22 -5t-20.5 -11.5t-16.5 -13t-10 -9.5q-2 -2 -5 -4.5t-5 -2.5q-5 0 -5 6q0 4 7 11q24 23 38.5 37.5
t25 22t20 10t23.5 2.5q13 0 34 -5.5t43.5 -12.5t44 -12.5t36.5 -5.5q14 0 26.5 6t23.5 22q4 6 6 6q5 0 5 -5q0 -3 -3 -10z" />
    <glyph glyph-name="Ograve" unicode="&#xd2;" horiz-adv-x="801" 
d="M400 -13q-77 0 -141 31t-111 82.5t-73 119t-26 140.5t26 140.5t73 119t111 82.5t141 31q76 0 141 -31t111.5 -82.5t73 -119t26.5 -140.5t-26.5 -140.5t-73 -119t-111.5 -82.5t-141 -31zM400 6q70 0 117 30.5t76 80t41.5 113t12.5 130.5t-12.5 130.5t-41.5 113t-76 80
t-117 30.5t-117 -30.5t-76 -80t-41.5 -113t-12.5 -130.5t12.5 -130.5t41.5 -113t76 -80t117 -30.5zM405 760l-103 127h81l57 -127h-35z" />
    <glyph glyph-name="Oacute" unicode="&#xd3;" horiz-adv-x="801" 
d="M400 -13q-77 0 -141 31t-111 82.5t-73 119t-26 140.5t26 140.5t73 119t111 82.5t141 31q76 0 141 -31t111.5 -82.5t73 -119t26.5 -140.5t-26.5 -140.5t-73 -119t-111.5 -82.5t-141 -31zM400 6q70 0 117 30.5t76 80t41.5 113t12.5 130.5t-12.5 130.5t-41.5 113t-76 80
t-117 30.5t-117 -30.5t-76 -80t-41.5 -113t-12.5 -130.5t12.5 -130.5t41.5 -113t76 -80t117 -30.5zM395 760h-36l57 127h81z" />
    <glyph glyph-name="Ocircumflex" unicode="&#xd4;" horiz-adv-x="801" 
d="M400 -13q-77 0 -141 31t-111 82.5t-73 119t-26 140.5t26 140.5t73 119t111 82.5t141 31q76 0 141 -31t111.5 -82.5t73 -119t26.5 -140.5t-26.5 -140.5t-73 -119t-111.5 -82.5t-141 -31zM400 6q70 0 117 30.5t76 80t41.5 113t12.5 130.5t-12.5 130.5t-41.5 113t-76 80
t-117 30.5t-117 -30.5t-76 -80t-41.5 -113t-12.5 -130.5t12.5 -130.5t41.5 -113t76 -80t117 -30.5zM546 773l-15 -13l-131 87l-131 -87l-14 13l132 119h27z" />
    <glyph glyph-name="Otilde" unicode="&#xd5;" horiz-adv-x="801" 
d="M400 -13q-77 0 -141 31t-111 82.5t-73 119t-26 140.5t26 140.5t73 119t111 82.5t141 31q76 0 141 -31t111.5 -82.5t73 -119t26.5 -140.5t-26.5 -140.5t-73 -119t-111.5 -82.5t-141 -31zM400 6q70 0 117 30.5t76 80t41.5 113t12.5 130.5t-12.5 130.5t-41.5 113t-76 80
t-117 30.5t-117 -30.5t-76 -80t-41.5 -113t-12.5 -130.5t12.5 -130.5t41.5 -113t76 -80t117 -30.5zM564 825q-14 -39 -32.5 -52t-38.5 -13t-44 6t-48 13.5t-46 13.5t-37 6q-12 0 -23 -5t-20 -11.5t-16 -13t-11 -9.5l-4.5 -4.5t-4.5 -2.5t-4 2t-2 4q0 5 8 11q24 23 38 37.5
t24.5 22t20 10t23.5 2.5q13 0 34 -5.5t43.5 -12.5t44.5 -12.5t37 -5.5q14 0 26 6t23 22q4 6 7 6q4 0 4 -5t-2 -10z" />
    <glyph glyph-name="Odieresis" unicode="&#xd6;" horiz-adv-x="801" 
d="M400 -13q-77 0 -141 31t-111 82.5t-73 119t-26 140.5t26 140.5t73 119t111 82.5t141 31q76 0 141 -31t111.5 -82.5t73 -119t26.5 -140.5t-26.5 -140.5t-73 -119t-111.5 -82.5t-141 -31zM400 6q70 0 117 30.5t76 80t41.5 113t12.5 130.5t-12.5 130.5t-41.5 113t-76 80
t-117 30.5t-117 -30.5t-76 -80t-41.5 -113t-12.5 -130.5t12.5 -130.5t41.5 -113t76 -80t117 -30.5zM357 812q0 -21 -15 -36.5t-38 -15.5q-21 0 -36.5 15.5t-15.5 36.5q0 23 15.5 38t36.5 15q23 0 38 -15t15 -38zM548 812q0 -21 -15 -36.5t-38 -15.5q-21 0 -36.5 15.5
t-15.5 36.5q0 23 15.5 38t36.5 15q23 0 38 -15t15 -38z" />
    <glyph glyph-name="multiply" unicode="&#xd7;" horiz-adv-x="401" 
d="M200 296l-101 -101l-36 34l102 102l-99 99l37 37l99 -99l97 97l34 -36l-96 -96l101 -100l-37 -37z" />
    <glyph glyph-name="Oslash" unicode="&#xd8;" horiz-adv-x="801" 
d="M219 -68l33 89q-46 23 -83.5 58.5t-64 80t-41 95.5t-14.5 105q0 73 26 140.5t73 119t111 82.5t141 31q62 0 116 -21l29 75h38l-35 -89q46 -23 84 -58.5t64.5 -80t41 -95t14.5 -104.5q0 -73 -26.5 -140.5t-73 -119t-111.5 -82.5t-141 -31q-61 0 -116 20l-28 -75h-37z
M508 690q-23 11 -49.5 17.5t-58.5 6.5q-70 0 -117 -30.5t-76 -80t-41.5 -113t-12.5 -130.5q0 -46 6 -91.5t19 -86t34 -75t51 -58.5zM293 29q46 -23 107 -23q70 0 117 30.5t76 80t41.5 113t12.5 130.5q0 46 -6 91.5t-18.5 86t-33.5 74.5t-51 58z" />
    <glyph glyph-name="Ugrave" unicode="&#xd9;" horiz-adv-x="764" 
d="M616 622q0 24 -7 38.5t-18.5 22.5t-26.5 10.5t-32 2.5h-17q-10 0 -10 10q0 9 10 9q19 0 31.5 -0.5t23.5 -1t23 -1t32 -0.5t32.5 0.5t23 1t23 1t32.5 0.5q10 0 10 -9q0 -10 -10 -10h-17q-21 0 -37 -3t-26.5 -13t-15.5 -30t-5 -53v-356q0 -59 -8.5 -106t-32 -80
t-65.5 -50.5t-108 -17.5q-90 0 -147.5 15.5t-90 48.5t-44.5 85t-12 125v435h-98q-11 0 -11 10q0 9 11 9q39 -1 73 -2t73 -1t73 1t73 2q11 0 11 -9q0 -10 -11 -10h-95v-450q0 -56 3.5 -100.5t22.5 -75.5t58 -47.5t111 -16.5q59 0 97 14.5t59.5 43.5t30 72t8.5 100v386z
M403 760l-102 127h80l57 -127h-35z" />
    <glyph glyph-name="Uacute" unicode="&#xda;" horiz-adv-x="764" 
d="M616 622q0 24 -7 38.5t-18.5 22.5t-26.5 10.5t-32 2.5h-17q-10 0 -10 10q0 9 10 9q19 0 31.5 -0.5t23.5 -1t23 -1t32 -0.5t32.5 0.5t23 1t23 1t32.5 0.5q10 0 10 -9q0 -10 -10 -10h-17q-21 0 -37 -3t-26.5 -13t-15.5 -30t-5 -53v-356q0 -59 -8.5 -106t-32 -80
t-65.5 -50.5t-108 -17.5q-90 0 -147.5 15.5t-90 48.5t-44.5 85t-12 125v435h-98q-11 0 -11 10q0 9 11 9q39 -1 73 -2t73 -1t73 1t73 2q11 0 11 -9q0 -10 -11 -10h-95v-450q0 -56 3.5 -100.5t22.5 -75.5t58 -47.5t111 -16.5q59 0 97 14.5t59.5 43.5t30 72t8.5 100v386z
M416 760h-35l57 127h81z" />
    <glyph glyph-name="Ucircumflex" unicode="&#xdb;" horiz-adv-x="764" 
d="M616 622q0 24 -7 38.5t-18.5 22.5t-26.5 10.5t-32 2.5h-17q-10 0 -10 10q0 9 10 9q19 0 31.5 -0.5t23.5 -1t23 -1t32 -0.5t32.5 0.5t23 1t23 1t32.5 0.5q10 0 10 -9q0 -10 -10 -10h-17q-21 0 -37 -3t-26.5 -13t-15.5 -30t-5 -53v-356q0 -59 -8.5 -106t-32 -80
t-65.5 -50.5t-108 -17.5q-90 0 -147.5 15.5t-90 48.5t-44.5 85t-12 125v435h-98q-11 0 -11 10q0 9 11 9q39 -1 73 -2t73 -1t73 1t73 2q11 0 11 -9q0 -10 -11 -10h-95v-450q0 -56 3.5 -100.5t22.5 -75.5t58 -47.5t111 -16.5q59 0 97 14.5t59.5 43.5t30 72t8.5 100v386z
M557 773l-14 -13l-131 87l-131 -87l-15 13l132 119h27z" />
    <glyph glyph-name="Udieresis" unicode="&#xdc;" horiz-adv-x="764" 
d="M616 622q0 24 -7 38.5t-18.5 22.5t-26.5 10.5t-32 2.5h-17q-10 0 -10 10q0 9 10 9q19 0 31.5 -0.5t23.5 -1t23 -1t32 -0.5t32.5 0.5t23 1t23 1t32.5 0.5q10 0 10 -9q0 -10 -10 -10h-17q-21 0 -37 -3t-26.5 -13t-15.5 -30t-5 -53v-356q0 -59 -8.5 -106t-32 -80
t-65.5 -50.5t-108 -17.5q-90 0 -147.5 15.5t-90 48.5t-44.5 85t-12 125v435h-98q-11 0 -11 10q0 9 11 9q39 -1 73 -2t73 -1t73 1t73 2q11 0 11 -9q0 -10 -11 -10h-95v-450q0 -56 3.5 -100.5t22.5 -75.5t58 -47.5t111 -16.5q59 0 97 14.5t59.5 43.5t30 72t8.5 100v386z
M376 812q0 -21 -15.5 -36.5t-38.5 -15.5q-21 0 -36.5 15.5t-15.5 36.5q0 23 15.5 38t36.5 15q23 0 38.5 -15t15.5 -38zM567 812q0 -21 -15.5 -36.5t-38.5 -15.5q-21 0 -36.5 15.5t-15.5 36.5q0 23 15.5 38t36.5 15q23 0 38.5 -15t15.5 -38z" />
    <glyph glyph-name="Yacute" unicode="&#xdd;" horiz-adv-x="575" 
d="M432 16q5 0 8 -3t3 -6q0 -10 -11 -10q-38 1 -71.5 2t-71.5 1q-23 0 -47 -0.5t-44 -1t-35.5 -1t-22.5 -0.5q-11 0 -11 10q0 3 3 6t8 3h98v327l-138 293q-10 21 -18.5 33t-16 18t-14 7.5t-13.5 1.5h-48q-11 0 -11 10q0 9 11 9q22 0 39 -0.5t33.5 -1t35.5 -1t44 -0.5
q30 0 51.5 0.5t36.5 1t24.5 1t16.5 0.5q10 0 10 -9q0 -10 -10 -10h-35q-18 0 -31.5 -2.5t-13.5 -16.5q0 -10 9 -26l132 -281l97 220q7 17 12 33.5t5 33.5q0 24 -11.5 31.5t-37.5 7.5h-20q-10 0 -10 10q0 9 10 9q19 0 30 -0.5t20 -1t19.5 -1t28.5 -0.5q22 0 38.5 0.5t29.5 1
t23.5 1t20.5 0.5q11 0 11 -9q0 -10 -11 -10h-17q-17 0 -31.5 -2t-28 -9.5t-26 -23.5t-24.5 -44l-123 -274v-327h95zM320 760h-35l57 127h81z" />
    <glyph glyph-name="Thorn" unicode="&#xde;" horiz-adv-x="616" 
d="M337 16q5 0 7.5 -3t2.5 -6q0 -10 -10 -10q-38 1 -72 2t-72 1q-23 0 -47 -0.5t-44 -1t-35.5 -1t-22.5 -0.5q-11 0 -11 10q0 3 3 6t8 3h98v680h-98q-11 0 -11 10q0 9 11 9q38 -1 71.5 -2t71.5 -1q23 0 47 0.5t44.5 1t36 1t22.5 0.5q10 0 10 -9q0 -10 -10 -10h-95v-150
q20 0 34.5 1t39.5 1q39 0 87 -5.5t89 -24t69 -54t28 -94.5q0 -49 -19.5 -83t-51 -55.5t-70.5 -33t-77.5 -16.5t-72.5 -6t-56 -1v-159h95zM242 194q39 0 81.5 3t78.5 18.5t59.5 49t23.5 95.5t-24 96t-60 50.5t-79 20t-80 3.5v-336z" />
    <glyph glyph-name="germandbls" unicode="&#xdf;" horiz-adv-x="511" 
d="M257 16q5 0 7.5 -3t2.5 -6q0 -10 -10 -10q-15 0 -28 0.5l-26 1t-27.5 1t-33.5 0.5q-47 0 -74.5 -1.5t-41.5 -1.5q-11 0 -11 10q0 3 3 6t8 3h66v515q0 68 19.5 110t48.5 65.5t62 31.5t61 8q39 0 73.5 -12.5t60 -36t40.5 -56t15 -72.5q0 -71 -43.5 -115.5t-112.5 -53.5
q31 -1 58 -8.5t47 -21t32 -33.5t12 -46q0 -38 -21 -65.5t-46.5 -51.5t-46.5 -49.5t-21 -58.5q0 -30 18 -47.5t47 -17.5q24 0 35 11t11 19q0 5 -3 5q-2 0 -5 -4t-14 -4q-13 0 -25.5 8.5t-12.5 28.5t13.5 30.5t29.5 10.5t29.5 -12t13.5 -40q0 -18 -7 -31t-17.5 -21t-24 -11.5
t-26.5 -3.5q-41 0 -62.5 28t-21.5 68q0 27 9 51t19.5 47.5t19.5 49t9 56.5q0 34 -11.5 54.5t-27.5 31t-33.5 13.5t-29.5 3h-21q-11 0 -11 5t3 5.5t8 0.5h18q56 0 84.5 39t28.5 127q0 74 -23 120t-78 46q-46 0 -65.5 -33.5t-19.5 -99.5v-583h70z" />
    <glyph glyph-name="agrave" unicode="&#xe0;" horiz-adv-x="492" 
d="M402 108q0 -28 0.5 -46t3.5 -28.5t9.5 -15t18.5 -4.5q22 0 26 10t4 21q0 2 1 7.5t9 5.5q7 0 8 -5.5t1 -7.5q0 -10 -2.5 -19.5t-11 -16.5t-24 -11.5t-41.5 -4.5q-37 0 -62 12.5t-33 47.5q-32 -35 -66.5 -50.5t-72.5 -15.5q-59 0 -97.5 32.5t-38.5 89.5q0 31 12 58.5
t34.5 48.5t55 33t74.5 12q38 0 60.5 -9.5t36.5 -22.5v57q0 31 -1.5 55t-10 40.5t-27.5 24.5t-53 8q-30 0 -49.5 -4.5t-31 -10.5t-16 -13t-4.5 -11v-2q0 -1 1 -1q2 0 4 1t9 1q22 0 34 -13t12 -31q0 -21 -13 -33t-32 -12q-20 0 -35 14t-15 43q0 15 5.5 31.5t21 29.5t42.5 21.5
t70 8.5q28 0 60.5 -5t60 -18t45.5 -36t18 -59v-207zM307 208q-15 20 -36.5 27.5t-44.5 7.5q-27 0 -45 -9.5t-28.5 -24.5t-14.5 -34.5t-4 -40.5q0 -54 22.5 -84.5t62.5 -30.5q30 0 51.5 16.5t36.5 39.5v133zM238 461l-103 127h81l57 -127h-35z" />
    <glyph glyph-name="aacute" unicode="&#xe1;" horiz-adv-x="492" 
d="M402 108q0 -28 0.5 -46t3.5 -28.5t9.5 -15t18.5 -4.5q22 0 26 10t4 21q0 2 1 7.5t9 5.5q7 0 8 -5.5t1 -7.5q0 -10 -2.5 -19.5t-11 -16.5t-24 -11.5t-41.5 -4.5q-37 0 -62 12.5t-33 47.5q-32 -35 -66.5 -50.5t-72.5 -15.5q-59 0 -97.5 32.5t-38.5 89.5q0 31 12 58.5
t34.5 48.5t55 33t74.5 12q38 0 60.5 -9.5t36.5 -22.5v57q0 31 -1.5 55t-10 40.5t-27.5 24.5t-53 8q-30 0 -49.5 -4.5t-31 -10.5t-16 -13t-4.5 -11v-2q0 -1 1 -1q2 0 4 1t9 1q22 0 34 -13t12 -31q0 -21 -13 -33t-32 -12q-20 0 -35 14t-15 43q0 15 5.5 31.5t21 29.5t42.5 21.5
t70 8.5q28 0 60.5 -5t60 -18t45.5 -36t18 -59v-207zM307 208q-15 20 -36.5 27.5t-44.5 7.5q-27 0 -45 -9.5t-28.5 -24.5t-14.5 -34.5t-4 -40.5q0 -54 22.5 -84.5t62.5 -30.5q30 0 51.5 16.5t36.5 39.5v133zM242 461h-35l57 127h80z" />
    <glyph glyph-name="acircumflex" unicode="&#xe2;" horiz-adv-x="492" 
d="M402 108q0 -28 0.5 -46t3.5 -28.5t9.5 -15t18.5 -4.5q22 0 26 10t4 21q0 2 1 7.5t9 5.5q7 0 8 -5.5t1 -7.5q0 -10 -2.5 -19.5t-11 -16.5t-24 -11.5t-41.5 -4.5q-37 0 -62 12.5t-33 47.5q-32 -35 -66.5 -50.5t-72.5 -15.5q-59 0 -97.5 32.5t-38.5 89.5q0 31 12 58.5
t34.5 48.5t55 33t74.5 12q38 0 60.5 -9.5t36.5 -22.5v57q0 31 -1.5 55t-10 40.5t-27.5 24.5t-53 8q-30 0 -49.5 -4.5t-31 -10.5t-16 -13t-4.5 -11v-2q0 -1 1 -1q2 0 4 1t9 1q22 0 34 -13t12 -31q0 -21 -13 -33t-32 -12q-20 0 -35 14t-15 43q0 15 5.5 31.5t21 29.5t42.5 21.5
t70 8.5q28 0 60.5 -5t60 -18t45.5 -36t18 -59v-207zM307 208q-15 20 -36.5 27.5t-44.5 7.5q-27 0 -45 -9.5t-28.5 -24.5t-14.5 -34.5t-4 -40.5q0 -54 22.5 -84.5t62.5 -30.5q30 0 51.5 16.5t36.5 39.5v133zM381 474l-15 -13l-131 87l-131 -87l-14 13l132 119h26z" />
    <glyph glyph-name="atilde" unicode="&#xe3;" horiz-adv-x="492" 
d="M402 108q0 -28 0.5 -46t3.5 -28.5t9.5 -15t18.5 -4.5q22 0 26 10t4 21q0 2 1 7.5t9 5.5q7 0 8 -5.5t1 -7.5q0 -10 -2.5 -19.5t-11 -16.5t-24 -11.5t-41.5 -4.5q-37 0 -62 12.5t-33 47.5q-32 -35 -66.5 -50.5t-72.5 -15.5q-59 0 -97.5 32.5t-38.5 89.5q0 31 12 58.5
t34.5 48.5t55 33t74.5 12q38 0 60.5 -9.5t36.5 -22.5v57q0 31 -1.5 55t-10 40.5t-27.5 24.5t-53 8q-30 0 -49.5 -4.5t-31 -10.5t-16 -13t-4.5 -11v-2q0 -1 1 -1q2 0 4 1t9 1q22 0 34 -13t12 -31q0 -21 -13 -33t-32 -12q-20 0 -35 14t-15 43q0 15 5.5 31.5t21 29.5t42.5 21.5
t70 8.5q28 0 60.5 -5t60 -18t45.5 -36t18 -59v-207zM307 208q-15 20 -36.5 27.5t-44.5 7.5q-27 0 -45 -9.5t-28.5 -24.5t-14.5 -34.5t-4 -40.5q0 -54 22.5 -84.5t62.5 -30.5q30 0 51.5 16.5t36.5 39.5v133zM395 525q-14 -38 -32.5 -51t-38.5 -13t-44 6t-48 13.5t-46 13.5
t-37 6q-12 0 -23 -5t-20 -11.5t-16 -13t-11 -9.5l-4.5 -4.5t-4.5 -2.5t-4 2t-2 4q0 3 8 11q24 23 38 37t24.5 21.5t20 10t23.5 2.5q13 0 34 -5.5t43.5 -12.5t44.5 -12.5t37 -5.5q14 0 26 6.5t23 22.5q4 6 7 6q5 0 5 -5q0 -2 -3 -11z" />
    <glyph glyph-name="adieresis" unicode="&#xe4;" horiz-adv-x="492" 
d="M402 108q0 -28 0.5 -46t3.5 -28.5t9.5 -15t18.5 -4.5q22 0 26 10t4 21q0 2 1 7.5t9 5.5q7 0 8 -5.5t1 -7.5q0 -10 -2.5 -19.5t-11 -16.5t-24 -11.5t-41.5 -4.5q-37 0 -62 12.5t-33 47.5q-32 -35 -66.5 -50.5t-72.5 -15.5q-59 0 -97.5 32.5t-38.5 89.5q0 31 12 58.5
t34.5 48.5t55 33t74.5 12q38 0 60.5 -9.5t36.5 -22.5v57q0 31 -1.5 55t-10 40.5t-27.5 24.5t-53 8q-30 0 -49.5 -4.5t-31 -10.5t-16 -13t-4.5 -11v-2q0 -1 1 -1q2 0 4 1t9 1q22 0 34 -13t12 -31q0 -21 -13 -33t-32 -12q-20 0 -35 14t-15 43q0 15 5.5 31.5t21 29.5t42.5 21.5
t70 8.5q28 0 60.5 -5t60 -18t45.5 -36t18 -59v-207zM307 208q-15 20 -36.5 27.5t-44.5 7.5q-27 0 -45 -9.5t-28.5 -24.5t-14.5 -34.5t-4 -40.5q0 -54 22.5 -84.5t62.5 -30.5q30 0 51.5 16.5t36.5 39.5v133zM192 513q0 -22 -15 -37t-38 -15q-21 0 -36.5 15t-15.5 37
t15.5 37.5t36.5 15.5q23 0 38 -15.5t15 -37.5zM383 513q0 -22 -15 -37t-38 -15q-21 0 -36.5 15t-15.5 37t15.5 37.5t36.5 15.5q23 0 38 -15.5t15 -37.5z" />
    <glyph glyph-name="aring" unicode="&#xe5;" horiz-adv-x="492" 
d="M402 108q0 -28 0.5 -46t3.5 -28.5t9.5 -15t18.5 -4.5q22 0 26 10t4 21q0 2 1 7.5t9 5.5q7 0 8 -5.5t1 -7.5q0 -10 -2.5 -19.5t-11 -16.5t-24 -11.5t-41.5 -4.5q-37 0 -62 12.5t-33 47.5q-32 -35 -66.5 -50.5t-72.5 -15.5q-59 0 -97.5 32.5t-38.5 89.5q0 31 12 58.5
t34.5 48.5t55 33t74.5 12q38 0 60.5 -9.5t36.5 -22.5v57q0 31 -1.5 55t-10 40.5t-27.5 24.5t-53 8q-30 0 -49.5 -4.5t-31 -10.5t-16 -13t-4.5 -11v-2q0 -1 1 -1q2 0 4 1t9 1q22 0 34 -13t12 -31q0 -21 -13 -33t-32 -12q-20 0 -35 14t-15 43q0 15 5.5 31.5t21 29.5t42.5 21.5
t70 8.5q28 0 60.5 -5t60 -18t45.5 -36t18 -59v-207zM307 208q-15 20 -36.5 27.5t-44.5 7.5q-27 0 -45 -9.5t-28.5 -24.5t-14.5 -34.5t-4 -40.5q0 -54 22.5 -84.5t62.5 -30.5q30 0 51.5 16.5t36.5 39.5v133zM307 526q0 -17 -7 -29t-18 -20t-25 -12t-28 -4t-27.5 4t-24.5 12
t-18 20t-7 29t7 29.5t18 20.5t24.5 12t27.5 4t28 -4t25 -12t18 -20.5t7 -29.5zM229 476q20 0 30 14.5t10 35.5q0 22 -10 37t-30 15q-19 0 -29 -15t-10 -37q0 -21 10 -35.5t29 -14.5z" />
    <glyph glyph-name="ae" unicode="&#xe6;" horiz-adv-x="741" 
d="M408 241q0 -55 3 -98.5t15 -74t36 -46.5t65 -16q21 0 43 5t43 18.5t39 36t30 57.5q2 4 4.5 8t8.5 4q7 0 7 -8q0 -2 -1 -4.5t-3 -11.5q-20 -56 -66.5 -90t-109.5 -34q-50 0 -98.5 22t-78.5 65q-35 -38 -79.5 -62.5t-96.5 -24.5q-58 0 -96.5 32.5t-38.5 89.5q0 31 12 58.5
t34.5 48.5t55.5 33t74 12q39 0 61.5 -9.5t36.5 -22.5q0 54 -1.5 89.5t-10 56.5t-27.5 30t-54 9q-29 0 -48.5 -4.5t-31 -10.5t-16.5 -13t-5 -11q0 -3 1 -3h1q5 2 7.5 2h5.5q22 0 34 -12.5t12 -31.5q0 -21 -13 -33t-33 -12t-34.5 14t-14.5 43q0 15 5.5 31.5t21 29.5t42.5 21.5
t70 8.5q21 0 45.5 -2.5t47.5 -10t42 -20.5t29 -33q20 32 58 49t80 17q40 0 71 -14t53.5 -36.5t37 -51.5t20.5 -58q2 -11 3 -14.5t1 -6.5q0 -8 -3.5 -9.5t-10.5 -1.5h-285zM308 207q-15 20 -37 28t-46 8q-27 0 -44 -9t-27.5 -24.5t-14.5 -35t-4 -40.5q0 -54 22.5 -84.5
t63.5 -30.5q26 0 54.5 14.5t62.5 51.5q-14 25 -22 51t-8 71zM599 260q0 32 -2.5 60t-11 49t-25.5 33t-46 12q-53 0 -77 -39.5t-28 -114.5h190z" />
    <glyph glyph-name="ccedilla" unicode="&#xe7;" horiz-adv-x="468" 
d="M256 -13l-30 -60q25 12 52 12q43 0 68 -20.5t25 -48.5q0 -12 -4.5 -27t-16 -28.5t-31 -22.5t-49.5 -9q-6 0 -20 1.5t-28.5 4.5t-25 7t-10.5 8t3 4t18 -3.5t27 -3.5q15 0 29 4t25.5 12.5t18.5 22.5t7 34q0 24 -15.5 37t-36.5 13q-15 0 -29.5 -7.5t-23.5 -21.5
q-7 -13 -10 -13q-5 0 -6.5 2t-1.5 4q0 1 1.5 3.5t6.5 12.5t15 29.5t28 54.5q-40 2 -77 17t-65 42t-45 66t-17 89q0 45 14.5 86.5t44 74t72.5 51.5t100 19q45 0 74.5 -10.5t46.5 -26.5t24 -35t7 -35q0 -25 -13.5 -40t-36.5 -15q-18 0 -31.5 11.5t-13.5 32.5t13.5 33t30.5 12
q8 0 10.5 -1t4.5 -1t2 4q0 6 -7 14.5t-20.5 17t-34 14.5t-48.5 6q-78 0 -108.5 -52t-30.5 -147q0 -60 10 -100.5t28 -64.5t42.5 -34t53.5 -10q36 0 61.5 12t42 29t26 36t14.5 34q4 12 11 12q8 0 8 -6q0 -4 -5 -18q-19 -58 -63 -88t-108 -30h-3z" />
    <glyph glyph-name="egrave" unicode="&#xe8;" horiz-adv-x="471" 
d="M138 241q0 -55 3 -98.5t15 -74t35.5 -46.5t64.5 -16q20 0 42.5 5t43.5 18.5t39.5 36t30.5 57.5q2 4 4.5 8t8.5 4q7 0 7 -8q0 -2 -1 -4.5t-4 -11.5q-20 -58 -66.5 -91t-109.5 -33q-42 0 -80.5 14.5t-68 42t-47 68t-17.5 92.5q0 46 16 87.5t44.5 73t68 50t86.5 18.5
q37 0 67 -13t52.5 -35t37.5 -51t23 -61q1 -3 2.5 -10.5t1.5 -11.5q0 -7 -4 -8.5t-10 -1.5h-285zM329 260q0 32 -2.5 60t-11 49t-25.5 33t-46 12q-53 0 -77.5 -39.5t-27.5 -114.5h190zM240 461l-102 127h80l57 -127h-35z" />
    <glyph glyph-name="eacute" unicode="&#xe9;" horiz-adv-x="471" 
d="M138 241q0 -55 3 -98.5t15 -74t35.5 -46.5t64.5 -16q20 0 42.5 5t43.5 18.5t39.5 36t30.5 57.5q2 4 4.5 8t8.5 4q7 0 7 -8q0 -2 -1 -4.5t-4 -11.5q-20 -58 -66.5 -91t-109.5 -33q-42 0 -80.5 14.5t-68 42t-47 68t-17.5 92.5q0 46 16 87.5t44.5 73t68 50t86.5 18.5
q37 0 67 -13t52.5 -35t37.5 -51t23 -61q1 -3 2.5 -10.5t1.5 -11.5q0 -7 -4 -8.5t-10 -1.5h-285zM329 260q0 32 -2.5 60t-11 49t-25.5 33t-46 12q-53 0 -77.5 -39.5t-27.5 -114.5h190zM237 461h-35l57 127h81z" />
    <glyph glyph-name="ecircumflex" unicode="&#xea;" horiz-adv-x="471" 
d="M138 241q0 -55 3 -98.5t15 -74t35.5 -46.5t64.5 -16q20 0 42.5 5t43.5 18.5t39.5 36t30.5 57.5q2 4 4.5 8t8.5 4q7 0 7 -8q0 -2 -1 -4.5t-4 -11.5q-20 -58 -66.5 -91t-109.5 -33q-42 0 -80.5 14.5t-68 42t-47 68t-17.5 92.5q0 46 16 87.5t44.5 73t68 50t86.5 18.5
q37 0 67 -13t52.5 -35t37.5 -51t23 -61q1 -3 2.5 -10.5t1.5 -11.5q0 -7 -4 -8.5t-10 -1.5h-285zM329 260q0 32 -2.5 60t-11 49t-25.5 33t-46 12q-53 0 -77.5 -39.5t-27.5 -114.5h190zM381 474l-14 -13l-131 87l-132 -87l-14 13l132 119h27z" />
    <glyph glyph-name="edieresis" unicode="&#xeb;" horiz-adv-x="471" 
d="M138 241q0 -55 3 -98.5t15 -74t35.5 -46.5t64.5 -16q20 0 42.5 5t43.5 18.5t39.5 36t30.5 57.5q2 4 4.5 8t8.5 4q7 0 7 -8q0 -2 -1 -4.5t-4 -11.5q-20 -58 -66.5 -91t-109.5 -33q-42 0 -80.5 14.5t-68 42t-47 68t-17.5 92.5q0 46 16 87.5t44.5 73t68 50t86.5 18.5
q37 0 67 -13t52.5 -35t37.5 -51t23 -61q1 -3 2.5 -10.5t1.5 -11.5q0 -7 -4 -8.5t-10 -1.5h-285zM329 260q0 32 -2.5 60t-11 49t-25.5 33t-46 12q-53 0 -77.5 -39.5t-27.5 -114.5h190zM193 513q0 -22 -15.5 -37t-37.5 -15t-37.5 15t-15.5 37t15.5 37.5t37.5 15.5t37.5 -15.5
t15.5 -37.5zM384 513q0 -22 -15.5 -37t-37.5 -15t-37.5 15t-15.5 37t15.5 37.5t37.5 15.5t37.5 -15.5t15.5 -37.5z" />
    <glyph glyph-name="igrave" unicode="&#xec;" horiz-adv-x="292" 
d="M268 16q5 0 8 -3t3 -6q0 -10 -11 -10q-16 0 -28.5 0.5l-25 1t-26.5 1t-33 0.5q-47 0 -76.5 -1.5t-43.5 -1.5q-11 0 -11 10q0 3 3 6t8 3h69v342q0 23 -6.5 30t-23.5 7h-39q-11 0 -11 10q0 3 3 6t8 3q13 0 23 -0.5t20.5 -0.5h23h30.5q29 0 43.5 2.5t19.5 2.5q4 0 4 -9v-393
h69zM137 461l-102 127h80l57 -127h-35z" />
    <glyph glyph-name="iacute" unicode="&#xed;" horiz-adv-x="292" 
d="M268 16q5 0 8 -3t3 -6q0 -10 -11 -10q-16 0 -28.5 0.5l-25 1t-26.5 1t-33 0.5q-47 0 -76.5 -1.5t-43.5 -1.5q-11 0 -11 10q0 3 3 6t8 3h69v342q0 23 -6.5 30t-23.5 7h-39q-11 0 -11 10q0 3 3 6t8 3q13 0 23 -0.5t20.5 -0.5h23h30.5q29 0 43.5 2.5t19.5 2.5q4 0 4 -9v-393
h69zM146 461h-35l57 127h80z" />
    <glyph glyph-name="icircumflex" unicode="&#xee;" horiz-adv-x="292" 
d="M268 16q5 0 8 -3t3 -6q0 -10 -11 -10q-16 0 -28.5 0.5l-25 1t-26.5 1t-33 0.5q-47 0 -76.5 -1.5t-43.5 -1.5q-11 0 -11 10q0 3 3 6t8 3h69v342q0 23 -6.5 30t-23.5 7h-39q-11 0 -11 10q0 3 3 6t8 3q13 0 23 -0.5t20.5 -0.5h23h30.5q29 0 43.5 2.5t19.5 2.5q4 0 4 -9v-393
h69zM297 474l-15 -13l-131 87l-131 -87l-14 13l132 119h27z" />
    <glyph glyph-name="idieresis" unicode="&#xef;" horiz-adv-x="292" 
d="M268 16q5 0 8 -3t3 -6q0 -10 -11 -10q-16 0 -28.5 0.5l-25 1t-26.5 1t-33 0.5q-47 0 -76.5 -1.5t-43.5 -1.5q-11 0 -11 10q0 3 3 6t8 3h69v342q0 23 -6.5 30t-23.5 7h-39q-11 0 -11 10q0 3 3 6t8 3q13 0 23 -0.5t20.5 -0.5h23h30.5q29 0 43.5 2.5t19.5 2.5q4 0 4 -9v-393
h69zM109 513q0 -22 -15.5 -37t-38.5 -15q-21 0 -36.5 15t-15.5 37t15.5 37.5t36.5 15.5q23 0 38.5 -15.5t15.5 -37.5zM300 513q0 -22 -15.5 -37t-38.5 -15q-21 0 -36.5 15t-15.5 37t15.5 37.5t36.5 15.5q23 0 38.5 -15.5t15.5 -37.5z" />
    <glyph glyph-name="eth" unicode="&#xf0;" horiz-adv-x="517" 
d="M338 633q69 -63 99 -145.5t30 -182.5q0 -66 -17.5 -124t-47.5 -101t-71 -68t-87 -25q-31 0 -67 13.5t-67 42t-51.5 72.5t-20.5 105q0 43 13.5 81t37.5 66t57.5 44.5t74.5 16.5q30 0 53.5 -7t42 -18.5t31 -26t20.5 -29.5q-3 76 -20 140t-52 114l-77 -59l-9 25l71 55
q-39 46 -102 80q-9 5 -12 8t-3 5q0 14 11 14q7 0 15 -4q74 -32 127 -74l72 56l11 -26zM369 303q-6 19 -16 37t-24 32t-32 23t-40 9q-23 0 -44.5 -10.5t-38 -32.5t-26 -57t-9.5 -84q0 -58 8.5 -98.5t23.5 -66t34.5 -37.5t40.5 -12q36 0 59.5 21.5t38 60.5t20 94t5.5 121z" />
    <glyph glyph-name="ntilde" unicode="&#xf1;" horiz-adv-x="569" 
d="M551 16q5 0 8 -3t3 -6q0 -10 -11 -10q-15 0 -27.5 0.5l-25 1t-27 1t-33.5 0.5q-46 0 -76 -1.5t-44 -1.5q-11 0 -11 10q0 3 3 6t8 3h69v283q0 22 -2.5 42t-10 34.5t-20.5 23t-33 8.5q-26 0 -48 -14t-38.5 -37.5t-26 -54.5t-9.5 -65v-220h69q5 0 8 -3t3 -6q0 -10 -11 -10
q-16 0 -28.5 0.5l-25 1t-26.5 1t-33 0.5q-47 0 -76.5 -1.5t-43.5 -1.5q-11 0 -11 10q0 3 3 6t8 3h69v342q0 23 -6.5 30t-23.5 7h-39q-11 0 -11 10q0 3 3 6t8 3q19 0 32.5 -0.5t24 -0.5h19.5h21q29 0 43.5 2.5t19.5 2.5q4 0 4 -9v-91q0 2 7 19t23.5 37t44.5 36.5t71 16.5
q41 0 67.5 -16t42 -41t21.5 -55.5t6 -58.5v-240h69zM445 525q-14 -38 -32.5 -51t-37.5 -13q-20 0 -44 6t-48.5 13.5t-46.5 13.5t-37 6q-11 0 -22 -5t-20.5 -11.5t-16.5 -13t-10 -9.5q-2 -2 -5 -4.5t-5 -2.5t-4 2t-2 4q0 3 8 11q24 23 38 37t24.5 21.5t20 10t23.5 2.5
q13 0 34 -5.5t43.5 -12.5t44.5 -12.5t37 -5.5q14 0 26 6.5t23 22.5q4 6 7 6q5 0 5 -5q0 -2 -3 -11z" />
    <glyph glyph-name="ograve" unicode="&#xf2;" horiz-adv-x="498" 
d="M249 -13q-46 0 -84.5 18t-67 48.5t-44.5 70t-16 82.5t16 83.5t44.5 72.5t67 51.5t84.5 19.5q45 0 84 -19.5t67.5 -51.5t44.5 -72.5t16 -83.5t-16 -82.5t-44.5 -70t-67.5 -48.5t-84 -18zM249 6q31 0 52.5 16.5t35 44.5t19 63.5t5.5 74.5t-5.5 76.5t-19 67t-35 47.5
t-52.5 18q-32 0 -53.5 -17.5t-34.5 -47t-18.5 -66.5t-5.5 -76t5.5 -75t18.5 -64t34.5 -45t53.5 -17zM255 461l-103 127h81l57 -127h-35z" />
    <glyph glyph-name="oacute" unicode="&#xf3;" horiz-adv-x="498" 
d="M249 -13q-46 0 -84.5 18t-67 48.5t-44.5 70t-16 82.5t16 83.5t44.5 72.5t67 51.5t84.5 19.5q45 0 84 -19.5t67.5 -51.5t44.5 -72.5t16 -83.5t-16 -82.5t-44.5 -70t-67.5 -48.5t-84 -18zM249 6q31 0 52.5 16.5t35 44.5t19 63.5t5.5 74.5t-5.5 76.5t-19 67t-35 47.5
t-52.5 18q-32 0 -53.5 -17.5t-34.5 -47t-18.5 -66.5t-5.5 -76t5.5 -75t18.5 -64t34.5 -45t53.5 -17zM244 461h-35l57 127h81z" />
    <glyph glyph-name="ocircumflex" unicode="&#xf4;" horiz-adv-x="498" 
d="M249 -13q-46 0 -84.5 18t-67 48.5t-44.5 70t-16 82.5t16 83.5t44.5 72.5t67 51.5t84.5 19.5q45 0 84 -19.5t67.5 -51.5t44.5 -72.5t16 -83.5t-16 -82.5t-44.5 -70t-67.5 -48.5t-84 -18zM249 6q31 0 52.5 16.5t35 44.5t19 63.5t5.5 74.5t-5.5 76.5t-19 67t-35 47.5
t-52.5 18q-32 0 -53.5 -17.5t-34.5 -47t-18.5 -66.5t-5.5 -76t5.5 -75t18.5 -64t34.5 -45t53.5 -17zM394 474l-14 -13l-131 87l-131 -87l-15 13l133 119h26z" />
    <glyph glyph-name="otilde" unicode="&#xf5;" horiz-adv-x="498" 
d="M249 -13q-46 0 -84.5 18t-67 48.5t-44.5 70t-16 82.5t16 83.5t44.5 72.5t67 51.5t84.5 19.5q45 0 84 -19.5t67.5 -51.5t44.5 -72.5t16 -83.5t-16 -82.5t-44.5 -70t-67.5 -48.5t-84 -18zM249 6q31 0 52.5 16.5t35 44.5t19 63.5t5.5 74.5t-5.5 76.5t-19 67t-35 47.5
t-52.5 18q-32 0 -53.5 -17.5t-34.5 -47t-18.5 -66.5t-5.5 -76t5.5 -75t18.5 -64t34.5 -45t53.5 -17zM413 525q-14 -38 -32 -51t-38 -13t-44 6t-48 13.5t-46.5 13.5t-37.5 6q-11 0 -22 -5t-20.5 -11.5t-16.5 -13t-10 -9.5q-2 -2 -5 -4.5t-5 -2.5q-5 0 -5 6q0 4 7 11
q24 23 38.5 37t25 21.5t20 10t23.5 2.5q13 0 34 -5.5t43.5 -12.5t44 -12.5t36.5 -5.5q14 0 26.5 6.5t23.5 22.5q3 6 6 6q5 0 5 -5q0 -2 -3 -11z" />
    <glyph glyph-name="odieresis" unicode="&#xf6;" horiz-adv-x="498" 
d="M249 -13q-46 0 -84.5 18t-67 48.5t-44.5 70t-16 82.5t16 83.5t44.5 72.5t67 51.5t84.5 19.5q45 0 84 -19.5t67.5 -51.5t44.5 -72.5t16 -83.5t-16 -82.5t-44.5 -70t-67.5 -48.5t-84 -18zM249 6q31 0 52.5 16.5t35 44.5t19 63.5t5.5 74.5t-5.5 76.5t-19 67t-35 47.5
t-52.5 18q-32 0 -53.5 -17.5t-34.5 -47t-18.5 -66.5t-5.5 -76t5.5 -75t18.5 -64t34.5 -45t53.5 -17zM206 513q0 -22 -15.5 -37t-37.5 -15t-37 15t-15 37t15 37.5t37 15.5t37.5 -15.5t15.5 -37.5zM397 513q0 -22 -15.5 -37t-37.5 -15t-37 15t-15 37t15 37.5t37 15.5
t37.5 -15.5t15.5 -37.5z" />
    <glyph glyph-name="divide" unicode="&#xf7;" horiz-adv-x="456" 
d="M228 126q-23 0 -39 16t-16 39t16 39.5t39 16.5t39 -16.5t16 -39.5t-16 -39t-39 -16zM228 418q-23 0 -39 16t-16 39t16 39t39 16t39 -16t16 -39t-16 -39t-39 -16zM62 304v49h332v-49h-332z" />
    <glyph glyph-name="oslash" unicode="&#xf8;" horiz-adv-x="498" 
d="M115 -88l37 98q-52 29 -83.5 82t-31.5 114q0 43 16 83.5t44.5 72.5t67 51.5t84.5 19.5q16 0 31.5 -2.5t29.5 -7.5l33 87h38l-39 -101q27 -15 48.5 -37t37.5 -48.5t24.5 -56.5t8.5 -61q0 -43 -16 -82.5t-44.5 -70t-67.5 -48.5t-84 -18q-36 0 -65 10l-32 -85h-37zM195 23
q20 -17 54 -17q31 0 52.5 16.5t35 44.5t19 63.5t5.5 74.5q0 46 -8 89.5t-27 73.5zM300 397q-22 17 -51 17q-32 0 -53.5 -17.5t-34.5 -47t-18.5 -66.5t-5.5 -76q0 -45 7 -85t24 -69z" />
    <glyph glyph-name="ugrave" unicode="&#xf9;" horiz-adv-x="558" 
d="M535 17q5 0 7.5 -3t2.5 -6q0 -10 -10 -10q-11 1 -28 1.5t-33 0.5q-22 0 -47 -1t-35 -1q-13 0 -18 5q-4 4 -4 22v71q0 -2 -7 -19.5t-23.5 -37.5t-44.5 -36t-71 -16q-41 0 -67.5 16t-42 41t-21.5 55.5t-6 58.5v200q0 23 -6 30t-23 7h-40q-10 0 -10 10q0 3 2.5 6t7.5 3
q16 0 28 -0.5t22.5 -0.5h21.5h26q29 0 43.5 1t18.5 1t4 -8v-292q0 -45 13 -76.5t52 -31.5q26 0 48.5 14.5t39 39t26 56t9.5 66.5v175q0 23 -6 30t-23 7h-40q-10 0 -10 10q0 3 2.5 6t7.5 3q16 0 28 -0.5t22.5 -0.5h21.5h26q29 0 43.5 2.5t19.5 2.5q3 0 3 -9v-392h70zM258 461
l-102 127h81l57 -127h-36z" />
    <glyph glyph-name="uacute" unicode="&#xfa;" horiz-adv-x="558" 
d="M535 17q5 0 7.5 -3t2.5 -6q0 -10 -10 -10q-11 1 -28 1.5t-33 0.5q-22 0 -47 -1t-35 -1q-13 0 -18 5q-4 4 -4 22v71q0 -2 -7 -19.5t-23.5 -37.5t-44.5 -36t-71 -16q-41 0 -67.5 16t-42 41t-21.5 55.5t-6 58.5v200q0 23 -6 30t-23 7h-40q-10 0 -10 10q0 3 2.5 6t7.5 3
q16 0 28 -0.5t22.5 -0.5h21.5h26q29 0 43.5 1t18.5 1t4 -8v-292q0 -45 13 -76.5t52 -31.5q26 0 48.5 14.5t39 39t26 56t9.5 66.5v175q0 23 -6 30t-23 7h-40q-10 0 -10 10q0 3 2.5 6t7.5 3q16 0 28 -0.5t22.5 -0.5h21.5h26q29 0 43.5 2.5t19.5 2.5q3 0 3 -9v-392h70zM269 461
h-35l57 127h80z" />
    <glyph glyph-name="ucircumflex" unicode="&#xfb;" horiz-adv-x="558" 
d="M535 17q5 0 7.5 -3t2.5 -6q0 -10 -10 -10q-11 1 -28 1.5t-33 0.5q-22 0 -47 -1t-35 -1q-13 0 -18 5q-4 4 -4 22v71q0 -2 -7 -19.5t-23.5 -37.5t-44.5 -36t-71 -16q-41 0 -67.5 16t-42 41t-21.5 55.5t-6 58.5v200q0 23 -6 30t-23 7h-40q-10 0 -10 10q0 3 2.5 6t7.5 3
q16 0 28 -0.5t22.5 -0.5h21.5h26q29 0 43.5 1t18.5 1t4 -8v-292q0 -45 13 -76.5t52 -31.5q26 0 48.5 14.5t39 39t26 56t9.5 66.5v175q0 23 -6 30t-23 7h-40q-10 0 -10 10q0 3 2.5 6t7.5 3q16 0 28 -0.5t22.5 -0.5h21.5h26q29 0 43.5 2.5t19.5 2.5q3 0 3 -9v-392h70zM408 474
l-14 -13l-131 87l-131 -87l-14 13l132 119h26z" />
    <glyph glyph-name="udieresis" unicode="&#xfc;" horiz-adv-x="558" 
d="M535 17q5 0 7.5 -3t2.5 -6q0 -10 -10 -10q-11 1 -28 1.5t-33 0.5q-22 0 -47 -1t-35 -1q-13 0 -18 5q-4 4 -4 22v71q0 -2 -7 -19.5t-23.5 -37.5t-44.5 -36t-71 -16q-41 0 -67.5 16t-42 41t-21.5 55.5t-6 58.5v200q0 23 -6 30t-23 7h-40q-10 0 -10 10q0 3 2.5 6t7.5 3
q16 0 28 -0.5t22.5 -0.5h21.5h26q29 0 43.5 1t18.5 1t4 -8v-292q0 -45 13 -76.5t52 -31.5q26 0 48.5 14.5t39 39t26 56t9.5 66.5v175q0 23 -6 30t-23 7h-40q-10 0 -10 10q0 3 2.5 6t7.5 3q16 0 28 -0.5t22.5 -0.5h21.5h26q29 0 43.5 2.5t19.5 2.5q3 0 3 -9v-392h70zM403 513
q0 -22 -15.5 -37t-37.5 -15t-37.5 15t-15.5 37t15.5 37.5t37.5 15.5t37.5 -15.5t15.5 -37.5zM212 513q0 -22 -15.5 -37t-37.5 -15t-37.5 15t-15.5 37t15.5 37.5t37.5 15.5t37.5 -15.5t15.5 -37.5z" />
    <glyph glyph-name="yacute" unicode="&#xfd;" horiz-adv-x="498" 
d="M85 347q-9 17 -16 27t-13.5 14.5t-12.5 5.5t-13 1h-30q-3 0 -6 2.5t-3 7.5t3 7t6 2q11 0 28.5 -0.5t35.5 -0.5h35h28h63t44 1q9 0 9 -9q0 -10 -9 -10h-32q-13 0 -20 -1.5t-7 -9.5q0 -5 2 -14t10 -23l119 -231l84 216q5 12 9 25t4 22q0 12 -5.5 14t-21.5 2h-35
q-3 0 -6.5 2.5t-3.5 7.5t3.5 7t6.5 2q22 -1 41 -1h42q38 0 52 0.5t20 0.5q3 0 6 -2t3 -7t-3.5 -7.5t-5.5 -2.5h-11q-15 0 -24.5 -0.5t-16 -4t-11.5 -11.5t-11 -22l-134 -340q-29 -72 -46.5 -116t-32.5 -67t-30 -30.5t-37 -7.5q-26 0 -43.5 13t-17.5 39q0 23 14 33.5t31 10.5
t30.5 -12t13.5 -32q0 -10 -2.5 -14.5t-2.5 -6.5q0 -4 6 -4q9 0 18.5 14t20.5 38.5t23.5 57.5t28.5 71zM301 461h-35l57 127h80z" />
    <glyph glyph-name="thorn" unicode="&#xfe;" horiz-adv-x="548" 
d="M242 -221q10 0 10 -10q0 -9 -10 -9q-16 0 -29 0.5t-25.5 1t-27.5 0.5h-34h-35t-28 -0.5l-26 -1t-29 -0.5q-11 0 -11 9q0 10 11 10h69v934h-69q-11 0 -11 10q0 9 11 9q11 -1 27 -1h34h21.5t24 0.5t20.5 0.5h12q5 0 11.5 -0.5t9.5 -3.5q4 -4 4 -22v-344q14 19 32 35
q16 14 39.5 25t55.5 11q52 0 91.5 -18t66 -49t40 -72.5t13.5 -87.5q0 -48 -16 -88t-44.5 -69.5t-67 -45.5t-83.5 -16q-35 0 -58.5 11.5t-38.5 26t-22 27.5t-8 16v-289h70zM172 159q0 -42 11.5 -71t29 -47.5t39 -26.5t42.5 -8q38 0 61 14.5t35 41t16 63.5t4 81q0 29 -3 65.5
t-15 68t-35 53t-63 21.5q-33 0 -56.5 -13.5t-37.5 -29.5q-18 -19 -28 -43v-169z" />
    <glyph glyph-name="ydieresis" unicode="&#xff;" horiz-adv-x="498" 
d="M85 347q-9 17 -16 27t-13.5 14.5t-12.5 5.5t-13 1h-30q-3 0 -6 2.5t-3 7.5t3 7t6 2q11 0 28.5 -0.5t35.5 -0.5h35h28h63t44 1q9 0 9 -9q0 -10 -9 -10h-32q-13 0 -20 -1.5t-7 -9.5q0 -5 2 -14t10 -23l119 -231l84 216q5 12 9 25t4 22q0 12 -5.5 14t-21.5 2h-35
q-3 0 -6.5 2.5t-3.5 7.5t3.5 7t6.5 2q22 -1 41 -1h42q38 0 52 0.5t20 0.5q3 0 6 -2t3 -7t-3.5 -7.5t-5.5 -2.5h-11q-15 0 -24.5 -0.5t-16 -4t-11.5 -11.5t-11 -22l-134 -340q-29 -72 -46.5 -116t-32.5 -67t-30 -30.5t-37 -7.5q-26 0 -43.5 13t-17.5 39q0 23 14 33.5t31 10.5
t30.5 -12t13.5 -32q0 -10 -2.5 -14.5t-2.5 -6.5q0 -4 6 -4q9 0 18.5 14t20.5 38.5t23.5 57.5t28.5 71zM229 513q0 -22 -15.5 -37t-38.5 -15q-21 0 -36.5 15t-15.5 37t15.5 37.5t36.5 15.5q23 0 38.5 -15.5t15.5 -37.5zM420 513q0 -22 -15.5 -37t-38.5 -15q-21 0 -36.5 15
t-15.5 37t15.5 37.5t36.5 15.5q23 0 38.5 -15.5t15.5 -37.5z" />
    <glyph glyph-name="Amacron" unicode="&#x100;" horiz-adv-x="678" 
d="M689 16q5 0 7.5 -3t2.5 -6q0 -10 -10 -10q-22 0 -39 0.5l-34 1t-35.5 1t-43.5 0.5q-63 0 -103.5 -1.5t-47.5 -1.5q-10 0 -12 3t-2 6q0 10 10 10h61q22 0 32 3t10 17q0 6 -1.5 12t-4.5 14l-73 200h-221l-40 -120q-8 -27 -13.5 -47.5t-5.5 -36.5q0 -42 50 -42h37
q5 0 7.5 -3t2.5 -6q0 -10 -10 -10q-19 0 -33 0.5t-26.5 1t-25.5 1t-31 0.5q-45 0 -69 -1.5t-44 -1.5q-11 0 -11 10q0 3 3 6t8 3h17q45 0 70.5 18t39.5 61l204 604q5 15 9.5 24.5t10.5 9.5q4 0 6.5 -3t7.5 -15l234 -639q7 -20 12.5 -31.5t11 -17.5t11 -8.5t11.5 -2.5h60z
M291 578l-99 -297h207zM187 779v28h295v-28h-295z" />
    <glyph glyph-name="amacron" unicode="&#x101;" horiz-adv-x="492" 
d="M402 108q0 -28 0.5 -46t3.5 -28.5t9.5 -15t18.5 -4.5q22 0 26 10t4 21q0 2 1 7.5t9 5.5q7 0 8 -5.5t1 -7.5q0 -10 -2.5 -19.5t-11 -16.5t-24 -11.5t-41.5 -4.5q-37 0 -62 12.5t-33 47.5q-32 -35 -66.5 -50.5t-72.5 -15.5q-59 0 -97.5 32.5t-38.5 89.5q0 31 12 58.5
t34.5 48.5t55 33t74.5 12q38 0 60.5 -9.5t36.5 -22.5v57q0 31 -1.5 55t-10 40.5t-27.5 24.5t-53 8q-30 0 -49.5 -4.5t-31 -10.5t-16 -13t-4.5 -11v-2q0 -1 1 -1q2 0 4 1t9 1q22 0 34 -13t12 -31q0 -21 -13 -33t-32 -12q-20 0 -35 14t-15 43q0 15 5.5 31.5t21 29.5t42.5 21.5
t70 8.5q28 0 60.5 -5t60 -18t45.5 -36t18 -59v-207zM307 208q-15 20 -36.5 27.5t-44.5 7.5q-27 0 -45 -9.5t-28.5 -24.5t-14.5 -34.5t-4 -40.5q0 -54 22.5 -84.5t62.5 -30.5q30 0 51.5 16.5t36.5 39.5v133zM80 480v28h295v-28h-295z" />
    <glyph glyph-name="Abreve" unicode="&#x102;" horiz-adv-x="678" 
d="M689 16q5 0 7.5 -3t2.5 -6q0 -10 -10 -10q-22 0 -39 0.5l-34 1t-35.5 1t-43.5 0.5q-63 0 -103.5 -1.5t-47.5 -1.5q-10 0 -12 3t-2 6q0 10 10 10h61q22 0 32 3t10 17q0 6 -1.5 12t-4.5 14l-73 200h-221l-40 -120q-8 -27 -13.5 -47.5t-5.5 -36.5q0 -42 50 -42h37
q5 0 7.5 -3t2.5 -6q0 -10 -10 -10q-19 0 -33 0.5t-26.5 1t-25.5 1t-31 0.5q-45 0 -69 -1.5t-44 -1.5q-11 0 -11 10q0 3 3 6t8 3h17q45 0 70.5 18t39.5 61l204 604q5 15 9.5 24.5t10.5 9.5q4 0 6.5 -3t7.5 -15l234 -639q7 -20 12.5 -31.5t11 -17.5t11 -8.5t11.5 -2.5h60z
M291 578l-99 -297h207zM458 883q0 -14 -3.5 -35t-16 -40.5t-37 -33.5t-67.5 -14t-68 14t-37.5 33.5t-16 40.5t-3.5 35q0 12 2 15.5t8 3.5q5 0 7 -3.5t2 -15.5q0 -11 1.5 -27.5t11.5 -31.5t31.5 -25.5t61.5 -10.5q39 0 60.5 10.5t31.5 25.5t11.5 31.5t1.5 27.5q0 12 2 15.5
t7 3.5q6 0 8 -3.5t2 -15.5z" />
    <glyph glyph-name="abreve" unicode="&#x103;" horiz-adv-x="492" 
d="M402 108q0 -28 0.5 -46t3.5 -28.5t9.5 -15t18.5 -4.5q22 0 26 10t4 21q0 2 1 7.5t9 5.5q7 0 8 -5.5t1 -7.5q0 -10 -2.5 -19.5t-11 -16.5t-24 -11.5t-41.5 -4.5q-37 0 -62 12.5t-33 47.5q-32 -35 -66.5 -50.5t-72.5 -15.5q-59 0 -97.5 32.5t-38.5 89.5q0 31 12 58.5
t34.5 48.5t55 33t74.5 12q38 0 60.5 -9.5t36.5 -22.5v57q0 31 -1.5 55t-10 40.5t-27.5 24.5t-53 8q-30 0 -49.5 -4.5t-31 -10.5t-16 -13t-4.5 -11v-2q0 -1 1 -1q2 0 4 1t9 1q22 0 34 -13t12 -31q0 -21 -13 -33t-32 -12q-20 0 -35 14t-15 43q0 15 5.5 31.5t21 29.5t42.5 21.5
t70 8.5q28 0 60.5 -5t60 -18t45.5 -36t18 -59v-207zM307 208q-15 20 -36.5 27.5t-44.5 7.5q-27 0 -45 -9.5t-28.5 -24.5t-14.5 -34.5t-4 -40.5q0 -54 22.5 -84.5t62.5 -30.5q30 0 51.5 16.5t36.5 39.5v133zM355 584q0 -14 -3.5 -35t-16.5 -40.5t-37.5 -33.5t-67.5 -14
t-67.5 14t-37 33.5t-16 40.5t-3.5 35q0 11 2 15t7 4q6 0 8 -4t2 -15t1.5 -27.5t11.5 -31.5t31.5 -25.5t60.5 -10.5q40 0 61.5 10.5t31.5 25.5t11.5 31.5t1.5 27.5t2 15t7 4q6 0 8 -4t2 -15z" />
    <glyph glyph-name="Aogonek" unicode="&#x104;" horiz-adv-x="678" 
d="M689 16q5 0 7.5 -3t2.5 -6q0 -10 -10 -10q-18 0 -33 0.5t-28.5 1t-27.5 1t-31 0.5q-37 -22 -53.5 -50.5t-16.5 -58.5q0 -20 7.5 -39t22 -33.5t35 -23t46.5 -8.5t41.5 6.5t18.5 6.5t3 -3q0 -4 -7 -8t-18 -7.5t-23 -5.5t-24.5 -3.5t-21.5 -1.5q-32 0 -55.5 8.5t-40 22.5
t-24.5 32.5t-8 38.5q0 34 23 69t70 58h-7q-63 0 -103.5 -1.5t-47.5 -1.5q-10 0 -12 3t-2 6q0 10 10 10h61q22 0 32 3t10 17q0 6 -1.5 12t-4.5 14l-73 200h-221l-40 -120q-8 -27 -13.5 -47.5t-5.5 -36.5q0 -42 50 -42h37q5 0 7.5 -3t2.5 -6q0 -10 -10 -10q-19 0 -33 0.5
t-26.5 1t-25.5 1t-31 0.5q-45 0 -69 -1.5t-44 -1.5q-11 0 -11 10q0 3 3 6t8 3h17q45 0 70.5 18t39.5 61l204 604q5 15 9.5 24.5t10.5 9.5q4 0 6.5 -3t7.5 -15l234 -639q7 -20 12.5 -31.5t11 -17.5t11 -8.5t11.5 -2.5h60zM291 578l-99 -297h207z" />
    <glyph glyph-name="aogonek" unicode="&#x105;" horiz-adv-x="492" 
d="M402 108q0 -28 0.5 -46t3.5 -28.5t9.5 -15t18.5 -4.5q22 0 26 10t4 21q0 2 1 7.5t9 5.5q7 0 8 -5.5t1 -7.5q0 -10 -2.5 -19.5t-11 -16.5t-24 -11.5t-41.5 -4.5q-18 0 -33 3q-32 -21 -47 -48.5t-15 -55.5q0 -20 7.5 -39t22 -33.5t35 -23t46.5 -8.5t41.5 6.5t18.5 6.5t3 -3
q0 -4 -7 -8t-18 -7.5t-23 -5.5t-24 -3.5t-22 -1.5q-63 0 -95 30t-32 72q0 34 22 68.5t70 57.5q-17 7 -28.5 19.5t-16.5 33.5q-32 -35 -66.5 -50.5t-72.5 -15.5q-59 0 -97.5 32.5t-38.5 89.5q0 31 12 58.5t34.5 48.5t55 33t74.5 12q38 0 60.5 -9.5t36.5 -22.5v57
q0 31 -1.5 55t-10 40.5t-27.5 24.5t-53 8q-30 0 -49.5 -4.5t-31 -10.5t-16 -13t-4.5 -11v-2q0 -1 1 -1q2 0 4 1t9 1q22 0 34 -13t12 -31q0 -21 -13 -33t-32 -12q-20 0 -35 14t-15 43q0 15 5.5 31.5t21 29.5t42.5 21.5t70 8.5q28 0 60.5 -5t60 -18t45.5 -36t18 -59v-207z
M307 208q-15 20 -36.5 27.5t-44.5 7.5q-27 0 -45 -9.5t-28.5 -24.5t-14.5 -34.5t-4 -40.5q0 -54 22.5 -84.5t62.5 -30.5q30 0 51.5 16.5t36.5 39.5v133z" />
    <glyph glyph-name="Cacute" unicode="&#x106;" horiz-adv-x="747" 
d="M701 161q-45 -85 -111.5 -129.5t-168.5 -44.5q-83 0 -151 29t-117 79.5t-76 118.5t-27 146q0 73 24.5 140.5t70 119t110.5 82.5t146 31q43 0 81.5 -11t84.5 -40q12 -8 19.5 -12t15.5 -4q5 0 9.5 3.5t4.5 11.5q0 6 -1.5 14t-1.5 15q0 10 11 10q9 0 13 -16q4 -19 7.5 -33
t9.5 -30.5t16 -40t26 -60.5q2 -4 2 -7q0 -9 -10 -9q-5 0 -7 3.5t-7 10.5q-32 49 -65.5 82.5t-67.5 54.5t-68.5 30t-68.5 9q-67 0 -114.5 -30.5t-77.5 -79t-44 -110.5t-14 -125q0 -72 17 -137.5t51.5 -115.5t87 -80t122.5 -30q83 0 147.5 42.5t104.5 118.5q4 8 8 8q2 0 6 -2
q5 -3 5 -7q0 -3 -2 -5zM402 760h-35l57 127h81z" />
    <glyph glyph-name="cacute" unicode="&#x107;" horiz-adv-x="467" 
d="M430 105q-19 -58 -63 -88t-108 -30q-43 0 -83 14t-70.5 41t-49 67t-18.5 93q0 45 14.5 86.5t44 74t72.5 51.5t100 19q45 0 74.5 -10.5t46.5 -26.5t24 -35t7 -35q0 -25 -13.5 -40t-36.5 -15q-18 0 -31.5 11.5t-13.5 32.5t13.5 33t30.5 12q8 0 10.5 -1t4.5 -1t2 4
q0 6 -7 14.5t-20.5 17t-34 14.5t-48.5 6q-78 0 -108.5 -52t-30.5 -147q0 -60 10 -100.5t28 -64.5t42.5 -34t53.5 -10q36 0 61.5 12t42 29t26 36t14.5 34q4 12 11 12q8 0 8 -6q0 -4 -5 -18zM234 461h-35l57 127h80z" />
    <glyph glyph-name="Ccircumflex" unicode="&#x108;" horiz-adv-x="747" 
d="M701 161q-45 -85 -111.5 -129.5t-168.5 -44.5q-83 0 -151 29t-117 79.5t-76 118.5t-27 146q0 73 24.5 140.5t70 119t110.5 82.5t146 31q43 0 81.5 -11t84.5 -40q12 -8 19.5 -12t15.5 -4q5 0 9.5 3.5t4.5 11.5q0 6 -1.5 14t-1.5 15q0 10 11 10q9 0 13 -16q4 -19 7.5 -33
t9.5 -30.5t16 -40t26 -60.5q2 -4 2 -7q0 -9 -10 -9q-5 0 -7 3.5t-7 10.5q-32 49 -65.5 82.5t-67.5 54.5t-68.5 30t-68.5 9q-67 0 -114.5 -30.5t-77.5 -79t-44 -110.5t-14 -125q0 -72 17 -137.5t51.5 -115.5t87 -80t122.5 -30q83 0 147.5 42.5t104.5 118.5q4 8 8 8q2 0 6 -2
q5 -3 5 -7q0 -3 -2 -5zM533 773l-14 -13l-131 87l-131 -87l-14 13l132 119h26z" />
    <glyph glyph-name="ccircumflex" unicode="&#x109;" horiz-adv-x="467" 
d="M430 105q-19 -58 -63 -88t-108 -30q-43 0 -83 14t-70.5 41t-49 67t-18.5 93q0 45 14.5 86.5t44 74t72.5 51.5t100 19q45 0 74.5 -10.5t46.5 -26.5t24 -35t7 -35q0 -25 -13.5 -40t-36.5 -15q-18 0 -31.5 11.5t-13.5 32.5t13.5 33t30.5 12q8 0 10.5 -1t4.5 -1t2 4
q0 6 -7 14.5t-20.5 17t-34 14.5t-48.5 6q-78 0 -108.5 -52t-30.5 -147q0 -60 10 -100.5t28 -64.5t42.5 -34t53.5 -10q36 0 61.5 12t42 29t26 36t14.5 34q4 12 11 12q8 0 8 -6q0 -4 -5 -18zM386 474l-15 -13l-131 87l-131 -87l-14 13l132 119h27z" />
    <glyph glyph-name="Cdotaccent" unicode="&#x10a;" horiz-adv-x="747" 
d="M701 161q-45 -85 -111.5 -129.5t-168.5 -44.5q-83 0 -151 29t-117 79.5t-76 118.5t-27 146q0 73 24.5 140.5t70 119t110.5 82.5t146 31q43 0 81.5 -11t84.5 -40q12 -8 19.5 -12t15.5 -4q5 0 9.5 3.5t4.5 11.5q0 6 -1.5 14t-1.5 15q0 10 11 10q9 0 13 -16q4 -19 7.5 -33
t9.5 -30.5t16 -40t26 -60.5q2 -4 2 -7q0 -9 -10 -9q-5 0 -7 3.5t-7 10.5q-32 49 -65.5 82.5t-67.5 54.5t-68.5 30t-68.5 9q-67 0 -114.5 -30.5t-77.5 -79t-44 -110.5t-14 -125q0 -72 17 -137.5t51.5 -115.5t87 -80t122.5 -30q83 0 147.5 42.5t104.5 118.5q4 8 8 8q2 0 6 -2
q5 -3 5 -7q0 -3 -2 -5zM388 767q-23 0 -39 16t-16 39t16 39t39 16t39 -16t16 -39t-16 -39t-39 -16z" />
    <glyph glyph-name="cdotaccent" unicode="&#x10b;" horiz-adv-x="467" 
d="M430 105q-19 -58 -63 -88t-108 -30q-43 0 -83 14t-70.5 41t-49 67t-18.5 93q0 45 14.5 86.5t44 74t72.5 51.5t100 19q45 0 74.5 -10.5t46.5 -26.5t24 -35t7 -35q0 -25 -13.5 -40t-36.5 -15q-18 0 -31.5 11.5t-13.5 32.5t13.5 33t30.5 12q8 0 10.5 -1t4.5 -1t2 4
q0 6 -7 14.5t-20.5 17t-34 14.5t-48.5 6q-78 0 -108.5 -52t-30.5 -147q0 -60 10 -100.5t28 -64.5t42.5 -34t53.5 -10q36 0 61.5 12t42 29t26 36t14.5 34q4 12 11 12q8 0 8 -6q0 -4 -5 -18zM240 467q-23 0 -39 16t-16 39t16 39.5t39 16.5t39 -16.5t16 -39.5t-16 -39t-39 -16z
" />
    <glyph glyph-name="Ccaron" unicode="&#x10c;" horiz-adv-x="747" 
d="M701 161q-45 -85 -111.5 -129.5t-168.5 -44.5q-83 0 -151 29t-117 79.5t-76 118.5t-27 146q0 73 24.5 140.5t70 119t110.5 82.5t146 31q43 0 81.5 -11t84.5 -40q12 -8 19.5 -12t15.5 -4q5 0 9.5 3.5t4.5 11.5q0 6 -1.5 14t-1.5 15q0 10 11 10q9 0 13 -16q4 -19 7.5 -33
t9.5 -30.5t16 -40t26 -60.5q2 -4 2 -7q0 -9 -10 -9q-5 0 -7 3.5t-7 10.5q-32 49 -65.5 82.5t-67.5 54.5t-68.5 30t-68.5 9q-67 0 -114.5 -30.5t-77.5 -79t-44 -110.5t-14 -125q0 -72 17 -137.5t51.5 -115.5t87 -80t122.5 -30q83 0 147.5 42.5t104.5 118.5q4 8 8 8q2 0 6 -2
q5 -3 5 -7q0 -3 -2 -5zM533 879l-132 -119h-26l-132 119l14 13l131 -87l131 87z" />
    <glyph glyph-name="ccaron" unicode="&#x10d;" horiz-adv-x="467" 
d="M430 105q-19 -58 -63 -88t-108 -30q-43 0 -83 14t-70.5 41t-49 67t-18.5 93q0 45 14.5 86.5t44 74t72.5 51.5t100 19q45 0 74.5 -10.5t46.5 -26.5t24 -35t7 -35q0 -25 -13.5 -40t-36.5 -15q-18 0 -31.5 11.5t-13.5 32.5t13.5 33t30.5 12q8 0 10.5 -1t4.5 -1t2 4
q0 6 -7 14.5t-20.5 17t-34 14.5t-48.5 6q-78 0 -108.5 -52t-30.5 -147q0 -60 10 -100.5t28 -64.5t42.5 -34t53.5 -10q36 0 61.5 12t42 29t26 36t14.5 34q4 12 11 12q8 0 8 -6q0 -4 -5 -18zM386 579l-132 -118h-27l-132 118l14 14l131 -88l131 88z" />
    <glyph glyph-name="Dcaron" unicode="&#x10e;" horiz-adv-x="808" 
d="M142 696h-98q-10 0 -10 10q0 4 2 6.5t10 2.5q3 0 25.5 -0.5t51 -1t55.5 -1t39 -0.5t31.5 0.5t41.5 1t42.5 1t33.5 0.5q21 0 58 -3t80 -14t87.5 -33.5t80.5 -62.5t59 -99t23 -144q0 -89 -25.5 -150.5t-65.5 -101.5t-89.5 -62t-96.5 -32t-87 -12t-62 -2q-46 0 -75.5 0.5
t-58.5 0.5q-24 0 -48 -0.5t-44.5 -1t-35.5 -1t-22 -0.5q-10 0 -10 10q0 3 2.5 6t7.5 3h98v680zM242 19q37 0 81.5 1.5t89.5 11t87.5 30t75.5 58t53 95.5t20 143q0 84 -19.5 142t-52.5 95.5t-75.5 58t-87.5 30t-90 11t-82 1.5v-677zM548 879l-133 -119h-26l-132 119l14 13
l131 -87l131 87z" />
    <glyph glyph-name="dcaron" unicode="&#x10f;" 
d="M540 17q5 0 7.5 -3t2.5 -6q0 -10 -10 -10q-18 0 -23.5 0.5t-7.5 1t-5 0.5h-15q-35 0 -57.5 -1t-33.5 -1q-14 0 -19 5q-4 4 -4 22v24q-1 -2 -8.5 -11.5t-23 -21t-39.5 -20.5t-58 -9q-44 0 -82 17t-66 47t-44 71t-16 88q0 45 14 85t40.5 71t63.5 49t82 18q38 0 63.5 -11
t42.5 -25q19 -16 31 -35v313q0 24 -6 30.5t-23 6.5h-40q-11 0 -11 10q0 9 11 9h98q29 0 43.5 2t18.5 2t4 -8v-710h70zM375 328q-11 24 -28 43q-14 16 -37.5 29.5t-56.5 13.5q-39 0 -61.5 -19t-34.5 -49.5t-15.5 -68t-3.5 -73.5q0 -39 4 -75t16 -63t35.5 -43.5t62.5 -16.5
q40 0 71.5 18.5t47.5 60.5v243zM553 501q-12 0 -12 9q0 8 7 9.5t15 3.5q28 7 48 21t32.5 30.5t18 32.5t5.5 27q0 10 -4 18.5t-10 8.5q-5 0 -9 -5.5t-10 -12t-15 -12t-24 -5.5q-24 0 -39 14t-15 40q0 29 18.5 44t43.5 15q15 0 30 -6t27 -17.5t19.5 -29.5t7.5 -42
q0 -36 -16.5 -63t-38.5 -44.5t-44.5 -26.5t-34.5 -9z" />
    <glyph glyph-name="Dcroat" unicode="&#x110;" horiz-adv-x="807" 
d="M142 333h-50q-15 0 -23 -1.5t-14 -7.5q-4 -5 -6.5 -8.5t-4.5 -3.5t-2 2t5 19l12 40q2 7 4.5 8t7.5 1h71v314h-98q-11 0 -11 10q0 9 13 9q3 0 25.5 -0.5t51 -1t55.5 -1t39 -0.5t31.5 0.5t41.5 1t42.5 1t33.5 0.5q21 0 58 -3t80 -14t87.5 -33.5t80.5 -62.5t59 -99t23 -144
q0 -89 -25.5 -150.5t-65.5 -101.5t-89.5 -62t-97 -32t-87.5 -12t-61 -2q-46 0 -75.5 0.5t-58.5 0.5q-25 0 -48.5 -0.5t-44 -1t-35.5 -1t-22 -0.5q-11 0 -11 10q0 3 3 6t8 3h98v317zM242 333v-314q37 0 81.5 1.5t89.5 11t87.5 30t75.5 58t53 95.5t20 143q0 84 -19.5 142
t-52.5 95.5t-75.5 58t-87.5 30t-90 11t-82 1.5v-314h129q15 0 23 2t14 7q4 5 6.5 9t4.5 4t2 -3q0 -2 -5 -19l-12 -40q-2 -7 -4.5 -8t-6.5 -1h-151z" />
    <glyph glyph-name="dcroat" unicode="&#x111;" 
d="M540 17q5 0 7.5 -3t2.5 -6q0 -10 -10 -10q-18 0 -23.5 0.5t-7.5 1t-5 0.5h-15q-35 0 -57.5 -1t-33.5 -1q-14 0 -19 5q-4 4 -4 22v23q-2 -2 -9.5 -12t-23.5 -21t-39.5 -19.5t-56.5 -8.5q-44 0 -82 17t-66 47t-44 71t-16 88q0 45 14 85t40.5 71t63.5 49t82 18
q38 0 63.5 -11t42.5 -25q19 -16 31 -35v217h-167v19h167v78q0 24 -6 30.5t-23 6.5h-40q-11 0 -11 10q0 9 11 9q16 0 28 -0.5t22.5 -0.5h21.5h26q29 0 43.5 2.5t18.5 2.5t4 -8v-130h71v-19h-71v-562h70zM375 328q-11 24 -28 43q-14 16 -37.5 29.5t-56.5 13.5q-39 0 -61.5 -19
t-34.5 -49.5t-15.5 -68t-3.5 -73.5q0 -39 4 -75t16 -63t35.5 -43.5t62.5 -16.5q40 0 71.5 18.5t47.5 60.5v243z" />
    <glyph glyph-name="Emacron" unicode="&#x112;" horiz-adv-x="659" 
d="M399 16q55 0 89 14t52.5 37t26.5 53t13 62q1 7 2 12t8 5t8 -4.5t1 -11.5q-1 -27 -5.5 -66t-4.5 -88v-16t1 -16q-3 0 -20 0.5t-61 1t-120.5 1t-198.5 0.5q-21 0 -44.5 -0.5t-43.5 -1t-36 -1t-22 -0.5q-11 0 -11 10q0 3 3 6t8 3h98v680h-98q-11 0 -11 10q0 9 11 9
q39 -1 72 -2t74 -1h141.5h101.5t69.5 0.5t44.5 0.5t26.5 0.5t16.5 1.5q0 -14 0.5 -39.5t2.5 -41.5q2 -23 3 -39.5t1.5 -28t1 -19.5t0.5 -14t-1 -11t-8 -5t-8 4t-2 12q-2 31 -7 60.5t-23.5 52t-56 36.5t-103.5 14h-149v-290h45q46 0 70 10t35 26t13 36.5t2 40.5q0 16 11 16
q7 0 8 -4.5t1 -10.5q0 -33 -2.5 -59t-2.5 -65t2.5 -73.5t2.5 -63.5q0 -7 -1 -11.5t-8 -4.5q-8 0 -9 6t-1 10q-3 33 -6.5 57.5t-15.5 40t-35 23t-64 7.5h-45v-371h158zM182 779v28h294v-28h-294z" />
    <glyph glyph-name="emacron" unicode="&#x113;" horiz-adv-x="471" 
d="M138 241q0 -55 3 -98.5t15 -74t35.5 -46.5t64.5 -16q20 0 42.5 5t43.5 18.5t39.5 36t30.5 57.5q2 4 4.5 8t8.5 4q7 0 7 -8q0 -2 -1 -4.5t-4 -11.5q-20 -58 -66.5 -91t-109.5 -33q-42 0 -80.5 14.5t-68 42t-47 68t-17.5 92.5q0 46 16 87.5t44.5 73t68 50t86.5 18.5
q37 0 67 -13t52.5 -35t37.5 -51t23 -61q1 -3 2.5 -10.5t1.5 -11.5q0 -7 -4 -8.5t-10 -1.5h-285zM329 260q0 32 -2.5 60t-11 49t-25.5 33t-46 12q-53 0 -77.5 -39.5t-27.5 -114.5h190zM93 480v28h295v-28h-295z" />
    <glyph glyph-name="Ebreve" unicode="&#x114;" horiz-adv-x="659" 
d="M399 16q55 0 89 14t52.5 37t26.5 53t13 62q1 7 2 12t8 5t8 -4.5t1 -11.5q-1 -27 -5.5 -66t-4.5 -88v-16t1 -16q-3 0 -20 0.5t-61 1t-120.5 1t-198.5 0.5q-21 0 -44.5 -0.5t-43.5 -1t-36 -1t-22 -0.5q-11 0 -11 10q0 3 3 6t8 3h98v680h-98q-11 0 -11 10q0 9 11 9
q39 -1 72 -2t74 -1h141.5h101.5t69.5 0.5t44.5 0.5t26.5 0.5t16.5 1.5q0 -14 0.5 -39.5t2.5 -41.5q2 -23 3 -39.5t1.5 -28t1 -19.5t0.5 -14t-1 -11t-8 -5t-8 4t-2 12q-2 31 -7 60.5t-23.5 52t-56 36.5t-103.5 14h-149v-290h45q46 0 70 10t35 26t13 36.5t2 40.5q0 16 11 16
q7 0 8 -4.5t1 -10.5q0 -33 -2.5 -59t-2.5 -65t2.5 -73.5t2.5 -63.5q0 -7 -1 -11.5t-8 -4.5q-8 0 -9 6t-1 10q-3 33 -6.5 57.5t-15.5 40t-35 23t-64 7.5h-45v-371h158zM482 883q0 -14 -3.5 -35t-16.5 -40.5t-37.5 -33.5t-67.5 -14t-67.5 14t-37 33.5t-16 40.5t-3.5 35
q0 12 2 15.5t7 3.5q6 0 8 -3.5t2 -15.5q0 -11 1.5 -27.5t11.5 -31.5t31.5 -25.5t60.5 -10.5q40 0 61.5 10.5t31.5 25.5t11.5 31.5t1.5 27.5q0 12 2 15.5t7 3.5q6 0 8 -3.5t2 -15.5z" />
    <glyph glyph-name="ebreve" unicode="&#x115;" horiz-adv-x="471" 
d="M138 241q0 -55 3 -98.5t15 -74t35.5 -46.5t64.5 -16q20 0 42.5 5t43.5 18.5t39.5 36t30.5 57.5q2 4 4.5 8t8.5 4q7 0 7 -8q0 -2 -1 -4.5t-4 -11.5q-20 -58 -66.5 -91t-109.5 -33q-42 0 -80.5 14.5t-68 42t-47 68t-17.5 92.5q0 46 16 87.5t44.5 73t68 50t86.5 18.5
q37 0 67 -13t52.5 -35t37.5 -51t23 -61q1 -3 2.5 -10.5t1.5 -11.5q0 -7 -4 -8.5t-10 -1.5h-285zM329 260q0 32 -2.5 60t-11 49t-25.5 33t-46 12q-53 0 -77.5 -39.5t-27.5 -114.5h190zM360 584q0 -14 -3.5 -35t-16 -40.5t-37 -33.5t-67.5 -14t-68 14t-37.5 33.5t-16 40.5
t-3.5 35q0 11 2 15t8 4q5 0 7 -4t2 -15t1.5 -27.5t11.5 -31.5t31.5 -25.5t61.5 -10.5q39 0 60.5 10.5t31.5 25.5t11.5 31.5t1.5 27.5t2 15t8 4q5 0 7 -4t2 -15z" />
    <glyph glyph-name="Edotaccent" unicode="&#x116;" horiz-adv-x="659" 
d="M399 16q55 0 89 14t52.5 37t26.5 53t13 62q1 7 2 12t8 5t8 -4.5t1 -11.5q-1 -27 -5.5 -66t-4.5 -88v-16t1 -16q-3 0 -20 0.5t-61 1t-120.5 1t-198.5 0.5q-21 0 -44.5 -0.5t-43.5 -1t-36 -1t-22 -0.5q-11 0 -11 10q0 3 3 6t8 3h98v680h-98q-11 0 -11 10q0 9 11 9
q39 -1 72 -2t74 -1h141.5h101.5t69.5 0.5t44.5 0.5t26.5 0.5t16.5 1.5q0 -14 0.5 -39.5t2.5 -41.5q2 -23 3 -39.5t1.5 -28t1 -19.5t0.5 -14t-1 -11t-8 -5t-8 4t-2 12q-2 31 -7 60.5t-23.5 52t-56 36.5t-103.5 14h-149v-290h45q46 0 70 10t35 26t13 36.5t2 40.5q0 16 11 16
q7 0 8 -4.5t1 -10.5q0 -33 -2.5 -59t-2.5 -65t2.5 -73.5t2.5 -63.5q0 -7 -1 -11.5t-8 -4.5q-8 0 -9 6t-1 10q-3 33 -6.5 57.5t-15.5 40t-35 23t-64 7.5h-45v-371h158zM357 767q-23 0 -39 16t-16 39t16 39t39 16t39 -16t16 -39t-16 -39t-39 -16z" />
    <glyph glyph-name="edotaccent" unicode="&#x117;" horiz-adv-x="471" 
d="M138 241q0 -55 3 -98.5t15 -74t35.5 -46.5t64.5 -16q20 0 42.5 5t43.5 18.5t39.5 36t30.5 57.5q2 4 4.5 8t8.5 4q7 0 7 -8q0 -2 -1 -4.5t-4 -11.5q-20 -58 -66.5 -91t-109.5 -33q-42 0 -80.5 14.5t-68 42t-47 68t-17.5 92.5q0 46 16 87.5t44.5 73t68 50t86.5 18.5
q37 0 67 -13t52.5 -35t37.5 -51t23 -61q1 -3 2.5 -10.5t1.5 -11.5q0 -7 -4 -8.5t-10 -1.5h-285zM329 260q0 32 -2.5 60t-11 49t-25.5 33t-46 12q-53 0 -77.5 -39.5t-27.5 -114.5h190zM236 467q-23 0 -39.5 16t-16.5 39t16.5 39.5t39.5 16.5t39 -16.5t16 -39.5t-16 -39
t-39 -16z" />
    <glyph glyph-name="Eogonek" unicode="&#x118;" horiz-adv-x="659" 
d="M190 0q-21 0 -44.5 -0.5t-43.5 -1t-36 -1t-22 -0.5q-11 0 -11 10q0 3 3 6t8 3h98v680h-98q-11 0 -11 10q0 9 11 9q39 -1 72 -2t74 -1h141.5h101.5t69.5 0.5t44.5 0.5t26.5 0.5t16.5 1.5q0 -14 0.5 -39.5t2.5 -41.5q2 -23 3 -39.5t1.5 -28t1 -19.5t0.5 -14t-1 -11t-8 -5
t-8 4t-2 12q-2 31 -7 60.5t-23.5 52t-56 36.5t-103.5 14h-149v-290h45q46 0 70 10t35 26t13 36.5t2 40.5q0 16 11 16q7 0 8 -4.5t1 -10.5q0 -33 -2.5 -59t-2.5 -65t2.5 -73.5t2.5 -63.5q0 -7 -1 -11.5t-8 -4.5q-8 0 -9 6t-1 10q-3 33 -6.5 57.5t-15.5 40t-35 23t-64 7.5h-45
v-371h158q55 0 89 14t52.5 37t26.5 53t13 62q1 7 2 12t8 5t8 -4.5t1 -11.5q-1 -27 -5.5 -66t-4.5 -88v-16t1 -16q-2 0 -8.5 0.5t-21 1t-38 1t-58.5 0.5q-35 -22 -51.5 -50.5t-16.5 -57.5q0 -20 7.5 -39t22 -33.5t35 -23t46.5 -8.5t41.5 6.5t18.5 6.5t3 -3q0 -4 -7 -8
t-18 -7.5t-23 -5.5t-24 -3.5t-22 -1.5q-63 0 -95 30t-32 72q0 33 22 67.5t68 58.5h-249z" />
    <glyph glyph-name="eogonek" unicode="&#x119;" horiz-adv-x="473" 
d="M139 241q0 -55 3 -98.5t15 -74t35.5 -46.5t64.5 -16q20 0 42.5 5t43.5 18.5t39.5 36t30.5 57.5q2 4 4.5 8t8.5 4q7 0 7 -8q0 -2 -1 -4.5t-4 -11.5q-14 -38 -39 -66t-60 -43q-36 -22 -52.5 -50.5t-16.5 -57.5q0 -21 7.5 -39.5t22 -33t35 -23t46.5 -8.5t42 6.5t18 6.5
q3 0 3 -3q0 -4 -6 -8q-7 -4 -18 -7.5t-23.5 -5.5t-24.5 -3.5t-22 -1.5q-62 0 -94.5 30.5t-32.5 71.5q0 29 17 59.5t52 54.5q-14 -3 -30 -3q-42 0 -80.5 14.5t-68 42t-47 68t-17.5 92.5q0 46 16 87.5t44.5 73t68 50t86.5 18.5q37 0 67 -13t52.5 -35t37.5 -51t23 -61
q1 -3 2.5 -10.5t1.5 -11.5q0 -7 -4 -8.5t-10 -1.5h-285zM330 260q0 32 -2.5 60t-11 49t-25.5 33t-46 12q-53 0 -77.5 -39.5t-27.5 -114.5h190z" />
    <glyph glyph-name="Ecaron" unicode="&#x11a;" horiz-adv-x="659" 
d="M399 16q55 0 89 14t52.5 37t26.5 53t13 62q1 7 2 12t8 5t8 -4.5t1 -11.5q-1 -27 -5.5 -66t-4.5 -88v-16t1 -16q-3 0 -20 0.5t-61 1t-120.5 1t-198.5 0.5q-21 0 -44.5 -0.5t-43.5 -1t-36 -1t-22 -0.5q-11 0 -11 10q0 3 3 6t8 3h98v680h-98q-11 0 -11 10q0 9 11 9
q39 -1 72 -2t74 -1h141.5h101.5t69.5 0.5t44.5 0.5t26.5 0.5t16.5 1.5q0 -14 0.5 -39.5t2.5 -41.5q2 -23 3 -39.5t1.5 -28t1 -19.5t0.5 -14t-1 -11t-8 -5t-8 4t-2 12q-2 31 -7 60.5t-23.5 52t-56 36.5t-103.5 14h-149v-290h45q46 0 70 10t35 26t13 36.5t2 40.5q0 16 11 16
q7 0 8 -4.5t1 -10.5q0 -33 -2.5 -59t-2.5 -65t2.5 -73.5t2.5 -63.5q0 -7 -1 -11.5t-8 -4.5q-8 0 -9 6t-1 10q-3 33 -6.5 57.5t-15.5 40t-35 23t-64 7.5h-45v-371h158zM493 879l-132 -119h-27l-132 119l15 13l131 -87l131 87z" />
    <glyph glyph-name="ecaron" unicode="&#x11b;" horiz-adv-x="471" 
d="M138 241q0 -55 3 -98.5t15 -74t35.5 -46.5t64.5 -16q20 0 42.5 5t43.5 18.5t39.5 36t30.5 57.5q2 4 4.5 8t8.5 4q7 0 7 -8q0 -2 -1 -4.5t-4 -11.5q-20 -58 -66.5 -91t-109.5 -33q-42 0 -80.5 14.5t-68 42t-47 68t-17.5 92.5q0 46 16 87.5t44.5 73t68 50t86.5 18.5
q37 0 67 -13t52.5 -35t37.5 -51t23 -61q1 -3 2.5 -10.5t1.5 -11.5q0 -7 -4 -8.5t-10 -1.5h-285zM329 260q0 32 -2.5 60t-11 49t-25.5 33t-46 12q-53 0 -77.5 -39.5t-27.5 -114.5h190zM381 579l-132 -118h-27l-132 118l14 14l132 -88l131 88z" />
    <glyph glyph-name="Gcircumflex" unicode="&#x11c;" horiz-adv-x="781" 
d="M579 305h-98q-10 0 -10 8q0 2 1.5 6t8.5 4q37 -1 71 -2t72 -1q45 0 78 1.5t50 1.5q10 0 10 -10q0 -8 -10 -8h-73v-197q0 -22 -2 -23q-2 -2 -7 -3.5t-10 -4.5q-14 -7 -31.5 -18.5t-30.5 -19.5q-36 -23 -77.5 -37.5t-92.5 -14.5q-64 0 -131 24.5t-122 71.5t-90 116.5
t-35 158.5q0 69 22.5 136t66.5 120t110 86t152 33q44 0 82 -11t84 -40q12 -8 19 -12.5t15 -4.5q14 0 14 16q0 6 -1.5 14t-1.5 14q0 11 11 11q10 0 13 -17q5 -21 9 -35.5t10 -30.5t15.5 -38.5t25.5 -59.5q2 -4 2 -7t-2.5 -6t-7.5 -3t-7.5 4t-6.5 10q-30 48 -62.5 81.5
t-67 54.5t-70.5 30.5t-71 9.5q-67 0 -114 -30.5t-77 -80t-44 -112t-14 -127.5q0 -79 19 -144.5t54.5 -112.5t86.5 -73t114 -26q39 0 66 9t44.5 21t27 25t13.5 22v221zM535 773l-14 -13l-131 87l-131 -87l-14 13l132 119h26z" />
    <glyph glyph-name="gcircumflex" unicode="&#x11d;" horiz-adv-x="471" 
d="M314 45q12 0 33.5 -1.5t41.5 -12t35 -33t15 -64.5q0 -51 -17 -84t-45.5 -52.5t-67 -27.5t-81.5 -8q-37 0 -73 5t-64.5 17t-46 31.5t-17.5 47.5q0 19 8 34t19.5 27t25 21t25.5 15q-37 10 -53 34t-16 52q0 25 10.5 43.5t25.5 32t32 22t29 13.5q-34 18 -54 50t-20 74
q0 32 12.5 60t34 48.5t51 32t63.5 11.5q35 0 63.5 -12t51.5 -32q9 23 28 39t48 16q12 0 24 -3t21.5 -10t16 -18.5t6.5 -27.5q0 -21 -11 -35.5t-32 -14.5q-20 0 -30 11.5t-10 26.5q0 12 4.5 17.5t10 9t10 6.5t4.5 8q0 13 -23 13t-37 -15t-22 -33q17 -20 27.5 -45t10.5 -54
q0 -32 -12.5 -58.5t-34 -45.5t-51 -30t-63.5 -11q-32 0 -59 9q-12 -2 -24 -6.5t-22 -11.5t-16.5 -17t-6.5 -25q0 -8 2.5 -15t11.5 -12.5t25.5 -8.5t44.5 -3h138zM189 -45q-32 0 -51 -5.5t-29.5 -15t-14 -22t-3.5 -26.5q0 -38 18 -59t44 -31t56.5 -11.5t55.5 -1.5
q27 0 52.5 5t45.5 17.5t32 34.5t12 56q0 22 -10 34t-25.5 17.5t-34.5 6.5t-37 1h-111zM220 147q21 0 34 11t20 30t9.5 43t2.5 50t-2.5 51t-9.5 45t-20 32t-34 12t-34 -12t-20 -31.5t-9.5 -44.5t-2.5 -50q0 -26 2.5 -50.5t9.5 -43.5t20 -30.5t34 -11.5zM368 474l-14 -13
l-131 87l-131 -87l-15 13l133 119h26z" />
    <glyph glyph-name="Gbreve" unicode="&#x11e;" horiz-adv-x="781" 
d="M579 305h-98q-10 0 -10 8q0 2 1.5 6t8.5 4q37 -1 71 -2t72 -1q45 0 78 1.5t50 1.5q10 0 10 -10q0 -8 -10 -8h-73v-197q0 -22 -2 -23q-2 -2 -7 -3.5t-10 -4.5q-14 -7 -31.5 -18.5t-30.5 -19.5q-36 -23 -77.5 -37.5t-92.5 -14.5q-64 0 -131 24.5t-122 71.5t-90 116.5
t-35 158.5q0 69 22.5 136t66.5 120t110 86t152 33q44 0 82 -11t84 -40q12 -8 19 -12.5t15 -4.5q14 0 14 16q0 6 -1.5 14t-1.5 14q0 11 11 11q10 0 13 -17q5 -21 9 -35.5t10 -30.5t15.5 -38.5t25.5 -59.5q2 -4 2 -7t-2.5 -6t-7.5 -3t-7.5 4t-6.5 10q-30 48 -62.5 81.5
t-67 54.5t-70.5 30.5t-71 9.5q-67 0 -114 -30.5t-77 -80t-44 -112t-14 -127.5q0 -79 19 -144.5t54.5 -112.5t86.5 -73t114 -26q39 0 66 9t44.5 21t27 25t13.5 22v221zM514 883q0 -14 -3.5 -35t-16 -40.5t-37 -33.5t-67.5 -14t-68 14t-37.5 33.5t-16 40.5t-3.5 35
q0 12 2 15.5t8 3.5t7.5 -3.5t1.5 -15.5q0 -11 1.5 -27.5t11.5 -31.5t31.5 -25.5t61.5 -10.5q39 0 60.5 10.5t31.5 25.5t11.5 31.5t1.5 27.5q0 12 2 15.5t8 3.5q5 0 7 -3.5t2 -15.5z" />
    <glyph glyph-name="gbreve" unicode="&#x11f;" horiz-adv-x="471" 
d="M314 45q12 0 33.5 -1.5t41.5 -12t35 -33t15 -64.5q0 -51 -17 -84t-45.5 -52.5t-67 -27.5t-81.5 -8q-37 0 -73 5t-64.5 17t-46 31.5t-17.5 47.5q0 19 8 34t19.5 27t25 21t25.5 15q-37 10 -53 34t-16 52q0 25 10.5 43.5t25.5 32t32 22t29 13.5q-34 18 -54 50t-20 74
q0 32 12.5 60t34 48.5t51 32t63.5 11.5q35 0 63.5 -12t51.5 -32q9 23 28 39t48 16q12 0 24 -3t21.5 -10t16 -18.5t6.5 -27.5q0 -21 -11 -35.5t-32 -14.5q-20 0 -30 11.5t-10 26.5q0 12 4.5 17.5t10 9t10 6.5t4.5 8q0 13 -23 13t-37 -15t-22 -33q17 -20 27.5 -45t10.5 -54
q0 -32 -12.5 -58.5t-34 -45.5t-51 -30t-63.5 -11q-32 0 -59 9q-12 -2 -24 -6.5t-22 -11.5t-16.5 -17t-6.5 -25q0 -8 2.5 -15t11.5 -12.5t25.5 -8.5t44.5 -3h138zM189 -45q-32 0 -51 -5.5t-29.5 -15t-14 -22t-3.5 -26.5q0 -38 18 -59t44 -31t56.5 -11.5t55.5 -1.5
q27 0 52.5 5t45.5 17.5t32 34.5t12 56q0 22 -10 34t-25.5 17.5t-34.5 6.5t-37 1h-111zM220 147q21 0 34 11t20 30t9.5 43t2.5 50t-2.5 51t-9.5 45t-20 32t-34 12t-34 -12t-20 -31.5t-9.5 -44.5t-2.5 -50q0 -26 2.5 -50.5t9.5 -43.5t20 -30.5t34 -11.5zM345 584
q0 -14 -3.5 -35t-16 -40.5t-37 -33.5t-67.5 -14t-68 14t-37.5 33.5t-16 40.5t-3.5 35q0 11 2 15t8 4t7.5 -4t1.5 -15t1.5 -27.5t11.5 -31.5t31.5 -25.5t61.5 -10.5q39 0 60.5 10.5t31.5 25.5t11.5 31.5t1.5 27.5t2 15t8 4q5 0 7 -4t2 -15z" />
    <glyph glyph-name="Gdotaccent" unicode="&#x120;" horiz-adv-x="781" 
d="M579 305h-98q-10 0 -10 8q0 2 1.5 6t8.5 4q37 -1 71 -2t72 -1q45 0 78 1.5t50 1.5q10 0 10 -10q0 -8 -10 -8h-73v-197q0 -22 -2 -23q-2 -2 -7 -3.5t-10 -4.5q-14 -7 -31.5 -18.5t-30.5 -19.5q-36 -23 -77.5 -37.5t-92.5 -14.5q-64 0 -131 24.5t-122 71.5t-90 116.5
t-35 158.5q0 69 22.5 136t66.5 120t110 86t152 33q44 0 82 -11t84 -40q12 -8 19 -12.5t15 -4.5q14 0 14 16q0 6 -1.5 14t-1.5 14q0 11 11 11q10 0 13 -17q5 -21 9 -35.5t10 -30.5t15.5 -38.5t25.5 -59.5q2 -4 2 -7t-2.5 -6t-7.5 -3t-7.5 4t-6.5 10q-30 48 -62.5 81.5
t-67 54.5t-70.5 30.5t-71 9.5q-67 0 -114 -30.5t-77 -80t-44 -112t-14 -127.5q0 -79 19 -144.5t54.5 -112.5t86.5 -73t114 -26q39 0 66 9t44.5 21t27 25t13.5 22v221zM399 767q-23 0 -39 16t-16 39t16 39t39 16t39 -16t16 -39t-16 -39t-39 -16z" />
    <glyph glyph-name="gdotaccent" unicode="&#x121;" horiz-adv-x="471" 
d="M314 45q12 0 33.5 -1.5t41.5 -12t35 -33t15 -64.5q0 -51 -17 -84t-45.5 -52.5t-67 -27.5t-81.5 -8q-37 0 -73 5t-64.5 17t-46 31.5t-17.5 47.5q0 19 8 34t19.5 27t25 21t25.5 15q-37 10 -53 34t-16 52q0 25 10.5 43.5t25.5 32t32 22t29 13.5q-34 18 -54 50t-20 74
q0 32 12.5 60t34 48.5t51 32t63.5 11.5q35 0 63.5 -12t51.5 -32q9 23 28 39t48 16q12 0 24 -3t21.5 -10t16 -18.5t6.5 -27.5q0 -21 -11 -35.5t-32 -14.5q-20 0 -30 11.5t-10 26.5q0 12 4.5 17.5t10 9t10 6.5t4.5 8q0 13 -23 13t-37 -15t-22 -33q17 -20 27.5 -45t10.5 -54
q0 -32 -12.5 -58.5t-34 -45.5t-51 -30t-63.5 -11q-32 0 -59 9q-12 -2 -24 -6.5t-22 -11.5t-16.5 -17t-6.5 -25q0 -8 2.5 -15t11.5 -12.5t25.5 -8.5t44.5 -3h138zM189 -45q-32 0 -51 -5.5t-29.5 -15t-14 -22t-3.5 -26.5q0 -38 18 -59t44 -31t56.5 -11.5t55.5 -1.5
q27 0 52.5 5t45.5 17.5t32 34.5t12 56q0 22 -10 34t-25.5 17.5t-34.5 6.5t-37 1h-111zM220 147q21 0 34 11t20 30t9.5 43t2.5 50t-2.5 51t-9.5 45t-20 32t-34 12t-34 -12t-20 -31.5t-9.5 -44.5t-2.5 -50q0 -26 2.5 -50.5t9.5 -43.5t20 -30.5t34 -11.5zM223 467q-23 0 -39 16
t-16 39t16 39.5t39 16.5t39 -16.5t16 -39.5t-16 -39t-39 -16z" />
    <glyph glyph-name="Gcommaaccent" unicode="&#x122;" horiz-adv-x="781" 
d="M579 305h-98q-10 0 -10 8q0 2 1.5 6t8.5 4q37 -1 71 -2t72 -1q45 0 78 1.5t50 1.5q10 0 10 -10q0 -8 -10 -8h-73v-197q0 -22 -2 -23q-2 -2 -7 -3.5t-10 -4.5q-14 -7 -31.5 -18.5t-30.5 -19.5q-36 -23 -77.5 -37.5t-92.5 -14.5q-64 0 -131 24.5t-122 71.5t-90 116.5
t-35 158.5q0 69 22.5 136t66.5 120t110 86t152 33q44 0 82 -11t84 -40q12 -8 19 -12.5t15 -4.5q14 0 14 16q0 6 -1.5 14t-1.5 14q0 11 11 11q10 0 13 -17q5 -21 9 -35.5t10 -30.5t15.5 -38.5t25.5 -59.5q2 -4 2 -7t-2.5 -6t-7.5 -3t-7.5 4t-6.5 10q-30 48 -62.5 81.5
t-67 54.5t-70.5 30.5t-71 9.5q-67 0 -114 -30.5t-77 -80t-44 -112t-14 -127.5q0 -79 19 -144.5t54.5 -112.5t86.5 -73t114 -26q39 0 66 9t44.5 21t27 25t13.5 22v221zM378 -237q-10 0 -10 8q0 7 5.5 8t13.5 3q23 5 39 16t26 24.5t14.5 26.5t4.5 22q0 8 -3.5 15.5t-9.5 7.5
q-4 0 -7 -4.5t-7.5 -10t-11.5 -10t-20 -4.5q-19 0 -31.5 11t-12.5 33q0 23 15 35t35 12q25 0 47 -19t22 -58q0 -29 -13 -50.5t-31 -36t-36.5 -22t-28.5 -7.5z" />
    <glyph glyph-name="gcommaaccent" unicode="&#x123;" horiz-adv-x="471" 
d="M314 45q12 0 33.5 -1.5t41.5 -12t35 -33t15 -64.5q0 -51 -17 -84t-45.5 -52.5t-67 -27.5t-81.5 -8q-37 0 -73 5t-64.5 17t-46 31.5t-17.5 47.5q0 19 8 34t19.5 27t25 21t25.5 15q-37 10 -53 34t-16 52q0 25 10.5 43.5t25.5 32t32 22t29 13.5q-34 18 -54 50t-20 74
q0 32 12.5 60t34 48.5t51 32t63.5 11.5q35 0 63.5 -12t51.5 -32q9 23 28 39t48 16q12 0 24 -3t21.5 -10t16 -18.5t6.5 -27.5q0 -21 -11 -35.5t-32 -14.5q-20 0 -30 11.5t-10 26.5q0 12 4.5 17.5t10 9t10 6.5t4.5 8q0 13 -23 13t-37 -15t-22 -33q17 -20 27.5 -45t10.5 -54
q0 -32 -12.5 -58.5t-34 -45.5t-51 -30t-63.5 -11q-32 0 -59 9q-12 -2 -24 -6.5t-22 -11.5t-16.5 -17t-6.5 -25q0 -8 2.5 -15t11.5 -12.5t25.5 -8.5t44.5 -3h138zM189 -45q-32 0 -51 -5.5t-29.5 -15t-14 -22t-3.5 -26.5q0 -38 18 -59t44 -31t56.5 -11.5t55.5 -1.5
q27 0 52.5 5t45.5 17.5t32 34.5t12 56q0 22 -10 34t-25.5 17.5t-34.5 6.5t-37 1h-111zM220 147q21 0 34 11t20 30t9.5 43t2.5 50t-2.5 51t-9.5 45t-20 32t-34 12t-34 -12t-20 -31.5t-9.5 -44.5t-2.5 -50q0 -26 2.5 -50.5t9.5 -43.5t20 -30.5t34 -11.5zM294 533
q0 -29 -18.5 -44t-44.5 -15q-15 0 -30 6t-26.5 17.5t-19 29.5t-7.5 42q0 36 16 63t38 44.5t44.5 26.5t35.5 9q5 0 8.5 -1.5t3.5 -7.5q0 -8 -7 -9.5t-16 -3.5q-29 -6 -48.5 -20.5t-31.5 -31t-17.5 -32.5t-5.5 -27q0 -10 3.5 -18.5t10.5 -8.5q5 0 8.5 5.5t9.5 12t15 12t25 5.5
q23 0 38.5 -14t15.5 -40z" />
    <glyph glyph-name="Hcircumflex" unicode="&#x124;" horiz-adv-x="803" 
d="M756 16q5 0 8 -3t3 -6q0 -10 -11 -10q-38 1 -71.5 2t-71.5 1q-23 0 -47 -0.5t-44 -1t-35.5 -1t-22.5 -0.5q-11 0 -11 10q0 3 3 6t8 3h98v330h-321v-330h95q5 0 8 -3t3 -6q0 -10 -11 -10q-38 1 -71.5 2t-71.5 1q-23 0 -47 -0.5t-44 -1t-35.5 -1t-22.5 -0.5q-11 0 -11 10
q0 3 3 6t8 3h98v680h-98q-11 0 -11 10q0 9 11 9q38 -1 71.5 -2t71.5 -1q23 0 47 0.5t44 1t35.5 1t22.5 0.5q11 0 11 -9q0 -10 -11 -10h-95v-331h321v331h-98q-11 0 -11 10q0 9 11 9q38 -1 71.5 -2t71.5 -1q23 0 47 0.5t44 1t35.5 1t22.5 0.5q11 0 11 -9q0 -10 -11 -10h-95
v-680h95zM546 773l-14 -13l-131 87l-131 -87l-14 13l132 119h26z" />
    <glyph glyph-name="hcircumflex" unicode="&#x125;" horiz-adv-x="557" 
d="M542 16q5 0 7 -3t2 -6q0 -10 -9 -10q-15 0 -28 0.5t-25.5 1t-27 1t-33.5 0.5q-46 0 -78 -1.5t-39 -1.5q-11 0 -13.5 3t-2.5 6q0 10 12 10h69v284q0 22 -2.5 42t-10 34.5t-20 23t-32.5 8.5q-27 0 -49.5 -14.5t-39 -39t-25.5 -56.5t-9 -67v-215h69q6 0 9 -3t3 -6
q0 -10 -12 -10q-15 0 -27.5 0.5l-25 1t-26.5 1t-33 0.5q-45 0 -77.5 -1.5t-39.5 -1.5q-11 0 -13.5 3t-2.5 6q0 10 12 10h69v661q0 23 -6.5 29.5t-23.5 6.5h-39q-12 0 -12 9q0 7 3.5 8.5t8.5 1.5q31 -1 51 -1h47q29 0 44 3t19 3q3 0 3 -9v-409q0 2 7 19t23.5 37t44.5 36.5
t71 16.5q41 0 67.5 -16t42 -41t21.5 -55.5t6 -58.5v-241h71zM281 770l-14 -13l-131 88l-131 -88l-14 13l132 119h26z" />
    <glyph glyph-name="Hbar" unicode="&#x126;" horiz-adv-x="802" 
d="M756 16q5 0 8 -3t3 -6q0 -10 -11 -10q-38 1 -71.5 2t-71.5 1q-23 0 -47 -0.5t-44 -1t-35.5 -1t-22.5 -0.5q-11 0 -11 10q0 3 3 6t8 3h98v330h-321v-330h95q5 0 8 -3t3 -6q0 -10 -11 -10q-38 1 -71.5 2t-71.5 1q-23 0 -47 -0.5t-44 -1t-35.5 -1t-22.5 -0.5q-11 0 -11 10
q0 3 3 6t8 3h98v506h-92v19h92v155h-98q-11 0 -11 10q0 9 11 9q38 -1 71.5 -2t71.5 -1q23 0 47 0.5t44 1t35.5 1t22.5 0.5q11 0 11 -9q0 -10 -11 -10h-95v-155h321v155h-98q-11 0 -11 10q0 9 11 9q38 -1 71.5 -2t71.5 -1q23 0 47 0.5t44 1t35.5 1t22.5 0.5q11 0 11 -9
q0 -10 -11 -10h-95v-155h83v-19h-83v-506h95zM562 522h-321v-157h321v157z" />
    <glyph glyph-name="hbar" unicode="&#x127;" horiz-adv-x="557" 
d="M541 16q5 0 7.5 -3t2.5 -6q0 -10 -10 -10q-15 0 -28 0.5t-25.5 1t-27 1t-33.5 0.5q-46 0 -77.5 -1.5t-39.5 -1.5q-10 0 -12.5 3t-2.5 6q0 10 12 10h69v284q0 22 -2.5 42t-10 34.5t-20.5 23t-33 8.5q-26 0 -48.5 -14.5t-39 -39t-25.5 -56.5t-9 -67v-215h69q6 0 9 -3t3 -6
q0 -10 -12 -10q-15 0 -27.5 0.5t-25.5 1t-27 1t-32 0.5q-46 0 -78 -1.5t-40 -1.5q-10 0 -12.5 3t-2.5 6q0 10 11 10h70v563h-70v19h70v79q0 23 -7 29.5t-24 6.5h-39q-11 0 -11 9q0 7 3.5 8.5t7.5 1.5q31 -1 51 -1h47q29 0 44 3t20 3q3 0 3 -9v-130h167v-19h-167v-260
q1 4 8 21.5t23.5 37t44.5 35t70 15.5q41 0 67.5 -16t42 -41t21.5 -55.5t6 -58.5v-241h70z" />
    <glyph glyph-name="Itilde" unicode="&#x128;" horiz-adv-x="383" 
d="M337 16q5 0 7.5 -3t2.5 -6q0 -10 -10 -10q-38 1 -71.5 2t-71.5 1q-23 0 -47 -0.5t-44.5 -1t-36 -1t-22.5 -0.5q-10 0 -10 10q0 3 2.5 6t7.5 3h98v680h-98q-10 0 -10 10q0 9 10 9q38 -1 72 -2t72 -1q23 0 47 0.5t44 1t35.5 1t22.5 0.5q10 0 10 -9q0 -10 -10 -10h-95v-680
h95zM356 825q-14 -39 -32.5 -52t-37.5 -13q-20 0 -44 6t-48.5 13.5t-46.5 13.5t-37 6q-11 0 -22 -5t-20.5 -11.5t-16.5 -13t-10 -9.5q-2 -2 -5 -4.5t-5 -2.5t-4 2t-2 4q0 5 8 11q24 23 38 37.5t24.5 22t20 10t23.5 2.5q13 0 34 -5.5t43.5 -12.5t44.5 -12.5t37 -5.5
q14 0 26 6t23 22q4 6 7 6q5 0 5 -5q0 -3 -3 -10z" />
    <glyph glyph-name="itilde" unicode="&#x129;" horiz-adv-x="292" 
d="M268 16q5 0 8 -3t3 -6q0 -10 -11 -10q-16 0 -28.5 0.5l-25 1t-26.5 1t-33 0.5q-47 0 -76.5 -1.5t-43.5 -1.5q-11 0 -11 10q0 3 3 6t8 3h69v342q0 23 -6.5 30t-23.5 7h-39q-11 0 -11 10q0 3 3 6t8 3q13 0 23 -0.5t20.5 -0.5h23h30.5q29 0 43.5 2.5t19.5 2.5q4 0 4 -9v-393
h69zM305 525q-14 -38 -32 -51t-38 -13t-44 6t-48 13.5t-46.5 13.5t-37.5 6q-11 0 -22 -5t-20.5 -11.5t-16.5 -13t-10 -9.5q-2 -2 -5 -4.5t-5 -2.5q-5 0 -5 6q0 2 7 11q24 23 38.5 37t25 21.5t20 10t23.5 2.5q13 0 34 -5.5t43.5 -12.5t44 -12.5t36.5 -5.5q14 0 26.5 6.5
t23.5 22.5q4 6 6 6q5 0 5 -5q0 -2 -3 -11z" />
    <glyph glyph-name="Imacron" unicode="&#x12a;" horiz-adv-x="383" 
d="M337 16q5 0 7.5 -3t2.5 -6q0 -10 -10 -10q-38 1 -71.5 2t-71.5 1q-23 0 -47 -0.5t-44.5 -1t-36 -1t-22.5 -0.5q-10 0 -10 10q0 3 2.5 6t7.5 3h98v680h-98q-10 0 -10 10q0 9 10 9q38 -1 72 -2t72 -1q23 0 47 0.5t44 1t35.5 1t22.5 0.5q10 0 10 -9q0 -10 -10 -10h-95v-680
h95zM44 779v28h295v-28h-295z" />
    <glyph glyph-name="imacron" unicode="&#x12b;" horiz-adv-x="292" 
d="M268 16q5 0 8 -3t3 -6q0 -10 -11 -10q-16 0 -28.5 0.5l-25 1t-26.5 1t-33 0.5q-47 0 -76.5 -1.5t-43.5 -1.5q-11 0 -11 10q0 3 3 6t8 3h69v342q0 23 -6.5 30t-23.5 7h-39q-11 0 -11 10q0 3 3 6t8 3q13 0 23 -0.5t20.5 -0.5h23h30.5q29 0 43.5 2.5t19.5 2.5q4 0 4 -9v-393
h69zM-5 480v28h294v-28h-294z" />
    <glyph glyph-name="Ibreve" unicode="&#x12c;" horiz-adv-x="383" 
d="M337 16q5 0 7.5 -3t2.5 -6q0 -10 -10 -10q-38 1 -71.5 2t-71.5 1q-23 0 -47 -0.5t-44.5 -1t-36 -1t-22.5 -0.5q-10 0 -10 10q0 3 2.5 6t7.5 3h98v680h-98q-10 0 -10 10q0 9 10 9q38 -1 72 -2t72 -1q23 0 47 0.5t44 1t35.5 1t22.5 0.5q10 0 10 -9q0 -10 -10 -10h-95v-680
h95zM316 883q0 -14 -3.5 -35t-16 -40.5t-37 -33.5t-67.5 -14t-68 14t-37.5 33.5t-16 40.5t-3.5 35q0 12 2 15.5t8 3.5q5 0 7 -3.5t2 -15.5q0 -11 1.5 -27.5t11.5 -31.5t31.5 -25.5t61.5 -10.5q39 0 60.5 10.5t31.5 25.5t11.5 31.5t1.5 27.5q0 12 2 15.5t8 3.5q5 0 7 -3.5
t2 -15.5z" />
    <glyph glyph-name="ibreve" unicode="&#x12d;" horiz-adv-x="292" 
d="M268 16q5 0 8 -3t3 -6q0 -10 -11 -10q-16 0 -28.5 0.5l-25 1t-26.5 1t-33 0.5q-47 0 -76.5 -1.5t-43.5 -1.5q-11 0 -11 10q0 3 3 6t8 3h69v342q0 23 -6.5 30t-23.5 7h-39q-11 0 -11 10q0 3 3 6t8 3q13 0 23 -0.5t20.5 -0.5h23h30.5q29 0 43.5 2.5t19.5 2.5q4 0 4 -9v-393
h69zM266 584q0 -14 -3.5 -35t-16 -40.5t-37 -33.5t-67.5 -14t-68 14t-37.5 33.5t-16 40.5t-3.5 35q0 11 2 15t8 4t7.5 -4t1.5 -15t1.5 -27.5t11.5 -31.5t31.5 -25.5t61.5 -10.5q39 0 60.5 10.5t31.5 25.5t11.5 31.5t1.5 27.5t2 15t8 4q5 0 7 -4t2 -15z" />
    <glyph glyph-name="Iogonek" unicode="&#x12e;" horiz-adv-x="383" 
d="M337 16q5 0 7.5 -3t2.5 -6q0 -10 -10 -10q-30 1 -57.5 2t-56.5 1q-36 -22 -52 -50.5t-16 -57.5q0 -20 7.5 -39t21.5 -33.5t35 -23t47 -8.5t41.5 6.5t18.5 6.5q2 0 2 -3q0 -4 -6 -8q-7 -4 -18 -7.5t-23.5 -5.5t-24.5 -3.5t-22 -1.5q-62 0 -94.5 30.5t-32.5 71.5
q0 33 22.5 68t68.5 58h-4q-23 0 -47 -0.5t-44.5 -1t-36 -1t-22.5 -0.5q-10 0 -10 10q0 3 2.5 6t7.5 3h98v680h-98q-10 0 -10 10q0 9 10 9q38 -1 72 -2t72 -1q23 0 47 0.5t44 1t35.5 1t22.5 0.5q10 0 10 -9q0 -10 -10 -10h-95v-680h95z" />
    <glyph glyph-name="iogonek" unicode="&#x12f;" horiz-adv-x="292" 
d="M268 16q5 0 8 -3t3 -6q0 -10 -11 -10q-27 1 -46.5 2t-46.5 1q-35 -22 -51.5 -50.5t-16.5 -57.5q0 -20 7.5 -39t22 -33.5t35 -23t46.5 -8.5t41.5 6.5t18.5 6.5t3 -3q0 -4 -7 -8t-18 -7.5t-23 -5.5t-24.5 -3.5t-21.5 -1.5q-63 0 -95.5 30t-32.5 72q0 33 22.5 68t68.5 58
q-44 0 -73 -1.5t-42 -1.5q-11 0 -11 10q0 3 3 6t8 3h69v342q0 23 -6.5 30t-23.5 7h-39q-11 0 -11 10q0 3 3 6t8 3q13 0 23 -0.5t20.5 -0.5h23h30.5q29 0 43.5 2.5t19.5 2.5q4 0 4 -9v-393h69zM206 615q0 -23 -16.5 -39t-39.5 -16t-38.5 16t-15.5 39t15.5 39t38.5 16
t39.5 -16t16.5 -39z" />
    <glyph glyph-name="Idotaccent" unicode="&#x130;" horiz-adv-x="383" 
d="M337 16q5 0 7.5 -3t2.5 -6q0 -10 -10 -10q-38 1 -71.5 2t-71.5 1q-23 0 -47 -0.5t-44.5 -1t-36 -1t-22.5 -0.5q-10 0 -10 10q0 3 2.5 6t7.5 3h98v680h-98q-10 0 -10 10q0 9 10 9q38 -1 72 -2t72 -1q23 0 47 0.5t44 1t35.5 1t22.5 0.5q10 0 10 -9q0 -10 -10 -10h-95v-680
h95zM192 767q-23 0 -39 16t-16 39t16 39t39 16t39 -16t16 -39t-16 -39t-39 -16z" />
    <glyph glyph-name="dotlessi" unicode="&#x131;" horiz-adv-x="292" 
d="M268 16q5 0 8 -3t3 -6q0 -10 -11 -10q-16 0 -28.5 0.5l-25 1t-26.5 1t-33 0.5q-47 0 -76.5 -1.5t-43.5 -1.5q-11 0 -11 10q0 3 3 6t8 3h69v342q0 23 -6.5 30t-23.5 7h-39q-11 0 -11 10q0 3 3 6t8 3q13 0 23 -0.5t20.5 -0.5h23h30.5q29 0 43.5 2.5t19.5 2.5q4 0 4 -9v-393
h69z" />
    <glyph glyph-name="IJ" unicode="&#x132;" horiz-adv-x="755" 
d="M337 16q5 0 7.5 -3t2.5 -6q0 -10 -10 -10q-38 1 -71.5 2t-71.5 1q-23 0 -47 -0.5t-44.5 -1t-36 -1t-22.5 -0.5q-10 0 -10 10q0 3 2.5 6t7.5 3h98v680h-98q-10 0 -10 10q0 9 10 9q38 -1 72 -2t72 -1q23 0 47 0.5t44 1t35.5 1t22.5 0.5q10 0 10 -9q0 -10 -10 -10h-95v-680
h95zM519 696h-98q-10 0 -10 10q0 9 10 9q38 -1 71.5 -2t71.5 -1q23 0 47 0.5t44.5 1t36 1t22.5 0.5q10 0 10 -9q0 -10 -10 -10h-95v-666q0 -64 -10.5 -109t-26.5 -75t-36 -47t-39 -25t-34.5 -10t-23.5 -2q-16 0 -32 4t-28.5 13t-20.5 23t-8 35q0 27 14 46t42 19
q25 0 37.5 -14t12.5 -33q0 -23 -14.5 -37t-35.5 -14q-10 0 -14.5 2.5t-6.5 2.5t-2 -3q0 -8 13.5 -16.5t39.5 -8.5q46 0 59.5 33t13.5 95v787z" />
    <glyph glyph-name="ij" unicode="&#x133;" horiz-adv-x="567" 
d="M268 16q5 0 8 -3t3 -6q0 -10 -11 -10q-16 0 -28.5 0.5l-25 1t-26.5 1t-33 0.5q-47 0 -76.5 -1.5t-43.5 -1.5q-11 0 -11 10q0 3 3 6t8 3h69v342q0 23 -6.5 30t-23.5 7h-39q-11 0 -11 10q0 3 3 6t8 3q13 0 23 -0.5t20.5 -0.5h23h30.5q29 0 43.5 2.5t19.5 2.5q4 0 4 -9v-393
h69zM206 615q0 -23 -16.5 -39t-39.5 -16t-38.5 16t-15.5 39t15.5 39t38.5 16t39.5 -16t16.5 -39zM380 397h-70q-10 0 -10 10q0 3 2.5 6t7.5 3q15 0 28 -0.5l26 -1t27.5 -1t33.5 -0.5q47 0 74.5 1.5t41.5 1.5q5 0 8 -3t3 -6q0 -10 -11 -10h-66v-386q0 -62 -10 -105t-26 -70.5
t-35.5 -42.5t-38 -22t-34 -8t-22.5 -1q-33 0 -59 17t-26 58q0 26 13 43t39 17q24 0 34 -13t10 -30q0 -19 -12 -32t-32 -13q-10 0 -15 2.5t-7 2.5t-2 -3q0 -8 12.5 -19t41.5 -11q46 0 60 33.5t14 94.5v488zM484 615q0 -23 -16 -39t-39 -16t-38.5 16t-15.5 39t15.5 39t38.5 16
t39 -16t16 -39z" />
    <glyph glyph-name="Jcircumflex" unicode="&#x134;" horiz-adv-x="372" 
d="M136 696h-98q-10 0 -10 10q0 9 10 9q38 -1 71.5 -2t71.5 -1q23 0 47 0.5t44.5 1t36 1t22.5 0.5q10 0 10 -9q0 -10 -10 -10h-95v-666q0 -64 -10.5 -109t-26.5 -75t-36 -47t-39 -25t-34.5 -10t-23.5 -2q-16 0 -32 4t-28.5 13t-20.5 23t-8 35q0 27 14 46t42 19
q25 0 37.5 -14t12.5 -33q0 -23 -14.5 -37t-35.5 -14q-10 0 -14.5 2.5t-6.5 2.5t-2 -3q0 -8 13.5 -16.5t39.5 -8.5q46 0 59.5 33t13.5 95v787zM331 773l-15 -13l-131 87l-131 -87l-14 13l132 119h27z" />
    <glyph glyph-name="jcircumflex" unicode="&#x135;" horiz-adv-x="279" 
d="M92 397h-70q-10 0 -10 10q0 3 2.5 6t7.5 3q15 0 28 -0.5l26 -1t27.5 -1t33.5 -0.5q47 0 74.5 1.5t41.5 1.5q5 0 8 -3t3 -6q0 -10 -11 -10h-66v-386q0 -62 -10 -105t-26 -70.5t-35.5 -42.5t-38 -22t-34 -8t-22.5 -1q-33 0 -59 17t-26 58q0 26 13 43t39 17q24 0 34 -13
t10 -30q0 -19 -12 -32t-32 -13q-10 0 -15 2.5t-7 2.5t-2 -3q0 -8 12.5 -19t41.5 -11q46 0 60 33.5t14 94.5v488zM283 474l-15 -13l-131 87l-131 -87l-14 13l132 119h27z" />
    <glyph glyph-name="Kcommaaccent" unicode="&#x136;" horiz-adv-x="715" 
d="M721 16q5 0 7.5 -3t2.5 -6q0 -10 -10 -10q-22 0 -41 0.5t-37.5 1t-39 1t-45.5 0.5q-63 0 -103.5 -1.5t-47.5 -1.5q-10 0 -12.5 3t-2.5 6q0 10 11 10h48q21 0 35.5 3t14.5 16q0 8 -4.5 14t-9.5 13l-224 288l-24 -32v-302h95q5 0 8 -3t3 -6q0 -10 -11 -10q-38 1 -71.5 2
t-71.5 1q-23 0 -47 -0.5t-44 -1t-35.5 -1t-22.5 -0.5q-11 0 -11 10q0 3 3 6t8 3h98v680h-98q-11 0 -11 10q0 9 11 9q38 -1 71.5 -2t71.5 -1q23 0 47 0.5t44 1t35.5 1t22.5 0.5q11 0 11 -9q0 -10 -11 -10h-95v-348l192 252q17 22 25 37.5t8 31.5q0 27 -32 27h-26
q-11 0 -11 10q0 9 11 9q19 0 31 -0.5t22.5 -1t22.5 -1t30 -0.5q45 0 79.5 1.5t51.5 1.5q11 0 11 -9q0 -10 -11 -10h-17q-36 0 -58.5 -4.5t-39 -14.5t-29.5 -24.5t-29 -35.5l-141 -184l277 -357q25 -32 39.5 -46t32.5 -14h43zM325 -237q-10 0 -10 8q0 7 5.5 8t13.5 3
q23 5 39 16t26 24.5t14.5 26.5t4.5 22q0 8 -3.5 15.5t-8.5 7.5q-4 0 -7 -4.5t-7.5 -10t-12 -10t-20.5 -4.5q-19 0 -31.5 11t-12.5 33q0 23 15.5 35t35.5 12q24 0 46 -19t22 -58q0 -29 -13 -50.5t-31 -36t-36.5 -22t-28.5 -7.5z" />
    <glyph glyph-name="kcommaaccent" unicode="&#x137;" horiz-adv-x="575" 
d="M562 17q2 0 5 -1.5t3 -7.5q0 -7 -3 -8.5t-5 -1.5q-11 0 -29.5 0.5t-38.5 1t-40.5 0.5h-35.5q-43 0 -71 -1t-33 -1q-2 0 -4.5 1.5t-2.5 8.5q0 6 2.5 7.5t4.5 1.5h38q18 0 25 0.5t7 5.5q0 3 -3 7t-10 12l-156 176l-28 -24v-178h70q5 0 7.5 -3t2.5 -6q0 -10 -10 -10
q-16 0 -28.5 0.5l-25 1t-27 1t-33.5 0.5q-46 0 -76 -1.5t-44 -1.5q-11 0 -11 10q0 3 3 6t8 3h69v659q0 24 -6 30.5t-23 6.5h-40q-11 0 -11 10q0 9 11 9h98q29 0 43.5 2t18.5 2t4 -8v-509l105 90q32 28 50 46t18 28t-15.5 12t-25.5 2h-20q-3 0 -5 1.5t-2 8.5q0 6 2 7.5t5 1.5
q12 -1 37 -1.5t53 -0.5q19 0 41 0.5t41.5 0.5t33 0.5t16.5 0.5t6 -1.5t3 -7.5q0 -8 -3 -9t-5 -1h-45q-27 0 -49.5 -6.5t-45.5 -26.5l-101 -88l205 -231q14 -17 30 -22t35 -5h11zM243 -237q-9 0 -9 8q0 7 5.5 8t13.5 3q23 5 39 16t25.5 24.5t14 26.5t4.5 22q0 8 -3 15.5
t-9 7.5q-4 0 -7 -4.5t-7.5 -10t-12 -10t-20.5 -4.5q-18 0 -30.5 11t-12.5 33q0 23 15 35t35 12q24 0 46 -19t22 -58q0 -29 -13 -50.5t-31 -36t-36.5 -22t-28.5 -7.5z" />
    <glyph glyph-name="kgreenlandic" unicode="&#x138;" horiz-adv-x="588" 
d="M575 17q2 0 4.5 -1.5t2.5 -7.5q0 -7 -2.5 -8.5t-4.5 -1.5q-12 0 -30 0.5t-38.5 1t-41 0.5h-35.5q-43 0 -70.5 -1t-32.5 -1q-3 0 -5.5 1.5t-2.5 8.5q0 6 2.5 7.5t5.5 1.5h38q17 0 24 0.5t7 5.5q0 3 -3 7t-10 12l-156 176l-28 -24v-178h70q5 0 7.5 -3t2.5 -6q0 -10 -10 -10
q-16 0 -28.5 0.5l-25 1t-26.5 1t-33 0.5q-47 0 -77 -1.5t-44 -1.5q-11 0 -11 10q0 3 3 6t8 3h69v341q0 24 -6 30.5t-23 6.5h-40q-11 0 -11 10q0 3 3 6t8 3q19 0 32.5 -0.5t24 -0.5h20h21.5q29 0 43.5 2.5t18.5 2.5t4 -9v-190l105 90q32 28 50 46t18 28t-15.5 12t-25.5 2h-20
q-2 0 -4.5 1.5t-2.5 8.5q0 6 2.5 7.5t4.5 1.5q13 -1 38 -1.5t52 -0.5q19 0 41 0.5t41.5 0.5t33 0.5t16.5 0.5t6 -1.5t3 -7.5q0 -8 -3 -9t-5 -1h-45q-27 0 -49.5 -6.5t-45.5 -26.5l-101 -88l206 -231q14 -17 29.5 -22t34.5 -5h12z" />
    <glyph glyph-name="Lacute" unicode="&#x139;" horiz-adv-x="618" 
d="M399 16q55 0 89 14t52.5 37t26.5 53t13 62q1 7 2.5 12t7.5 5q7 0 8 -4.5t1 -11.5q-1 -27 -5.5 -66t-4.5 -88v-16t1 -16q-11 1 -22 1.5t-27.5 0.5t-42 0.5t-66.5 0.5h-100h-142q-21 0 -44.5 -0.5t-43.5 -1t-36 -1t-22 -0.5q-11 0 -11 10q0 3 3 6t8 3h98v680h-98
q-11 0 -11 10q0 9 11 9q38 -1 71.5 -2t71.5 -1q23 0 47 0.5t44 1t35.5 1t22.5 0.5q11 0 11 -9q0 -10 -11 -10h-95v-680h158zM199 760h-35l57 127h80z" />
    <glyph glyph-name="lacute" unicode="&#x13a;" horiz-adv-x="279" 
d="M256 16q5 0 8 -3t3 -6q0 -10 -11 -10q-15 0 -27.5 0.5l-25 1t-27 1t-33.5 0.5q-46 0 -76 -1.5t-44 -1.5q-11 0 -11 10q0 3 3 6t8 3h69v659q0 24 -6 30.5t-23 6.5h-40q-11 0 -11 10q0 9 11 9h98q29 0 43.5 2t18.5 2t4 -8v-711h69zM142 760h-35l57 127h81z" />
    <glyph glyph-name="Lcommaaccent" unicode="&#x13b;" horiz-adv-x="616" 
d="M397 16q55 0 89 14t52.5 37t26.5 53t13 62q1 7 2.5 12t7.5 5q7 0 8 -4.5t1 -11.5q-1 -27 -5.5 -66t-4.5 -88v-16t1 -16q-11 1 -22 1.5t-27.5 0.5t-42 0.5t-66.5 0.5h-100h-142q-21 0 -44.5 -0.5t-43.5 -1t-36 -1t-22 -0.5q-11 0 -11 10q0 3 3 6t8 3h98v680h-98
q-11 0 -11 10q0 9 11 9q38 -1 71.5 -2t71.5 -1q23 0 47 0.5t44 1t35.5 1t22.5 0.5q11 0 11 -9q0 -10 -11 -10h-95v-680h158zM305 -237q-10 0 -10 8q0 7 5.5 8t13.5 3q23 5 39 16t26 24.5t14.5 26.5t4.5 22q0 8 -3.5 15.5t-8.5 7.5q-4 0 -7 -4.5t-7.5 -10t-12 -10t-20.5 -4.5
q-19 0 -31.5 11t-12.5 33q0 23 15.5 35t35.5 12q24 0 46 -19t22 -58q0 -29 -13 -50.5t-31 -36t-36.5 -22t-28.5 -7.5z" />
    <glyph glyph-name="lcommaaccent" unicode="&#x13c;" horiz-adv-x="279" 
d="M256 16q5 0 8 -3t3 -6q0 -10 -11 -10q-15 0 -27.5 0.5l-25 1t-27 1t-33.5 0.5q-46 0 -76 -1.5t-44 -1.5q-11 0 -11 10q0 3 3 6t8 3h69v659q0 24 -6 30.5t-23 6.5h-40q-11 0 -11 10q0 9 11 9h98q29 0 43.5 2t18.5 2t4 -8v-711h69zM98 -237q-10 0 -10 8q0 7 5.5 8t13.5 3
q23 5 39 16t26 24.5t14.5 26.5t4.5 22q0 8 -3.5 15.5t-8.5 7.5q-4 0 -7 -4.5t-7.5 -10t-12 -10t-20.5 -4.5q-19 0 -31.5 11t-12.5 33q0 23 15.5 35t35.5 12q24 0 46 -19t22 -58q0 -29 -13 -50.5t-31 -36t-36.5 -22t-28.5 -7.5z" />
    <glyph glyph-name="Lcaron" unicode="&#x13d;" horiz-adv-x="618" 
d="M399 16q55 0 89 14t52.5 37t26.5 53t13 62q1 7 2.5 12t7.5 5q7 0 8 -4.5t1 -11.5q-1 -27 -5.5 -66t-4.5 -88v-16t1 -16q-11 1 -22 1.5t-27.5 0.5t-42 0.5t-66.5 0.5h-100h-142q-21 0 -44.5 -0.5t-43.5 -1t-36 -1t-22 -0.5q-11 0 -11 10q0 3 3 6t8 3h98v680h-98
q-11 0 -11 10q0 9 11 9q38 -1 71.5 -2t71.5 -1q23 0 47 0.5t44 1t35.5 1t22.5 0.5q11 0 11 -9q0 -10 -11 -10h-95v-680h158zM462 474q-13 0 -13 10q0 8 7.5 9.5t15.5 3.5q28 6 48 20t32.5 30.5t18 32.5t5.5 27q0 10 -4 19t-10 9q-5 0 -9 -5.5t-10 -12.5t-15 -12.5t-24 -5.5
q-24 0 -39.5 14.5t-15.5 40.5q0 29 19 43.5t44 14.5q15 0 30 -6t27 -17.5t19.5 -29.5t7.5 -42q0 -36 -16.5 -62.5t-38.5 -44.5t-44.5 -27t-34.5 -9z" />
    <glyph glyph-name="lcaron" unicode="&#x13e;" horiz-adv-x="279" 
d="M256 16q5 0 8 -3t3 -6q0 -10 -11 -10q-15 0 -27.5 0.5l-25 1t-27 1t-33.5 0.5q-46 0 -76 -1.5t-44 -1.5q-11 0 -11 10q0 3 3 6t8 3h69v659q0 24 -6 30.5t-23 6.5h-40q-11 0 -11 10q0 9 11 9h98q29 0 43.5 2t18.5 2t4 -8v-711h69zM287 503q-5 0 -8.5 1.5t-3.5 7.5
q0 8 7 9.5t15 3.5q28 6 48 20t32.5 30.5t18 33t5.5 27.5q0 10 -4 18.5t-10 8.5q-5 0 -9 -5.5t-10 -12t-15 -12t-24 -5.5q-24 0 -39 14t-15 40q0 29 18.5 44t43.5 15q15 0 30 -6t27 -17.5t19.5 -29.5t7.5 -42q0 -36 -16.5 -63t-38.5 -44.5t-44.5 -26.5t-34.5 -9z" />
    <glyph glyph-name="Ldot" unicode="&#x13f;" horiz-adv-x="618" 
d="M399 16q55 0 89 14t52.5 37t26.5 53t13 62q1 7 2.5 12t7.5 5q7 0 8 -4.5t1 -11.5q-1 -27 -5.5 -66t-4.5 -88v-16t1 -16q-11 1 -22 1.5t-27.5 0.5t-42 0.5t-66.5 0.5h-100h-142q-21 0 -44.5 -0.5t-43.5 -1t-36 -1t-22 -0.5q-11 0 -11 10q0 3 3 6t8 3h98v680h-98
q-11 0 -11 10q0 9 11 9q38 -1 71.5 -2t71.5 -1q23 0 47 0.5t44 1t35.5 1t22.5 0.5q11 0 11 -9q0 -10 -11 -10h-95v-680h158zM520 332q-23 0 -39 16t-16 39t16 39t39 16t39 -16t16 -39t-16 -39t-39 -16z" />
    <glyph glyph-name="ldot" unicode="&#x140;" horiz-adv-x="384" 
d="M256 16q5 0 8 -3t3 -6q0 -10 -11 -10q-15 0 -27.5 0.5l-25 1t-27 1t-33.5 0.5q-46 0 -76 -1.5t-44 -1.5q-11 0 -11 10q0 3 3 6t8 3h69v659q0 24 -6 30.5t-23 6.5h-40q-11 0 -11 10q0 9 11 9h98q29 0 43.5 2t18.5 2t4 -8v-711h69zM331 269q-23 0 -39.5 16t-16.5 39
t16.5 39t39.5 16t39 -16t16 -39t-16 -39t-39 -16z" />
    <glyph glyph-name="Lslash" unicode="&#x141;" horiz-adv-x="618" 
d="M399 16q55 0 89 14t52.5 37t26.5 53t13 62q1 7 2.5 12t7.5 5q7 0 8 -4.5t1 -11.5q-1 -27 -5.5 -66t-4.5 -88v-16t1 -16q-11 1 -22 1.5t-27.5 0.5t-42 0.5t-66.5 0.5h-100h-142q-21 0 -44.5 -0.5t-43.5 -1t-36 -1t-22 -0.5q-11 0 -11 10q0 3 3 6t8 3h98v217l-84 -53
l-14 17l98 62v437h-98q-11 0 -11 10q0 9 11 9q38 -1 71.5 -2t71.5 -1q23 0 47 0.5t44 1t35.5 1t22.5 0.5q11 0 11 -9q0 -10 -11 -10h-95v-372l151 98l14 -18l-165 -107v-281h158z" />
    <glyph glyph-name="lslash" unicode="&#x142;" horiz-adv-x="291" 
d="M264 16q5 0 7.5 -3t2.5 -6q0 -10 -10 -10q-16 0 -28.5 0.5l-25 1t-26.5 1t-33 0.5q-47 0 -77 -1.5t-44 -1.5q-11 0 -11 10q0 3 3 6t8 3h69v246l-75 -48l-11 18l86 56v387q0 24 -6 30.5t-23 6.5h-40q-11 0 -11 10q0 9 11 9h98q29 0 43.5 2t18.5 2t4 -8v-378l74 48l13 -18
l-87 -56v-307h70z" />
    <glyph glyph-name="Nacute" unicode="&#x143;" horiz-adv-x="757" 
d="M163 638v-522q0 -33 5 -53t15.5 -30.5t26.5 -13.5t37 -3h17q5 0 7.5 -3t2.5 -6q0 -10 -10 -10q-20 0 -32 0.5t-23 1t-23 1t-30 0.5q-44 0 -68.5 -1.5t-44.5 -1.5q-10 0 -10 10q0 3 2.5 6t7.5 3h17q17 0 32 2.5t26.5 10.5t18.5 22.5t7 38.5v573q-13 23 -22 28t-19 5h-54
q-10 0 -10 10q0 2 1.5 5.5t8.5 3.5q54 -3 88 -3q28 0 54.5 1.5t43.5 1.5l365 -554v461q0 24 -7 38.5t-18.5 22.5t-26.5 10.5t-32 2.5h-17q-10 0 -10 10q0 9 10 9q19 0 31.5 -0.5t23.5 -1t23 -1t30 -0.5q44 0 68.5 1.5t44.5 1.5q10 0 10 -9q0 -10 -10 -10h-17q-21 0 -37 -3
t-26.5 -13t-15.5 -30t-5 -53v-601q0 -8 -1.5 -12.5t-8.5 -4.5q-5 0 -10.5 3.5t-12.5 14.5zM382 760h-35l57 127h81z" />
    <glyph glyph-name="nacute" unicode="&#x144;" horiz-adv-x="569" 
d="M551 16q5 0 8 -3t3 -6q0 -10 -11 -10q-15 0 -27.5 0.5l-25 1t-27 1t-33.5 0.5q-46 0 -76 -1.5t-44 -1.5q-11 0 -11 10q0 3 3 6t8 3h69v283q0 22 -2.5 42t-10 34.5t-20.5 23t-33 8.5q-26 0 -48 -14t-38.5 -37.5t-26 -54.5t-9.5 -65v-220h69q5 0 8 -3t3 -6q0 -10 -11 -10
q-16 0 -28.5 0.5l-25 1t-26.5 1t-33 0.5q-47 0 -76.5 -1.5t-43.5 -1.5q-11 0 -11 10q0 3 3 6t8 3h69v342q0 23 -6.5 30t-23.5 7h-39q-11 0 -11 10q0 3 3 6t8 3q19 0 32.5 -0.5t24 -0.5h19.5h21q29 0 43.5 2.5t19.5 2.5q4 0 4 -9v-91q0 2 7 19t23.5 37t44.5 36.5t71 16.5
q41 0 67.5 -16t42 -41t21.5 -55.5t6 -58.5v-240h69zM277 461h-35l57 127h80z" />
    <glyph glyph-name="Ncommaaccent" unicode="&#x145;" horiz-adv-x="758" 
d="M163 638v-522q0 -33 5 -53t15.5 -30.5t26.5 -13.5t37 -3h17q5 0 7.5 -3t2.5 -6q0 -10 -10 -10q-20 0 -32 0.5t-23 1t-23 1t-30 0.5q-44 0 -68.5 -1.5t-44.5 -1.5q-10 0 -10 10q0 3 2.5 6t7.5 3h17q17 0 32 2.5t26.5 10.5t18.5 22.5t7 38.5v573q-13 23 -22 28t-19 5h-54
q-10 0 -10 10q0 2 1.5 5.5t8.5 3.5q54 -3 88 -3q28 0 54.5 1.5t43.5 1.5l365 -554v461q0 24 -7 38.5t-18.5 22.5t-26.5 10.5t-32 2.5h-17q-10 0 -10 10q0 9 10 9q19 0 31.5 -0.5t23.5 -1t23 -1t30 -0.5q44 0 68.5 1.5t44.5 1.5q10 0 10 -9q0 -10 -10 -10h-17q-21 0 -37 -3
t-26.5 -13t-15.5 -30t-5 -53v-601q0 -8 -1.5 -12.5t-8.5 -4.5q-5 0 -10.5 3.5t-12.5 14.5zM356 -237q-10 0 -10 8q0 7 5.5 8t13.5 3q23 5 39 16t26 24.5t14.5 26.5t4.5 22q0 8 -3.5 15.5t-8.5 7.5q-4 0 -7 -4.5t-7.5 -10t-12 -10t-20.5 -4.5q-19 0 -31.5 11t-12.5 33
q0 23 15.5 35t35.5 12q24 0 46 -19t22 -58q0 -29 -13 -50.5t-31 -36t-36.5 -22t-28.5 -7.5z" />
    <glyph glyph-name="ncommaaccent" unicode="&#x146;" horiz-adv-x="569" 
d="M551 16q5 0 8 -3t3 -6q0 -10 -11 -10q-15 0 -27.5 0.5l-25 1t-27 1t-33.5 0.5q-46 0 -76 -1.5t-44 -1.5q-11 0 -11 10q0 3 3 6t8 3h69v283q0 22 -2.5 42t-10 34.5t-20.5 23t-33 8.5q-26 0 -48 -14t-38.5 -37.5t-26 -54.5t-9.5 -65v-220h69q5 0 8 -3t3 -6q0 -10 -11 -10
q-16 0 -28.5 0.5l-25 1t-26.5 1t-33 0.5q-47 0 -76.5 -1.5t-43.5 -1.5q-11 0 -11 10q0 3 3 6t8 3h69v342q0 23 -6.5 30t-23.5 7h-39q-11 0 -11 10q0 3 3 6t8 3q19 0 32.5 -0.5t24 -0.5h19.5h21q29 0 43.5 2.5t19.5 2.5q4 0 4 -9v-91q0 2 7 19t23.5 37t44.5 36.5t71 16.5
q41 0 67.5 -16t42 -41t21.5 -55.5t6 -58.5v-240h69zM260 -218q23 5 39 16t25.5 24.5t14 26.5t4.5 22q0 8 -3 15.5t-9 7.5q-4 0 -7 -4.5t-7.5 -10t-12 -10t-20.5 -4.5q-18 0 -30.5 11t-12.5 33q0 23 15 35t35 12q24 0 46 -19t22 -58q0 -29 -13 -50.5t-31 -36t-36.5 -22
t-28.5 -7.5q-9 0 -9 8q0 7 5.5 8t13.5 3z" />
    <glyph glyph-name="Ncaron" unicode="&#x147;" horiz-adv-x="757" 
d="M163 638v-522q0 -33 5 -53t15.5 -30.5t26.5 -13.5t37 -3h17q5 0 7.5 -3t2.5 -6q0 -10 -10 -10q-20 0 -32 0.5t-23 1t-23 1t-30 0.5q-44 0 -68.5 -1.5t-44.5 -1.5q-10 0 -10 10q0 3 2.5 6t7.5 3h17q17 0 32 2.5t26.5 10.5t18.5 22.5t7 38.5v573q-13 23 -22 28t-19 5h-54
q-10 0 -10 10q0 2 1.5 5.5t8.5 3.5q54 -3 88 -3q28 0 54.5 1.5t43.5 1.5l365 -554v461q0 24 -7 38.5t-18.5 22.5t-26.5 10.5t-32 2.5h-17q-10 0 -10 10q0 9 10 9q19 0 31.5 -0.5t23.5 -1t23 -1t30 -0.5q44 0 68.5 1.5t44.5 1.5q10 0 10 -9q0 -10 -10 -10h-17q-21 0 -37 -3
t-26.5 -13t-15.5 -30t-5 -53v-601q0 -8 -1.5 -12.5t-8.5 -4.5q-5 0 -10.5 3.5t-12.5 14.5zM533 879l-133 -119h-26l-132 119l14 13l131 -87l131 87z" />
    <glyph glyph-name="ncaron" unicode="&#x148;" horiz-adv-x="569" 
d="M551 16q5 0 8 -3t3 -6q0 -10 -11 -10q-15 0 -27.5 0.5l-25 1t-27 1t-33.5 0.5q-46 0 -76 -1.5t-44 -1.5q-11 0 -11 10q0 3 3 6t8 3h69v283q0 22 -2.5 42t-10 34.5t-20.5 23t-33 8.5q-26 0 -48 -14t-38.5 -37.5t-26 -54.5t-9.5 -65v-220h69q5 0 8 -3t3 -6q0 -10 -11 -10
q-16 0 -28.5 0.5l-25 1t-26.5 1t-33 0.5q-47 0 -76.5 -1.5t-43.5 -1.5q-11 0 -11 10q0 3 3 6t8 3h69v342q0 23 -6.5 30t-23.5 7h-39q-11 0 -11 10q0 3 3 6t8 3q19 0 32.5 -0.5t24 -0.5h19.5h21q29 0 43.5 2.5t19.5 2.5q4 0 4 -9v-91q0 2 7 19t23.5 37t44.5 36.5t71 16.5
q41 0 67.5 -16t42 -41t21.5 -55.5t6 -58.5v-240h69zM435 579l-132 -118h-26l-132 118l14 14l131 -88l131 88z" />
    <glyph glyph-name="Omacron" unicode="&#x14c;" horiz-adv-x="801" 
d="M400 -13q-77 0 -141 31t-111 82.5t-73 119t-26 140.5t26 140.5t73 119t111 82.5t141 31q76 0 141 -31t111.5 -82.5t73 -119t26.5 -140.5t-26.5 -140.5t-73 -119t-111.5 -82.5t-141 -31zM400 6q70 0 117 30.5t76 80t41.5 113t12.5 130.5t-12.5 130.5t-41.5 113t-76 80
t-117 30.5t-117 -30.5t-76 -80t-41.5 -113t-12.5 -130.5t12.5 -130.5t41.5 -113t76 -80t117 -30.5zM253 779v28h294v-28h-294z" />
    <glyph glyph-name="omacron" unicode="&#x14d;" horiz-adv-x="498" 
d="M249 -13q-46 0 -84.5 18t-67 48.5t-44.5 70t-16 82.5t16 83.5t44.5 72.5t67 51.5t84.5 19.5q45 0 84 -19.5t67.5 -51.5t44.5 -72.5t16 -83.5t-16 -82.5t-44.5 -70t-67.5 -48.5t-84 -18zM249 6q31 0 52.5 16.5t35 44.5t19 63.5t5.5 74.5t-5.5 76.5t-19 67t-35 47.5
t-52.5 18q-32 0 -53.5 -17.5t-34.5 -47t-18.5 -66.5t-5.5 -76t5.5 -75t18.5 -64t34.5 -45t53.5 -17zM102 480v28h294v-28h-294z" />
    <glyph glyph-name="Obreve" unicode="&#x14e;" horiz-adv-x="801" 
d="M400 -13q-77 0 -141 31t-111 82.5t-73 119t-26 140.5t26 140.5t73 119t111 82.5t141 31q76 0 141 -31t111.5 -82.5t73 -119t26.5 -140.5t-26.5 -140.5t-73 -119t-111.5 -82.5t-141 -31zM400 6q70 0 117 30.5t76 80t41.5 113t12.5 130.5t-12.5 130.5t-41.5 113t-76 80
t-117 30.5t-117 -30.5t-76 -80t-41.5 -113t-12.5 -130.5t12.5 -130.5t41.5 -113t76 -80t117 -30.5zM525 883q0 -14 -3.5 -35t-16.5 -40.5t-37.5 -33.5t-67.5 -14t-67.5 14t-37 33.5t-16 40.5t-3.5 35q0 12 2 15.5t7 3.5q6 0 8 -3.5t2 -15.5q0 -11 1.5 -27.5t11.5 -31.5
t31.5 -25.5t60.5 -10.5q40 0 61.5 10.5t31.5 25.5t11.5 31.5t1.5 27.5q0 12 2 15.5t7 3.5q6 0 8 -3.5t2 -15.5z" />
    <glyph glyph-name="obreve" unicode="&#x14f;" horiz-adv-x="498" 
d="M249 -13q-46 0 -84.5 18t-67 48.5t-44.5 70t-16 82.5t16 83.5t44.5 72.5t67 51.5t84.5 19.5q45 0 84 -19.5t67.5 -51.5t44.5 -72.5t16 -83.5t-16 -82.5t-44.5 -70t-67.5 -48.5t-84 -18zM249 6q31 0 52.5 16.5t35 44.5t19 63.5t5.5 74.5t-5.5 76.5t-19 67t-35 47.5
t-52.5 18q-32 0 -53.5 -17.5t-34.5 -47t-18.5 -66.5t-5.5 -76t5.5 -75t18.5 -64t34.5 -45t53.5 -17zM373 584q0 -14 -3.5 -35t-16 -40.5t-37 -33.5t-67.5 -14t-68 14t-37.5 33.5t-16 40.5t-3.5 35q0 11 2 15t8 4q5 0 7 -4t2 -15t1.5 -27.5t11.5 -31.5t31.5 -25.5t61.5 -10.5
q39 0 60.5 10.5t31.5 25.5t11.5 31.5t1.5 27.5t2 15t8 4q5 0 7 -4t2 -15z" />
    <glyph glyph-name="Ohungarumlaut" unicode="&#x150;" horiz-adv-x="801" 
d="M400 -13q-77 0 -141 31t-111 82.5t-73 119t-26 140.5t26 140.5t73 119t111 82.5t141 31q76 0 141 -31t111.5 -82.5t73 -119t26.5 -140.5t-26.5 -140.5t-73 -119t-111.5 -82.5t-141 -31zM400 6q70 0 117 30.5t76 80t41.5 113t12.5 130.5t-12.5 130.5t-41.5 113t-76 80
t-117 30.5t-117 -30.5t-76 -80t-41.5 -113t-12.5 -130.5t12.5 -130.5t41.5 -113t76 -80t117 -30.5zM311 801q10 10 10 17q0 3 -1.5 6t-7 9t-16 15.5t-28.5 25.5q-5 5 -9 10t-4 10q0 4 3 8t14 15q19 18 34.5 34.5t32.5 38.5q6 6 8 6q3 0 7 -4q3 -3 3 -7t-3 -7l-20 -23
q-11 -13 -11 -17q0 -3 2 -6t7.5 -9t16 -16t27.5 -25q14 -12 14 -20q0 -4 -3 -8t-14 -15q-19 -19 -34.5 -35.5t-33.5 -37.5q-6 -6 -7 -6q-3 0 -7 4t-4 6t4 8zM467 807q10 13 10 18q0 2 -1.5 5t-7 9t-16 16t-28.5 26q-13 10 -13 20q0 3 3 7t14 15q18 19 33.5 35.5t33.5 38.5
q2 2 4 3.5t4 1.5q3 0 6 -4q4 -3 4 -6q0 -2 -4 -8l-19 -23q-11 -11 -11 -17q0 -2 2 -5.5t7.5 -9.5t16 -15.5t27.5 -25.5q14 -11 14 -20q0 -3 -3.5 -7.5t-14.5 -15.5q-18 -18 -33.5 -34.5t-33.5 -38.5q-5 -5 -8 -5q-2 0 -6 3q-4 4 -4 7q0 2 4 8z" />
    <glyph glyph-name="ohungarumlaut" unicode="&#x151;" horiz-adv-x="498" 
d="M249 -13q-46 0 -84.5 18t-67 48.5t-44.5 70t-16 82.5t16 83.5t44.5 72.5t67 51.5t84.5 19.5q45 0 84 -19.5t67.5 -51.5t44.5 -72.5t16 -83.5t-16 -82.5t-44.5 -70t-67.5 -48.5t-84 -18zM249 6q31 0 52.5 16.5t35 44.5t19 63.5t5.5 74.5t-5.5 76.5t-19 67t-35 47.5
t-52.5 18q-32 0 -53.5 -17.5t-34.5 -47t-18.5 -66.5t-5.5 -76t5.5 -75t18.5 -64t34.5 -45t53.5 -17zM160 502q10 12 10 17q0 2 -2 5t-7.5 9t-16 16t-27.5 26q-14 10 -14 20q0 3 3.5 7t14.5 15q18 19 33.5 35.5t33.5 38.5q2 2 4 3.5t4 1.5q1 0 6 -3q4 -4 4 -7q0 -2 -4 -8
l-20 -23q-10 -12 -10 -17q0 -2 2 -5.5t7.5 -9.5t16 -15.5t27.5 -25.5q13 -10 13 -20q0 -3 -3 -7t-14 -15q-18 -19 -33.5 -35.5t-33.5 -38.5q-2 -2 -4 -3.5t-4 -1.5q-3 0 -6 4q-4 3 -4 6q0 2 4 8zM315 508q11 13 11 17q0 5 -9.5 15t-43.5 41q-14 12 -14 20q0 4 3 8t14 15
q19 19 34.5 35.5t33.5 37.5q6 6 7 6q3 0 7 -4t4 -6t-4 -8l-20 -23q-10 -10 -10 -17q0 -3 1.5 -6t7 -9t16 -15.5t28.5 -25.5q5 -5 9 -10t4 -10q0 -4 -3 -8t-14 -15q-19 -18 -34.5 -34.5t-32.5 -38.5q-6 -6 -8 -6q-3 0 -7 4q-3 4 -3 7q0 4 3 7z" />
    <glyph glyph-name="OE" unicode="&#x152;" horiz-adv-x="1170" 
d="M910 16q50 0 83.5 12.5t54 34.5t30.5 52.5t13 66.5q1 17 10 17q7 0 8 -4.5t1 -12.5q-2 -35 -6 -71.5t-4 -81.5v-16t1 -16q-11 1 -22 1.5t-27.5 0.5t-42 0.5t-66.5 0.5h-100h-142q-17 0 -44 -1t-45 -2q-11 0 -11 10q0 3 3 6t8 3h41v94q-47 -61 -112 -92t-140 -31
q-77 0 -141.5 31t-111 82.5t-73 119t-26.5 140.5t26.5 140.5t73 119t111 82.5t141.5 31q75 0 140.5 -31t111.5 -93v87h-41q-11 0 -11 10q0 9 11 9q18 -1 45 -2t44 -1h197t116 0.5t59.5 1t27.5 1.5q0 -14 0.5 -39.5t2.5 -41.5q2 -21 3 -34t1.5 -23.5t0.5 -20.5t1 -23
q0 -8 -1 -12t-8 -4q-10 0 -10 16q0 33 -6.5 63t-27 52t-57.5 35t-99 13h-149v-290h45q30 0 52.5 3.5t37.5 15.5t22.5 34t8.5 60q0 16 10 16q7 0 8 -4.5t1 -11.5q-2 -37 -2.5 -53.5t-1.5 -25.5t-1 -17v-27v-29.5t1 -21t1.5 -30.5t2.5 -56q0 -7 -1 -11.5t-8 -4.5q-10 0 -10 16
q-1 42 -8.5 67t-22.5 38.5t-37.5 18t-52.5 4.5h-45v-371h158zM401 6q70 0 118 30t78 81t43 117.5t13 138.5q0 64 -14 125t-44 109t-78 77.5t-116 29.5q-70 0 -117 -30.5t-76 -80t-41.5 -113t-12.5 -130.5t12.5 -130.5t41.5 -113t76 -80t117 -30.5z" />
    <glyph glyph-name="oe" unicode="&#x153;" horiz-adv-x="795" 
d="M461 241q0 -60 4 -104t17 -73.5t36.5 -43.5t61.5 -14q20 0 42 5t43 18.5t39.5 36t31.5 57.5l4 8t8 4q8 0 8 -8q0 -2 -1 -4.5t-4 -11.5q-20 -56 -66.5 -90t-110.5 -34q-23 0 -47.5 5t-47.5 15.5t-41.5 26t-29.5 37.5q-22 -42 -65.5 -63t-92.5 -21q-46 0 -85 18t-67.5 48.5
t-44.5 70t-16 82.5t16 83.5t44.5 72.5t67 51.5t83.5 19.5q51 0 96.5 -24.5t67.5 -69.5q20 42 63.5 68t98.5 26q40 0 71.5 -14t54 -36.5t37 -51.5t20.5 -58q2 -11 2.5 -14.5t0.5 -6.5q0 -8 -3 -9.5t-11 -1.5h-285zM249 6q31 0 52.5 16.5t35 44.5t19 63.5t5.5 74.5q0 25 -4 61
t-16 69t-34 56t-58 23q-32 0 -53 -18t-34.5 -47t-19 -66t-5.5 -76t5.5 -75t19 -64t34.5 -45t53 -17zM652 260q0 32 -2.5 60t-11 49t-25 33t-45.5 12q-54 0 -78 -39.5t-28 -114.5h190z" />
    <glyph glyph-name="Racute" unicode="&#x154;" horiz-adv-x="694" 
d="M335 16q10 0 10 -10q0 -9 -10 -9q-38 1 -71.5 2t-71.5 1q-23 0 -47 -0.5t-44.5 -1t-35 -1t-18.5 -0.5q-9 0 -11.5 2t-2.5 7q0 10 10 10h98v681h-98q-10 0 -10 10q0 4 2 6.5t10 2.5q3 0 25.5 -0.5t51 -1.5t56 -1.5t40.5 -0.5q23 0 46 1.5t52 1.5q42 0 87.5 -6t84 -24
t63.5 -52t25 -90q0 -41 -14.5 -72.5t-38.5 -53t-56 -35t-66 -18.5q63 -12 97 -36t49.5 -56.5t18.5 -70.5t3 -78q0 -20 1.5 -39.5t7.5 -36t18 -26.5t32 -10q16 0 28 5t17 7q6 3 9 3q7 0 7 -7q0 -5 -5 -9q-3 -3 -19.5 -10.5t-54.5 -7.5q-49 0 -77.5 15t-42.5 39t-18 53.5
t-5 58.5q-2 47 -5.5 83.5t-20.5 62t-51.5 38.5t-97.5 13h-51v-339h94zM279 374q30 0 64 3.5t62.5 19t47.5 47t19 87.5q0 57 -20 90t-52.5 50t-74 21.5t-84.5 4.5v-323h38zM314 760h-35l57 127h80z" />
    <glyph glyph-name="racute" unicode="&#x155;" horiz-adv-x="386" 
d="M268 16q5 0 8 -3t3 -6q0 -10 -11 -10q-16 0 -28.5 0.5l-25 1t-26.5 1t-33 0.5q-47 0 -76.5 -1.5t-43.5 -1.5q-11 0 -11 10q0 3 3 6t8 3h69v342q0 23 -6.5 30t-23.5 7h-39q-11 0 -11 10q0 3 3 6t8 3q19 0 32.5 -0.5t24 -0.5h19.5h21q29 0 43.5 2.5t19.5 2.5q4 0 4 -9v-66
q4 14 11.5 29t18.5 27t27 20t38 8q29 0 52 -16.5t23 -56.5q0 -27 -13 -44t-39 -17q-24 0 -34 13t-10 30q0 19 12 32t32 13q11 0 15.5 -2.5t6.5 -2.5q1 0 1 3q0 11 -14 20t-34 9q-27 0 -44.5 -18.5t-28.5 -46.5t-15.5 -61t-4.5 -62v-204h69zM212 461h-35l57 127h81z" />
    <glyph glyph-name="Rcommaaccent" unicode="&#x156;" horiz-adv-x="694" 
d="M335 16q10 0 10 -10q0 -9 -10 -9q-38 1 -71.5 2t-71.5 1q-23 0 -47 -0.5t-44.5 -1t-35 -1t-18.5 -0.5q-9 0 -11.5 2t-2.5 7q0 10 10 10h98v681h-98q-10 0 -10 10q0 4 2 6.5t10 2.5q3 0 25.5 -0.5t51 -1.5t56 -1.5t40.5 -0.5q23 0 46 1.5t52 1.5q42 0 87.5 -6t84 -24
t63.5 -52t25 -90q0 -41 -14.5 -72.5t-38.5 -53t-56 -35t-66 -18.5q63 -12 97 -36t49.5 -56.5t18.5 -70.5t3 -78q0 -20 1.5 -39.5t7.5 -36t18 -26.5t32 -10q16 0 28 5t17 7q6 3 9 3q7 0 7 -7q0 -5 -5 -9q-3 -3 -19.5 -10.5t-54.5 -7.5q-49 0 -77.5 15t-42.5 39t-18 53.5
t-5 58.5q-2 47 -5.5 83.5t-20.5 62t-51.5 38.5t-97.5 13h-51v-339h94zM279 374q30 0 64 3.5t62.5 19t47.5 47t19 87.5q0 57 -20 90t-52.5 50t-74 21.5t-84.5 4.5v-323h38zM336 -237q-10 0 -10 8q0 7 5.5 8t13.5 3q23 5 39 16t26 24.5t14.5 26.5t4.5 22q0 8 -3.5 15.5
t-9.5 7.5q-4 0 -7 -4.5t-7.5 -10t-11.5 -10t-20 -4.5q-19 0 -31.5 11t-12.5 33q0 23 15 35t35 12q25 0 47 -19t22 -58q0 -29 -13 -50.5t-31 -36t-36.5 -22t-28.5 -7.5z" />
    <glyph glyph-name="rcommaaccent" unicode="&#x157;" horiz-adv-x="386" 
d="M268 16q5 0 8 -3t3 -6q0 -10 -11 -10q-16 0 -28.5 0.5l-25 1t-26.5 1t-33 0.5q-47 0 -76.5 -1.5t-43.5 -1.5q-11 0 -11 10q0 3 3 6t8 3h69v342q0 23 -6.5 30t-23.5 7h-39q-11 0 -11 10q0 3 3 6t8 3q19 0 32.5 -0.5t24 -0.5h19.5h21q29 0 43.5 2.5t19.5 2.5q4 0 4 -9v-66
q4 14 11.5 29t18.5 27t27 20t38 8q29 0 52 -16.5t23 -56.5q0 -27 -13 -44t-39 -17q-24 0 -34 13t-10 30q0 19 12 32t32 13q11 0 15.5 -2.5t6.5 -2.5q1 0 1 3q0 11 -14 20t-34 9q-27 0 -44.5 -18.5t-28.5 -46.5t-15.5 -61t-4.5 -62v-204h69zM117 -237q-9 0 -9 8q0 7 5.5 8
t13.5 3q23 5 39 16t25.5 24.5t14 26.5t4.5 22q0 8 -3 15.5t-9 7.5q-4 0 -7 -4.5t-7.5 -10t-12 -10t-20.5 -4.5q-18 0 -30.5 11t-12.5 33q0 23 15 35t35 12q24 0 46 -19t22 -58q0 -29 -13 -50.5t-31 -36t-36.5 -22t-28.5 -7.5z" />
    <glyph glyph-name="Rcaron" unicode="&#x158;" horiz-adv-x="694" 
d="M335 16q10 0 10 -10q0 -9 -10 -9q-38 1 -71.5 2t-71.5 1q-23 0 -47 -0.5t-44.5 -1t-35 -1t-18.5 -0.5q-9 0 -11.5 2t-2.5 7q0 10 10 10h98v681h-98q-10 0 -10 10q0 4 2 6.5t10 2.5q3 0 25.5 -0.5t51 -1.5t56 -1.5t40.5 -0.5q23 0 46 1.5t52 1.5q42 0 87.5 -6t84 -24
t63.5 -52t25 -90q0 -41 -14.5 -72.5t-38.5 -53t-56 -35t-66 -18.5q63 -12 97 -36t49.5 -56.5t18.5 -70.5t3 -78q0 -20 1.5 -39.5t7.5 -36t18 -26.5t32 -10q16 0 28 5t17 7q6 3 9 3q7 0 7 -7q0 -5 -5 -9q-3 -3 -19.5 -10.5t-54.5 -7.5q-49 0 -77.5 15t-42.5 39t-18 53.5
t-5 58.5q-2 47 -5.5 83.5t-20.5 62t-51.5 38.5t-97.5 13h-51v-339h94zM279 374q30 0 64 3.5t62.5 19t47.5 47t19 87.5q0 57 -20 90t-52.5 50t-74 21.5t-84.5 4.5v-323h38zM473 879l-132 -119h-26l-132 119l14 13l131 -87l131 87z" />
    <glyph glyph-name="rcaron" unicode="&#x159;" horiz-adv-x="386" 
d="M268 16q5 0 8 -3t3 -6q0 -10 -11 -10q-16 0 -28.5 0.5l-25 1t-26.5 1t-33 0.5q-47 0 -76.5 -1.5t-43.5 -1.5q-11 0 -11 10q0 3 3 6t8 3h69v342q0 23 -6.5 30t-23.5 7h-39q-11 0 -11 10q0 3 3 6t8 3q19 0 32.5 -0.5t24 -0.5h19.5h21q29 0 43.5 2.5t19.5 2.5q4 0 4 -9v-66
q4 14 11.5 29t18.5 27t27 20t38 8q29 0 52 -16.5t23 -56.5q0 -27 -13 -44t-39 -17q-24 0 -34 13t-10 30q0 19 12 32t32 13q11 0 15.5 -2.5t6.5 -2.5q1 0 1 3q0 11 -14 20t-34 9q-27 0 -44.5 -18.5t-28.5 -46.5t-15.5 -61t-4.5 -62v-204h69zM346 579l-132 -118h-26l-133 118
l15 14l131 -88l131 88z" />
    <glyph glyph-name="Sacute" unicode="&#x15a;" horiz-adv-x="581" 
d="M85 20q0 -16 -11 -16q-9 0 -9 16v205q0 16 8 16q5 0 8 -2t3 -14q0 -48 20.5 -88t52 -69t70 -45.5t73.5 -16.5q38 0 70 10.5t55.5 31.5t36.5 52.5t13 72.5q0 58 -30 89.5t-75 50t-97.5 31.5t-97.5 34.5t-75 59t-30 104.5q0 47 16.5 83t44 60t63.5 36t75 12q74 0 148 -48
q17 -11 21.5 -13t9.5 -2t6 3.5t1 9.5v29q0 16 11 16q12 0 12 -16q0 -46 3 -77.5t6.5 -51t6.5 -29.5t3 -13t-1 -5.5t-6 -2.5q-4 0 -8.5 2.5t-6.5 13.5q-8 39 -28.5 69.5t-49 51.5t-62.5 31.5t-68 10.5q-29 0 -57.5 -8.5t-51 -25t-36 -41t-13.5 -55.5q0 -36 18 -59t48 -37.5
t67.5 -24.5t77.5 -21t77.5 -26t67.5 -40.5t48 -64t18 -95.5q0 -31 -12.5 -70.5t-40 -74t-71.5 -58.5t-107 -24q-39 0 -69.5 12.5t-54 27t-41.5 27t-31 12.5q-9 0 -14 -12t-5 -26v-8zM284 760h-35l57 127h80z" />
    <glyph glyph-name="sacute" unicode="&#x15b;" horiz-adv-x="402" 
d="M51 129q0 10 10 10q5 0 7 -1.5t2 -8.5q0 -29 12.5 -51.5t32 -38.5t44.5 -24.5t50 -8.5q19 0 38.5 5.5t35.5 16t25.5 27t9.5 38.5q0 30 -20 46t-50 26t-65 18t-65 22.5t-50 40t-20 70.5q0 28 11.5 49.5t29.5 36.5t41 23t46 8q42 0 64.5 -12t42.5 -27q11 -8 14 -8q4 0 4 14
v17q0 10 9 10q10 0 10 -10v-28.5t1 -21.5t3 -20t5 -23q2 -4 2 -8q0 -6 -11 -6q-5 0 -9 9q-29 55 -61.5 75t-75.5 20q-33 0 -57.5 -20t-24.5 -53q0 -25 20.5 -37.5t51 -20.5t66 -15.5t66 -22.5t51 -41.5t20.5 -72.5q0 -63 -44 -103.5t-120 -40.5q-26 0 -47 7.5t-37 16t-27 16
t-16 7.5t-5.5 -5.5t-0.5 -19.5q0 -6 -1.5 -8.5t-7.5 -2.5q-10 0 -10 11v120zM176 461h-35l57 127h81z" />
    <glyph glyph-name="Scircumflex" unicode="&#x15c;" horiz-adv-x="581" 
d="M85 20q0 -16 -11 -16q-9 0 -9 16v205q0 16 8 16q5 0 8 -2t3 -14q0 -48 20.5 -88t52 -69t70 -45.5t73.5 -16.5q38 0 70 10.5t55.5 31.5t36.5 52.5t13 72.5q0 58 -30 89.5t-75 50t-97.5 31.5t-97.5 34.5t-75 59t-30 104.5q0 47 16.5 83t44 60t63.5 36t75 12q74 0 148 -48
q17 -11 21.5 -13t9.5 -2t6 3.5t1 9.5v29q0 16 11 16q12 0 12 -16q0 -46 3 -77.5t6.5 -51t6.5 -29.5t3 -13t-1 -5.5t-6 -2.5q-4 0 -8.5 2.5t-6.5 13.5q-8 39 -28.5 69.5t-49 51.5t-62.5 31.5t-68 10.5q-29 0 -57.5 -8.5t-51 -25t-36 -41t-13.5 -55.5q0 -36 18 -59t48 -37.5
t67.5 -24.5t77.5 -21t77.5 -26t67.5 -40.5t48 -64t18 -95.5q0 -31 -12.5 -70.5t-40 -74t-71.5 -58.5t-107 -24q-39 0 -69.5 12.5t-54 27t-41.5 27t-31 12.5q-9 0 -14 -12t-5 -26v-8zM425 773l-14 -13l-131 87l-131 -87l-14 13l132 119h26z" />
    <glyph glyph-name="scircumflex" unicode="&#x15d;" horiz-adv-x="402" 
d="M51 129q0 10 10 10q5 0 7 -1.5t2 -8.5q0 -29 12.5 -51.5t32 -38.5t44.5 -24.5t50 -8.5q19 0 38.5 5.5t35.5 16t25.5 27t9.5 38.5q0 30 -20 46t-50 26t-65 18t-65 22.5t-50 40t-20 70.5q0 28 11.5 49.5t29.5 36.5t41 23t46 8q42 0 64.5 -12t42.5 -27q11 -8 14 -8q4 0 4 14
v17q0 10 9 10q10 0 10 -10v-28.5t1 -21.5t3 -20t5 -23q2 -4 2 -8q0 -6 -11 -6q-5 0 -9 9q-29 55 -61.5 75t-75.5 20q-33 0 -57.5 -20t-24.5 -53q0 -25 20.5 -37.5t51 -20.5t66 -15.5t66 -22.5t51 -41.5t20.5 -72.5q0 -63 -44 -103.5t-120 -40.5q-26 0 -47 7.5t-37 16t-27 16
t-16 7.5t-5.5 -5.5t-0.5 -19.5q0 -6 -1.5 -8.5t-7.5 -2.5q-10 0 -10 11v120zM335 474l-14 -13l-131 87l-132 -87l-14 13l132 119h27z" />
    <glyph glyph-name="Scedilla" unicode="&#x15e;" horiz-adv-x="582" 
d="M275 -67q25 12 52 12q43 0 68.5 -20.5t25.5 -48.5q0 -12 -5 -27t-16.5 -28.5t-31 -22.5t-49.5 -9q-6 0 -20 1.5t-28.5 4.5t-25 7t-10.5 8t3 4t18 -3.5t27 -3.5q15 0 29.5 4t26 12.5t18.5 22t7 33.5q0 25 -16 38t-37 13q-15 0 -29.5 -7.5t-23.5 -22.5q-7 -12 -10 -12
q-5 0 -6.5 2t-1.5 4l1.5 2.5t6 12t14 28t26.5 50.5q-36 2 -64.5 14.5t-51 27t-39.5 26t-29 11.5q-9 0 -14 -12t-5 -26v-8q0 -16 -11 -16q-9 0 -9 16v205q0 16 8 16q5 0 8 -2t3 -14q0 -48 20.5 -88t52 -69t70 -45.5t73.5 -16.5q38 0 70 10.5t55.5 31.5t36.5 52.5t13 72.5
q0 58 -30 89.5t-75 50t-97.5 31.5t-97.5 34.5t-75 59t-30 104.5q0 47 16.5 83t44 60t63.5 36t75 12q74 0 148 -48q17 -11 21.5 -13t9.5 -2t6 3.5t1 9.5v29q0 16 11 16q12 0 12 -16q0 -46 3 -77.5t6.5 -51t6.5 -29.5t3 -13t-1 -5.5t-6 -2.5q-4 0 -8.5 2.5t-6.5 13.5
q-8 39 -28.5 69.5t-49 51.5t-62.5 31.5t-68 10.5q-29 0 -57.5 -8.5t-51 -25t-36 -41t-13.5 -55.5q0 -36 18 -59t48 -37.5t67.5 -24.5t77.5 -21t77.5 -26t67.5 -40.5t48 -64t18 -95.5q0 -31 -12.5 -70t-39.5 -73.5t-70.5 -58.5t-105.5 -25z" />
    <glyph glyph-name="scedilla" unicode="&#x15f;" horiz-adv-x="403" 
d="M183 -67q25 13 52 13q43 0 68 -20.5t25 -49.5q0 -11 -5 -26t-16.5 -28.5t-31 -22.5t-48.5 -9q-7 0 -21 1.5t-28 4.5t-24.5 7t-10.5 8t3 4t17.5 -3.5t26.5 -3.5q15 0 29.5 4t26 12.5t18.5 22t7 33.5q0 25 -15.5 38t-36.5 13q-15 0 -29.5 -7.5t-23.5 -22.5q-7 -12 -11 -12
t-5.5 2t-1.5 4l1 2.5t6 12t14 27.5t26 50q-24 1 -43.5 8.5t-35 16t-26 15.5t-14.5 7q-5 0 -5.5 -5.5t-0.5 -19.5q0 -6 -1.5 -8.5t-7.5 -2.5q-10 0 -10 11v120q0 10 10 10q5 0 7 -1.5t2 -8.5q0 -29 12.5 -51.5t32 -38.5t44.5 -24.5t50 -8.5q19 0 38.5 5.5t35.5 16t25.5 27
t9.5 38.5q0 30 -20 46t-50 26t-65 18t-65 22.5t-50 40t-20 70.5q0 28 11.5 49.5t29.5 36.5t41 23t46 8q42 0 64.5 -12t42.5 -27q11 -8 14 -8q4 0 4 14v17q0 10 9 10q10 0 10 -10v-28.5t1 -21.5t3 -20t5 -23q2 -4 2 -8q0 -6 -11 -6q-5 0 -9 9q-29 55 -61.5 75t-75.5 20
q-33 0 -57.5 -20t-24.5 -53q0 -25 20.5 -37.5t51 -20.5t66 -15.5t66 -22.5t51 -41.5t20.5 -72.5q0 -31 -11 -57t-31 -45t-49.5 -30t-65.5 -12z" />
    <glyph glyph-name="Scaron" unicode="&#x160;" horiz-adv-x="581" 
d="M85 20q0 -16 -11 -16q-9 0 -9 16v205q0 16 8 16q5 0 8 -2t3 -14q0 -48 20.5 -88t52 -69t70 -45.5t73.5 -16.5q38 0 70 10.5t55.5 31.5t36.5 52.5t13 72.5q0 58 -30 89.5t-75 50t-97.5 31.5t-97.5 34.5t-75 59t-30 104.5q0 47 16.5 83t44 60t63.5 36t75 12q74 0 148 -48
q17 -11 21.5 -13t9.5 -2t6 3.5t1 9.5v29q0 16 11 16q12 0 12 -16q0 -46 3 -77.5t6.5 -51t6.5 -29.5t3 -13t-1 -5.5t-6 -2.5q-4 0 -8.5 2.5t-6.5 13.5q-8 39 -28.5 69.5t-49 51.5t-62.5 31.5t-68 10.5q-29 0 -57.5 -8.5t-51 -25t-36 -41t-13.5 -55.5q0 -36 18 -59t48 -37.5
t67.5 -24.5t77.5 -21t77.5 -26t67.5 -40.5t48 -64t18 -95.5q0 -31 -12.5 -70.5t-40 -74t-71.5 -58.5t-107 -24q-39 0 -69.5 12.5t-54 27t-41.5 27t-31 12.5q-9 0 -14 -12t-5 -26v-8zM425 879l-132 -119h-26l-132 119l14 13l131 -87l131 87z" />
    <glyph glyph-name="scaron" unicode="&#x161;" horiz-adv-x="402" 
d="M51 129q0 10 10 10q5 0 7 -1.5t2 -8.5q0 -29 12.5 -51.5t32 -38.5t44.5 -24.5t50 -8.5q19 0 38.5 5.5t35.5 16t25.5 27t9.5 38.5q0 30 -20 46t-50 26t-65 18t-65 22.5t-50 40t-20 70.5q0 28 11.5 49.5t29.5 36.5t41 23t46 8q42 0 64.5 -12t42.5 -27q11 -8 14 -8q4 0 4 14
v17q0 10 9 10q10 0 10 -10v-28.5t1 -21.5t3 -20t5 -23q2 -4 2 -8q0 -6 -11 -6q-5 0 -9 9q-29 55 -61.5 75t-75.5 20q-33 0 -57.5 -20t-24.5 -53q0 -25 20.5 -37.5t51 -20.5t66 -15.5t66 -22.5t51 -41.5t20.5 -72.5q0 -63 -44 -103.5t-120 -40.5q-26 0 -47 7.5t-37 16t-27 16
t-16 7.5t-5.5 -5.5t-0.5 -19.5q0 -6 -1.5 -8.5t-7.5 -2.5q-10 0 -10 11v120zM335 579l-132 -118h-27l-132 118l14 14l132 -88l131 88z" />
    <glyph glyph-name="Tcommaaccent" unicode="&#x162;" horiz-adv-x="646" 
d="M468 16q5 0 7.5 -3t2.5 -6q0 -10 -10 -10q-38 1 -72 2t-72 1q-23 0 -47 -0.5t-44 -1t-35.5 -1t-22.5 -0.5q-10 0 -10 10q0 3 2.5 6t7.5 3h98v680h-45q-63 0 -98.5 -14.5t-53.5 -38t-24 -53.5t-9 -60q-1 -11 -3 -13.5t-7 -2.5q-7 0 -8 4t-1 12l11 185q18 -1 33 -1.5t32 -1
t38.5 -0.5h51.5h265h51.5t38.5 0.5t32.5 1t32.5 1.5l12 -185q0 -8 -1 -12t-8 -4t-8.5 4t-1.5 12q-3 30 -9 60t-24.5 53.5t-54 38t-98.5 14.5h-44v-680h95zM280 -237q-3 0 -6 1.5t-3 6.5q0 7 5.5 8t13.5 3q23 5 39 16t26 24.5t14.5 26.5t4.5 22q0 8 -3.5 15.5t-9.5 7.5
q-4 0 -7 -4.5t-7.5 -10t-11.5 -10t-20 -4.5q-19 0 -31.5 11t-12.5 33q0 23 15 35t35 12q25 0 47 -19t22 -58q0 -29 -13.5 -50.5t-31.5 -36t-36.5 -22t-28.5 -7.5z" />
    <glyph glyph-name="tcommaaccent" unicode="&#x163;" horiz-adv-x="342" 
d="M190 397v-192q0 -12 -0.5 -30t-0.5 -36t-0.5 -33.5t-0.5 -23.5q0 -15 2 -28.5t7 -24t15 -16.5t26 -6q34 0 48.5 24t14.5 51q0 7 1 13t8 6q8 0 9 -6t1 -13q0 -21 -5 -38t-18 -30t-35 -20t-56 -7q-40 0 -62.5 11t-33 36.5t-13 67t-2.5 103.5v192q-22 0 -42.5 -1t-39.5 -1
q-11 0 -11 10q0 9 11 9q14 0 40.5 5t52.5 25t45.5 60.5t19.5 111.5v42q0 8 1 13.5t9 5.5q7 0 8 -5.5t1 -13.5v-245h55t30 0.5t13.5 0.5h6.5q13 0 15.5 -3t2.5 -5q0 -11 -11 -11zM160 -238q-10 0 -10 8q0 7 5.5 8t13.5 3q23 5 39 16t26 24.5t14.5 26.5t4.5 22q0 8 -3.5 15.5
t-8.5 7.5q-4 0 -7 -4.5t-7.5 -10t-12 -10t-20.5 -4.5q-19 0 -31.5 11t-12.5 33q0 23 15.5 35t35.5 12q24 0 46 -19t22 -58q0 -29 -13 -50.5t-31 -36t-36.5 -22t-28.5 -7.5z" />
    <glyph glyph-name="Tcaron" unicode="&#x164;" horiz-adv-x="645" 
d="M468 16q5 0 7.5 -3t2.5 -6q0 -10 -10 -10q-38 1 -72 2t-72 1q-23 0 -47 -0.5t-44 -1t-35.5 -1t-22.5 -0.5q-10 0 -10 10q0 3 2.5 6t7.5 3h98v680h-45q-63 0 -98.5 -14.5t-53.5 -38t-24 -53.5t-9 -60q-1 -11 -3 -13.5t-7 -2.5q-7 0 -8 4t-1 12l11 185q18 -1 33 -1.5t32 -1
t38.5 -0.5h51.5h265h51.5t38.5 0.5t32.5 1t32.5 1.5l12 -185q0 -8 -1 -12t-8 -4t-8.5 4t-1.5 12q-3 30 -9 60t-24.5 53.5t-54 38t-98.5 14.5h-44v-680h95zM468 879l-132 -119h-27l-132 119l14 13l131 -87l131 87z" />
    <glyph glyph-name="tcaron" unicode="&#x165;" horiz-adv-x="343" 
d="M190 397v-192q0 -12 -0.5 -30t-0.5 -36t-0.5 -33.5t-0.5 -23.5q0 -15 2 -28.5t7 -24t15 -16.5t26 -6q34 0 48.5 24t14.5 51q0 7 1 13t8 6q8 0 9 -6t1 -13q0 -21 -5 -38t-18 -30t-35 -20t-56 -7q-40 0 -62.5 11t-33 36.5t-13 67t-2.5 103.5v192q-22 0 -42.5 -1t-39.5 -1
q-11 0 -11 10q0 9 11 9q14 0 40.5 5t52.5 25t45.5 60.5t19.5 111.5v42q0 8 1 13.5t9 5.5q7 0 8 -5.5t1 -13.5v-245h55t30 0.5t13.5 0.5h6.5q13 0 15.5 -3t2.5 -5q0 -11 -11 -11zM284 482q-5 0 -8.5 2t-3.5 7q0 8 7 9.5t16 3.5q28 7 48 21t32 30.5t17.5 32.5t5.5 27
q0 10 -3.5 18.5t-10.5 8.5q-5 0 -8.5 -5.5t-9.5 -12t-15 -12t-25 -5.5q-23 0 -38.5 14t-15.5 40q0 29 18.5 44t44.5 15q15 0 30 -6t26.5 -17.5t19 -29.5t7.5 -42q0 -36 -16 -63t-38 -44.5t-44.5 -26.5t-35.5 -9z" />
    <glyph glyph-name="Tbar" unicode="&#x166;" horiz-adv-x="644" 
d="M467 16q5 0 8 -3t3 -6q0 -10 -11 -10q-39 1 -73 2t-73 1t-73 -1t-73 -2q-11 0 -11 10q0 3 3 6t8 3h98v378h-156v19h156v283h-45q-51 0 -85.5 -10.5t-56.5 -31.5t-32 -52t-11 -72q-1 -11 -3.5 -13.5t-7.5 -2.5q-6 0 -7 4t-1 12l11 185q18 -1 37.5 -1.5t50.5 -1t78.5 -0.5
h120.5h135.5t77.5 0.5t42.5 1t32.5 1.5l11 -185q0 -8 -1 -12t-7 -4q-5 0 -7.5 2.5t-3.5 13.5q-2 41 -11.5 72t-31.5 52t-56.5 31.5t-85.5 10.5h-45v-283h157v-19h-157v-378h95z" />
    <glyph glyph-name="tbar" unicode="&#x167;" horiz-adv-x="345" 
d="M192 271v-66q0 -12 -0.5 -30t-0.5 -36t-0.5 -33.5t-0.5 -23.5q0 -15 2 -28.5t7 -24t15 -16.5t26 -6q34 0 48.5 24t14.5 51q0 7 1 13t8 6q8 0 9 -6t1 -13q0 -21 -5 -38t-18 -30t-35 -20t-56 -7q-40 0 -62.5 10.5t-33 31.5t-13 53t-2.5 76v113h-76v19h76v107
q-22 0 -42.5 -1t-39.5 -1q-11 0 -11 10q0 9 11 9q14 0 40.5 5t52.5 25t45.5 60.5t19.5 111.5v42q0 8 1 13.5t9 5.5q7 0 8 -5.5t1 -13.5v-245h55t30 0.5t13.5 0.5h6.5q13 0 15.5 -3t2.5 -5q0 -11 -11 -11l-112 2v-107h105v-19h-105z" />
    <glyph glyph-name="Utilde" unicode="&#x168;" horiz-adv-x="764" 
d="M616 622q0 24 -7 38.5t-18.5 22.5t-26.5 10.5t-32 2.5h-17q-10 0 -10 10q0 9 10 9q19 0 31.5 -0.5t23.5 -1t23 -1t32 -0.5t32.5 0.5t23 1t23 1t32.5 0.5q10 0 10 -9q0 -10 -10 -10h-17q-21 0 -37 -3t-26.5 -13t-15.5 -30t-5 -53v-356q0 -59 -8.5 -106t-32 -80
t-65.5 -50.5t-108 -17.5q-90 0 -147.5 15.5t-90 48.5t-44.5 85t-12 125v435h-98q-11 0 -11 10q0 9 11 9q39 -1 73 -2t73 -1t73 1t73 2q11 0 11 -9q0 -10 -11 -10h-95v-450q0 -56 3.5 -100.5t22.5 -75.5t58 -47.5t111 -16.5q59 0 97 14.5t59.5 43.5t30 72t8.5 100v386z
M573 825q-14 -39 -32 -52t-38 -13t-44 6t-48 13.5t-46.5 13.5t-37.5 6q-11 0 -22 -5t-20.5 -11.5t-16.5 -13t-10 -9.5q-2 -2 -5 -4.5t-5 -2.5q-5 0 -5 6q0 5 7 11q24 23 38.5 37.5t25 22t20 10t23.5 2.5q13 0 34 -5.5t43.5 -12.5t44 -12.5t36.5 -5.5q14 0 26.5 6t23.5 22
q3 6 6 6q5 0 5 -5q0 -3 -3 -10z" />
    <glyph glyph-name="utilde" unicode="&#x169;" horiz-adv-x="558" 
d="M535 17q5 0 7.5 -3t2.5 -6q0 -10 -10 -10q-11 1 -28 1.5t-33 0.5q-22 0 -47 -1t-35 -1q-13 0 -18 5q-4 4 -4 22v71q0 -2 -7 -19.5t-23.5 -37.5t-44.5 -36t-71 -16q-41 0 -67.5 16t-42 41t-21.5 55.5t-6 58.5v200q0 23 -6 30t-23 7h-40q-10 0 -10 10q0 3 2.5 6t7.5 3
q16 0 28 -0.5t22.5 -0.5h21.5h26q29 0 43.5 1t18.5 1t4 -8v-292q0 -45 13 -76.5t52 -31.5q26 0 48.5 14.5t39 39t26 56t9.5 66.5v175q0 23 -6 30t-23 7h-40q-10 0 -10 10q0 3 2.5 6t7.5 3q16 0 28 -0.5t22.5 -0.5h21.5h26q29 0 43.5 2.5t19.5 2.5q3 0 3 -9v-392h70zM420 525
q-14 -38 -32.5 -51t-37.5 -13q-20 0 -44 6t-48.5 13.5t-46.5 13.5t-37 6q-12 0 -23 -5t-20 -11.5t-16 -13t-11 -9.5q-1 -2 -4 -4.5t-5 -2.5t-4 2t-2 4q0 3 8 11q24 23 38 37t24.5 21.5t20 10t23.5 2.5q13 0 34 -5.5t43.5 -12.5t44.5 -12.5t37 -5.5q14 0 26 6.5t23 22.5
q4 6 7 6q5 0 5 -5q0 -2 -3 -11z" />
    <glyph glyph-name="Umacron" unicode="&#x16a;" horiz-adv-x="764" 
d="M616 622q0 24 -7 38.5t-18.5 22.5t-26.5 10.5t-32 2.5h-17q-10 0 -10 10q0 9 10 9q19 0 31.5 -0.5t23.5 -1t23 -1t32 -0.5t32.5 0.5t23 1t23 1t32.5 0.5q10 0 10 -9q0 -10 -10 -10h-17q-21 0 -37 -3t-26.5 -13t-15.5 -30t-5 -53v-356q0 -59 -8.5 -106t-32 -80
t-65.5 -50.5t-108 -17.5q-90 0 -147.5 15.5t-90 48.5t-44.5 85t-12 125v435h-98q-11 0 -11 10q0 9 11 9q39 -1 73 -2t73 -1t73 1t73 2q11 0 11 -9q0 -10 -11 -10h-95v-450q0 -56 3.5 -100.5t22.5 -75.5t58 -47.5t111 -16.5q59 0 97 14.5t59.5 43.5t30 72t8.5 100v386z
M262 779v28h294v-28h-294z" />
    <glyph glyph-name="umacron" unicode="&#x16b;" horiz-adv-x="558" 
d="M535 17q5 0 7.5 -3t2.5 -6q0 -10 -10 -10q-11 1 -28 1.5t-33 0.5q-22 0 -47 -1t-35 -1q-13 0 -18 5q-4 4 -4 22v71q0 -2 -7 -19.5t-23.5 -37.5t-44.5 -36t-71 -16q-41 0 -67.5 16t-42 41t-21.5 55.5t-6 58.5v200q0 23 -6 30t-23 7h-40q-10 0 -10 10q0 3 2.5 6t7.5 3
q16 0 28 -0.5t22.5 -0.5h21.5h26q29 0 43.5 1t18.5 1t4 -8v-292q0 -45 13 -76.5t52 -31.5q26 0 48.5 14.5t39 39t26 56t9.5 66.5v175q0 23 -6 30t-23 7h-40q-10 0 -10 10q0 3 2.5 6t7.5 3q16 0 28 -0.5t22.5 -0.5h21.5h26q29 0 43.5 2.5t19.5 2.5q3 0 3 -9v-392h70zM106 480
v28h295v-28h-295z" />
    <glyph glyph-name="Ubreve" unicode="&#x16c;" horiz-adv-x="764" 
d="M616 622q0 24 -7 38.5t-18.5 22.5t-26.5 10.5t-32 2.5h-17q-10 0 -10 10q0 9 10 9q19 0 31.5 -0.5t23.5 -1t23 -1t32 -0.5t32.5 0.5t23 1t23 1t32.5 0.5q10 0 10 -9q0 -10 -10 -10h-17q-21 0 -37 -3t-26.5 -13t-15.5 -30t-5 -53v-356q0 -59 -8.5 -106t-32 -80
t-65.5 -50.5t-108 -17.5q-90 0 -147.5 15.5t-90 48.5t-44.5 85t-12 125v435h-98q-11 0 -11 10q0 9 11 9q39 -1 73 -2t73 -1t73 1t73 2q11 0 11 -9q0 -10 -11 -10h-95v-450q0 -56 3.5 -100.5t22.5 -75.5t58 -47.5t111 -16.5q59 0 97 14.5t59.5 43.5t30 72t8.5 100v386z
M533 883q0 -14 -3.5 -35t-16 -40.5t-37 -33.5t-67.5 -14t-68 14t-37.5 33.5t-16 40.5t-3.5 35q0 12 2 15.5t8 3.5q5 0 7 -3.5t2 -15.5q0 -11 1.5 -27.5t11.5 -31.5t31.5 -25.5t61.5 -10.5q39 0 60.5 10.5t31.5 25.5t11.5 31.5t1.5 27.5q0 12 2 15.5t8 3.5q5 0 7 -3.5
t2 -15.5z" />
    <glyph glyph-name="ubreve" unicode="&#x16d;" horiz-adv-x="558" 
d="M535 17q5 0 7.5 -3t2.5 -6q0 -10 -10 -10q-11 1 -28 1.5t-33 0.5q-22 0 -47 -1t-35 -1q-13 0 -18 5q-4 4 -4 22v71q0 -2 -7 -19.5t-23.5 -37.5t-44.5 -36t-71 -16q-41 0 -67.5 16t-42 41t-21.5 55.5t-6 58.5v200q0 23 -6 30t-23 7h-40q-10 0 -10 10q0 3 2.5 6t7.5 3
q16 0 28 -0.5t22.5 -0.5h21.5h26q29 0 43.5 1t18.5 1t4 -8v-292q0 -45 13 -76.5t52 -31.5q26 0 48.5 14.5t39 39t26 56t9.5 66.5v175q0 23 -6 30t-23 7h-40q-10 0 -10 10q0 3 2.5 6t7.5 3q16 0 28 -0.5t22.5 -0.5h21.5h26q29 0 43.5 2.5t19.5 2.5q3 0 3 -9v-392h70zM374 584
q0 -14 -3.5 -35t-16 -40.5t-37 -33.5t-67.5 -14t-68 14t-37.5 33.5t-16 40.5t-3.5 35q0 11 2 15t8 4q5 0 7 -4t2 -15t1.5 -27.5t11.5 -31.5t31.5 -25.5t61.5 -10.5q39 0 60.5 10.5t31.5 25.5t11.5 31.5t1.5 27.5t2 15t8 4q5 0 7 -4t2 -15z" />
    <glyph glyph-name="Uring" unicode="&#x16e;" horiz-adv-x="764" 
d="M616 622q0 24 -7 38.5t-18.5 22.5t-26.5 10.5t-32 2.5h-17q-10 0 -10 10q0 9 10 9q19 0 31.5 -0.5t23.5 -1t23 -1t32 -0.5t32.5 0.5t23 1t23 1t32.5 0.5q10 0 10 -9q0 -10 -10 -10h-17q-21 0 -37 -3t-26.5 -13t-15.5 -30t-5 -53v-356q0 -59 -8.5 -106t-32 -80
t-65.5 -50.5t-108 -17.5q-90 0 -147.5 15.5t-90 48.5t-44.5 85t-12 125v435h-98q-11 0 -11 10q0 9 11 9q39 -1 73 -2t73 -1t73 1t73 2q11 0 11 -9q0 -10 -11 -10h-95v-450q0 -56 3.5 -100.5t22.5 -75.5t58 -47.5t111 -16.5q59 0 97 14.5t59.5 43.5t30 72t8.5 100v386z
M487 826q0 -17 -7 -29.5t-18.5 -20.5t-25.5 -12t-27 -4q-14 0 -27.5 4t-25 12t-18.5 20.5t-7 29.5t7 29t18.5 20t25 12t27.5 4q13 0 27 -4t25.5 -12t18.5 -20t7 -29zM409 775q19 0 29.5 14.5t10.5 36.5q0 21 -10.5 36t-29.5 15q-20 0 -30 -15t-10 -36q0 -22 10 -36.5
t30 -14.5z" />
    <glyph glyph-name="uring" unicode="&#x16f;" horiz-adv-x="558" 
d="M535 17q5 0 7.5 -3t2.5 -6q0 -10 -10 -10q-11 1 -28 1.5t-33 0.5q-22 0 -47 -1t-35 -1q-13 0 -18 5q-4 4 -4 22v71q0 -2 -7 -19.5t-23.5 -37.5t-44.5 -36t-71 -16q-41 0 -67.5 16t-42 41t-21.5 55.5t-6 58.5v200q0 23 -6 30t-23 7h-40q-10 0 -10 10q0 3 2.5 6t7.5 3
q16 0 28 -0.5t22.5 -0.5h21.5h26q29 0 43.5 1t18.5 1t4 -8v-292q0 -45 13 -76.5t52 -31.5q26 0 48.5 14.5t39 39t26 56t9.5 66.5v175q0 23 -6 30t-23 7h-40q-10 0 -10 10q0 3 2.5 6t7.5 3q16 0 28 -0.5t22.5 -0.5h21.5h26q29 0 43.5 2.5t19.5 2.5q3 0 3 -9v-392h70zM340 526
q0 -17 -7 -29t-18.5 -20t-25.5 -12t-27 -4q-14 0 -27.5 4t-25 12t-18.5 20t-7 29t7 29.5t18.5 20.5t25 12t27.5 4q13 0 27 -4t25.5 -12t18.5 -20.5t7 -29.5zM262 476q20 0 30 14.5t10 35.5q0 22 -10 37t-30 15q-19 0 -29.5 -15t-10.5 -37q0 -21 10.5 -35.5t29.5 -14.5z" />
    <glyph glyph-name="Uhungarumlaut" unicode="&#x170;" horiz-adv-x="764" 
d="M616 622q0 24 -7 38.5t-18.5 22.5t-26.5 10.5t-32 2.5h-17q-10 0 -10 10q0 9 10 9q19 0 31.5 -0.5t23.5 -1t23 -1t32 -0.5t32.5 0.5t23 1t23 1t32.5 0.5q10 0 10 -9q0 -10 -10 -10h-17q-21 0 -37 -3t-26.5 -13t-15.5 -30t-5 -53v-356q0 -59 -8.5 -106t-32 -80
t-65.5 -50.5t-108 -17.5q-90 0 -147.5 15.5t-90 48.5t-44.5 85t-12 125v435h-98q-11 0 -11 10q0 9 11 9q39 -1 73 -2t73 -1t73 1t73 2q11 0 11 -9q0 -10 -11 -10h-95v-450q0 -56 3.5 -100.5t22.5 -75.5t58 -47.5t111 -16.5q59 0 97 14.5t59.5 43.5t30 72t8.5 100v386z
M339 801q10 12 10 17q0 3 -2 6t-7.5 9t-16 15.5t-27.5 25.5q-14 12 -14 20q0 4 3.5 8t14.5 15q18 18 33.5 34.5t33.5 38.5q6 6 8 6t6 -4t4 -7t-4 -7l-20 -23q-10 -13 -10 -17q0 -3 2 -6t7.5 -9t16 -16t27.5 -25q13 -11 13 -20q0 -4 -3 -8t-14 -15q-18 -19 -33.5 -35.5
t-33.5 -37.5q-6 -6 -8 -6q-3 0 -6 4q-4 4 -4 6t4 8zM494 807q11 13 11 18q0 2 -2 5t-7.5 9t-16 16t-27.5 26q-14 10 -14 20q0 3 3 7t14 15q19 19 34.5 35.5t33.5 38.5l3.5 3.5t3.5 1.5q3 0 7 -4q4 -3 4 -6q0 -2 -4 -8l-20 -23q-10 -10 -10 -17q0 -2 1.5 -5.5t7 -9.5
t16 -15.5t28.5 -25.5q5 -5 9 -10t4 -10q0 -3 -3 -7.5t-14 -15.5q-19 -18 -34.5 -34.5t-32.5 -38.5q-5 -5 -8 -5t-7 3q-3 4 -3 7t3 8z" />
    <glyph glyph-name="uhungarumlaut" unicode="&#x171;" horiz-adv-x="558" 
d="M535 17q5 0 7.5 -3t2.5 -6q0 -10 -10 -10q-11 1 -28 1.5t-33 0.5q-22 0 -47 -1t-35 -1q-13 0 -18 5q-4 4 -4 22v71q0 -2 -7 -19.5t-23.5 -37.5t-44.5 -36t-71 -16q-41 0 -67.5 16t-42 41t-21.5 55.5t-6 58.5v200q0 23 -6 30t-23 7h-40q-10 0 -10 10q0 3 2.5 6t7.5 3
q16 0 28 -0.5t22.5 -0.5h21.5h26q29 0 43.5 1t18.5 1t4 -8v-292q0 -45 13 -76.5t52 -31.5q26 0 48.5 14.5t39 39t26 56t9.5 66.5v175q0 23 -6 30t-23 7h-40q-10 0 -10 10q0 3 2.5 6t7.5 3q16 0 28 -0.5t22.5 -0.5h21.5h26q29 0 43.5 2.5t19.5 2.5q3 0 3 -9v-392h70zM334 508
q11 13 11 17q0 5 -9.5 15t-43.5 41q-14 12 -14 20q0 4 3 8t14 15q19 19 34.5 35.5t33.5 37.5q6 6 7 6q3 0 7 -4t4 -6t-4 -8l-20 -23q-10 -12 -10 -17q0 -3 1.5 -6t7 -9t16 -15.5t28.5 -25.5q13 -11 13 -20q0 -4 -3 -8t-14 -15q-19 -18 -34.5 -34.5t-32.5 -38.5q-6 -6 -8 -6
q-3 0 -7 4q-3 4 -3 7q0 2 1 3.5t2 3.5zM179 502q10 12 10 17q0 2 -2 5t-7.5 9t-16 16t-27.5 26q-13 10 -13 20q0 3 3 7t14 15q18 19 33.5 35.5t33.5 38.5q2 2 4 3.5t4 1.5q1 0 6 -3q4 -4 4 -7q0 -2 -4 -8l-20 -23q-10 -12 -10 -17q0 -2 2 -5.5t7.5 -9.5t16 -15.5t27.5 -25.5
q13 -10 13 -20q0 -3 -3 -7t-14 -15q-18 -19 -33.5 -35.5t-33.5 -38.5q-2 -2 -4 -3.5t-4 -1.5q-3 0 -6 4q-4 3 -4 6q0 2 4 8z" />
    <glyph glyph-name="Uogonek" unicode="&#x172;" horiz-adv-x="767" 
d="M421 -13q-90 0 -147.5 15.5t-90 48.5t-44.5 85t-12 125v435h-98q-11 0 -11 10q0 9 11 9q39 -1 73 -2t73 -1t73 1t73 2q11 0 11 -9q0 -10 -11 -10h-95v-450q0 -56 3.5 -100.5t22.5 -75.5t58 -47.5t111 -16.5q59 0 97 14.5t59.5 43.5t30 72t8.5 100v386q0 24 -7 38.5
t-18.5 22.5t-26.5 10.5t-32 2.5h-17q-10 0 -10 10q0 9 10 9q19 0 31.5 -0.5t23.5 -1t23 -1t32 -0.5t32.5 0.5t23 1t23 1t32.5 0.5q10 0 10 -9q0 -10 -10 -10h-17q-21 0 -37 -3t-26.5 -13t-15.5 -30t-5 -53v-356q0 -54 -7 -98t-26 -76.5t-52.5 -52t-85.5 -25.5
q-33 -21 -48 -48.5t-15 -56.5q0 -20 7.5 -39t22 -33t35 -22.5t46.5 -8.5t41.5 6.5t18.5 6.5t3 -4t-7 -8t-18 -7.5t-23 -5.5t-24 -3.5t-22 -1.5q-32 0 -55.5 8.5t-39.5 22.5t-24 32.5t-8 38.5q0 32 19.5 64.5t60.5 56.5h-13z" />
    <glyph glyph-name="uogonek" unicode="&#x173;" horiz-adv-x="558" 
d="M458 0q-38 -22 -54 -50.5t-16 -58.5q0 -20 7.5 -39t21.5 -33.5t35 -23t47 -8.5t41.5 6.5t18.5 6.5q2 0 2 -3q0 -4 -6 -8q-7 -4 -18 -7.5t-23.5 -5.5t-24.5 -3.5t-22 -1.5q-31 0 -55 8.5t-40 22.5t-24 32.5t-8 38.5q0 34 22.5 68.5t69.5 58.5q-14 -1 -24.5 -1.5
t-15.5 -0.5q-13 0 -18 5q-4 4 -4 22v70q-1 -4 -8.5 -21t-24 -36.5t-44 -35t-69.5 -15.5q-41 0 -67.5 16t-42 41t-21.5 55.5t-6 58.5v200q0 23 -6 30t-23 7h-40q-10 0 -10 10q0 3 2.5 6t7.5 3q16 0 28 -0.5t22.5 -0.5h21.5h26q29 0 43.5 1t18.5 1t4 -8v-292q0 -45 13 -76.5
t52 -31.5q26 0 48.5 14.5t39 39t26 56t9.5 66.5v175q0 23 -6 30t-23 7h-40q-10 0 -10 10q0 3 2.5 6t7.5 3q16 0 28 -0.5t22.5 -0.5h21.5h26q29 0 43.5 2.5t19.5 2.5q3 0 3 -9v-392h70q5 0 7.5 -3t2.5 -6q0 -10 -10 -10q-11 1 -28 1.5t-33 0.5h-16z" />
    <glyph glyph-name="Wcircumflex" unicode="&#x174;" horiz-adv-x="928" 
d="M470 470l-136 -457q-7 -22 -10.5 -28t-8.5 -6q-8 0 -15 18l-211 639q-14 39 -24 49.5t-22 10.5h-60q-10 0 -10 10q0 9 10 9q22 0 39 -0.5l34 -1t35.5 -1t43.5 -0.5q62 0 90.5 1.5t41.5 1.5q11 0 11 -9q0 -10 -11 -10h-38q-21 0 -30 -3t-9 -16q0 -6 2 -12t4 -14l159 -507
l105 356l-45 136q-7 21 -12.5 33t-11 18t-10.5 7.5t-11 1.5h-36q-11 0 -11 10q0 9 11 9q22 0 35 -0.5t25.5 -1t27.5 -1t40 -0.5q62 0 97 1.5t43 1.5q9 0 11.5 -2.5t2.5 -5.5q0 -11 -11 -11h-49q-22 0 -32 -3t-10 -17q0 -5 2 -11t4 -14l160 -505l120 425q16 52 16 83
q0 22 -11 32t-38 10h-54q-11 0 -11 10q0 9 11 9q19 0 32 -0.5t24 -1t23.5 -1t30.5 -0.5q44 0 65.5 1.5t41.5 1.5q11 0 11 -9q0 -10 -11 -10h-14q-10 0 -21 -1t-22.5 -8.5t-22 -23.5t-19.5 -46l-171 -604q-5 -20 -9 -27t-10 -7q-7 0 -14 18zM617 773l-14 -13l-132 87
l-131 -87l-14 13l132 119h27z" />
    <glyph glyph-name="wcircumflex" unicode="&#x175;" horiz-adv-x="708" 
d="M351 287l-112 -284q-7 -16 -12 -16q-4 0 -7 10l-149 350q-13 30 -19 39t-20 9h-30q-3 0 -6 2.5t-3 7.5t3 7t6 2h15t14 -0.5t28.5 -0.5h58.5h61t33 0.5t15 0.5h6q12 0 12 -9q0 -10 -8 -10h-50q-8 0 -16 -1.5t-8 -9.5t11 -33l93 -222l105 265q5 11 8 15.5t11 4.5t11 -5
t8 -16l111 -264l79 203q5 11 9.5 24t4.5 24t-6.5 13t-21.5 2h-35q-3 0 -6 2.5t-3 7.5t3 7t6 2q23 -1 44.5 -1h23.5h44t24 0.5t11 0.5h5q12 0 12 -8q0 -6 -3 -8.5t-6 -2.5h-11q-14 0 -23.5 -0.5t-16.5 -4t-12 -11.5t-11 -22l-140 -354q-4 -9 -5.5 -12.5t-5.5 -3.5t-8 10z
M525 474l-14 -13l-131 87l-131 -87l-14 13l132 119h26z" />
    <glyph glyph-name="Ycircumflex" unicode="&#x176;" horiz-adv-x="575" 
d="M432 16q5 0 8 -3t3 -6q0 -10 -11 -10q-38 1 -71.5 2t-71.5 1q-23 0 -47 -0.5t-44 -1t-35.5 -1t-22.5 -0.5q-11 0 -11 10q0 3 3 6t8 3h98v327l-138 293q-10 21 -18.5 33t-16 18t-14 7.5t-13.5 1.5h-48q-11 0 -11 10q0 9 11 9q22 0 39 -0.5t33.5 -1t35.5 -1t44 -0.5
q30 0 51.5 0.5t36.5 1t24.5 1t16.5 0.5q10 0 10 -9q0 -10 -10 -10h-35q-18 0 -31.5 -2.5t-13.5 -16.5q0 -10 9 -26l132 -281l97 220q7 17 12 33.5t5 33.5q0 24 -11.5 31.5t-37.5 7.5h-20q-10 0 -10 10q0 9 10 9q19 0 30 -0.5t20 -1t19.5 -1t28.5 -0.5q22 0 38.5 0.5t29.5 1
t23.5 1t20.5 0.5q11 0 11 -9q0 -10 -11 -10h-17q-17 0 -31.5 -2t-28 -9.5t-26 -23.5t-24.5 -44l-123 -274v-327h95zM473 773l-14 -13l-131 87l-131 -87l-14 13l132 119h26z" />
    </font>
</defs>
</svg>
