<svg id="_5437082_facebook_fb_media_social_icon" data-name="5437082_facebook_fb_media_social_icon" xmlns="http://www.w3.org/2000/svg" width="38.251" height="39.953" viewBox="0 0 38.251 39.953">
  <g id="Group_152" data-name="Group 152" transform="translate(10.989 9.845)">
    <path id="Path_76" data-name="Path 76" d="M212.142,222.312a1.432,1.432,0,0,1-1.431-1.416l-.1-10.147h0l-.1-9.066c-.111-3.913.429-6.108,1.877-7.539,1.75-1.75,4.533-1.909,7.3-1.829a1.432,1.432,0,1,1-.1,2.863c-2.863-.08-4.406.207-5.185.986-.8.8-1.113,2.481-1.034,5.455v.032l.016,1.59,5.6-.111h.032a1.429,1.429,0,0,1,1.431,1.4v.032a1.429,1.429,0,0,1-1.4,1.431l-5.614.111.032,4.628h0l.1,10.147a1.415,1.415,0,0,1-1.431,1.431Zm-5.917-16.1a1.432,1.432,0,0,1-.048-2.863l1.4-.048a1.432,1.432,0,0,1,.1,2.863l-1.4.048Z" transform="translate(-204.793 -192.299)" fill="#3b5999"/>
  </g>
  <g id="Group_153" data-name="Group 153" transform="translate(0 0)">
    <path id="Path_77" data-name="Path 77" d="M164.3,170.353H145.688a1.431,1.431,0,0,1,0-2.863H164.3a6.781,6.781,0,0,0,6.807-6.744v-20.74a6.781,6.781,0,0,0-6.807-6.744H145.307a6.747,6.747,0,0,0-6.744,6.744v20.5a1.431,1.431,0,1,1-2.863,0v-20.5a9.618,9.618,0,0,1,9.607-9.607h18.975a9.653,9.653,0,0,1,9.67,9.607v20.756A9.625,9.625,0,0,1,164.3,170.353Z" transform="translate(-135.7 -130.4)" fill="#3b5999"/>
  </g>
</svg>
