<svg xmlns="http://www.w3.org/2000/svg" width="227.819" height="127.89" viewBox="0 0 227.819 127.89">
  <g id="Group_156" data-name="Group 156" transform="translate(-154.544 18.445)">
    <text id="NORAS_" data-name="NORAS " transform="translate(154.544 17.317)" fill="#ebd4b7" font-size="32" font-family="NewOrder-Regular, New Order"><tspan x="0" y="26">NORAS </tspan></text>
    <g id="Group_18" data-name="Group 18" transform="translate(324.098 122.443) rotate(-138)">
      <path id="Path_24" data-name="Path 24" d="M5.672,66.6l-.025-.042a2.607,2.607,0,0,1-.174-2.36C5.98,63,6.529,61.776,7.1,60.557a.682.682,0,0,0,0-.622.32.32,0,0,0-.222-.16c-1.217-.1-2.427-.24-3.594-.4a2.241,2.241,0,0,1-1.664-1.191A2.926,2.926,0,0,1,1.532,55.6c.577-1.27,1.2-2.578,1.854-3.887a1.046,1.046,0,0,0,.037-.9c-.021-.034-.07-.121-.128-.13-.388-.057-.778-.117-1.165-.181A2.582,2.582,0,0,1,.055,48.441,2.988,2.988,0,0,1,1.595,45.3c1-.625,3.353-2.076,3.353-2.076,14.343-8.98,30.991-10.7,40.478-4.191a1.713,1.713,0,0,0,2.689-1.683c-1.715-11.38,7.109-25.6,21.458-34.585h0S71.9,1.287,72.9.664C74.763-.5,76,.156,76.439.492a2.743,2.743,0,0,1,.9,2.924q-.167.562-.347,1.13c-.015.053.04.136.063.168a1.046,1.046,0,0,0,.828.36c1.453-.016,2.9-.006,4.306.03a2.922,2.922,0,0,1,2.282,1.208,2.28,2.28,0,0,1,.343,2.021c-.365,1.121-.772,2.269-1.209,3.407a.263.263,0,0,0,.048.268.685.685,0,0,0,.56.275c1.336.014,2.679.056,3.989.123a2.608,2.608,0,0,1,2.045,1.188A2.393,2.393,0,0,1,90.5,15.77c-.437,1.147-.916,2.321-1.422,3.485a.441.441,0,0,0,.033.415h0a.437.437,0,0,0,.359.211c1.278.054,2.543.136,3.76.244a2.287,2.287,0,0,1,1.843,1.181,2.608,2.608,0,0,1,.175,2.36c-.511,1.206-1.061,2.432-1.633,3.643a.683.683,0,0,0,0,.621.249.249,0,0,0,.223.161c1.212.1,2.422.239,3.593.4a2.285,2.285,0,0,1,1.664,1.19,2.925,2.925,0,0,1,.089,2.583c-.583,1.283-1.207,2.592-1.854,3.887a1.044,1.044,0,0,0-.037.9c.018.038.069.121.129.131.388.057.777.117,1.165.181a2.584,2.584,0,0,1,2.074,2.06,2.987,2.987,0,0,1-1.54,3.137c-1,.625-3.353,2.076-3.353,2.076-14.342,8.979-30.99,10.7-40.479,4.191a1.712,1.712,0,0,0-2.688,1.683c1.715,11.38-7.109,25.6-21.458,34.586h0s-2.329,1.481-3.325,2.106c-1.864,1.167-3.1.509-3.541.171a2.745,2.745,0,0,1-.9-2.924q.169-.565.348-1.13c.017-.053-.038-.134-.062-.168a1.043,1.043,0,0,0-.828-.361c-1.449.016-2.9.006-4.306-.03a2.924,2.924,0,0,1-2.283-1.209,2.244,2.244,0,0,1-.343-2.02c.364-1.117.771-2.265,1.209-3.407a.285.285,0,0,0-.048-.268.683.683,0,0,0-.56-.274c-1.349-.015-2.692-.057-3.99-.124a2.6,2.6,0,0,1-2.043-1.186,2.425,2.425,0,0,1-.257-2.178c.435-1.143.914-2.316,1.422-3.485a.452.452,0,0,0-.392-.626c-1.265-.054-2.53-.136-3.76-.244A2.38,2.38,0,0,1,5.672,66.6Zm7.662.514a2.483,2.483,0,0,1,.176,2.307c-.5,1.141-.963,2.286-1.388,3.4a.384.384,0,0,0,.061.336.575.575,0,0,0,.438.264c1.275.066,2.59.107,3.914.121a2.719,2.719,0,0,1,2.221,1.167,2.328,2.328,0,0,1,.266,2.14c-.426,1.113-.821,2.227-1.176,3.314a.265.265,0,0,0,.071.211.862.862,0,0,0,.668.347c1.386.035,2.81.045,4.237.03a3.083,3.083,0,0,1,2.484,1.185,2.215,2.215,0,0,1,.369,2c-.118.369-.229.734-.338,1.1a.708.708,0,0,0,.182.72c.219.166.688.06,1.226-.277.994-.623,3.319-2.1,3.319-2.1,13.688-8.57,22.128-21.957,20.531-32.56a3.749,3.749,0,0,1,5.856-3.666c8.84,6.068,24.569,4.324,38.251-4.242.007,0,2.352-1.449,3.346-2.072.473-.3.7-.655.624-1.008a.562.562,0,0,0-.408-.452q-.563-.093-1.13-.175A2.209,2.209,0,0,1,95.495,38a3.083,3.083,0,0,1,.019-2.75c.636-1.275,1.249-2.561,1.824-3.825a.864.864,0,0,0-.02-.753c-.049-.08-.11-.149-.155-.155-1.141-.157-2.316-.288-3.5-.391a2.271,2.271,0,0,1-1.811-1.174,2.713,2.713,0,0,1-.082-2.5c.561-1.188,1.1-2.389,1.6-3.572a.576.576,0,0,0-.045-.513.418.418,0,0,0-.272-.2c-1.19-.105-2.424-.185-3.671-.238a2.486,2.486,0,0,1-2-1.166h0a2.484,2.484,0,0,1-.174-2.307c.493-1.137.96-2.282,1.388-3.4a.417.417,0,0,0-.062-.336.577.577,0,0,0-.439-.265c-1.286-.066-2.6-.106-3.913-.12a2.714,2.714,0,0,1-2.22-1.167,2.294,2.294,0,0,1-.266-2.14c.425-1.109.82-2.223,1.175-3.314a.282.282,0,0,0-.071-.211.863.863,0,0,0-.666-.347c-1.382-.035-2.807-.045-4.238-.029a3.086,3.086,0,0,1-2.484-1.184,2.212,2.212,0,0,1-.369-2c.117-.369.229-.733.336-1.1a.712.712,0,0,0-.181-.722c-.218-.166-.688-.06-1.226.277-.995.622-3.319,2.1-3.319,2.1-13.689,8.57-22.129,21.957-20.532,32.559a3.749,3.749,0,0,1-5.855,3.666C35.434,34.649,19.7,36.394,6.022,44.96c-.007,0-2.353,1.449-3.347,2.072-.473.3-.7.655-.623,1.009a.553.553,0,0,0,.407.452q.563.092,1.132.175a2.209,2.209,0,0,1,1.636,1.2,3.084,3.084,0,0,1-.018,2.751C4.566,53.91,3.953,55.2,3.385,56.445a.863.863,0,0,0,.02.754.27.27,0,0,0,.155.156c1.136.157,2.311.288,3.5.39a2.316,2.316,0,0,1,1.811,1.174,2.715,2.715,0,0,1,.081,2.5c-.565,1.2-1.1,2.4-1.6,3.572a.576.576,0,0,0,.046.512.384.384,0,0,0,.272.2c1.2.106,2.436.186,3.67.238a2.482,2.482,0,0,1,2,1.165Z" transform="matrix(0.985, -0.174, 0.174, 0.985, 0, 17.49)" fill="#ebd4b7"/>
      <g id="Group_16" data-name="Group 16" transform="matrix(0.985, -0.174, 0.174, 0.985, 33.59, 39.196)">
        <path id="Path_25" data-name="Path 25" d="M.155,22.565a1.019,1.019,0,0,1,.9-1.557c4.744.191,11.87-2.306,18.6-6.516S31.738,4.962,33.639.611a1.019,1.019,0,0,1,1.867.815C33.419,6.205,27.9,11.735,20.735,16.219S6.187,23.254.977,23.044A1.02,1.02,0,0,1,.155,22.565Z" transform="translate(0 0)" fill="#ebd4b7"/>
      </g>
      <g id="Group_17" data-name="Group 17" transform="matrix(0.985, -0.174, 0.174, 0.985, 41.808, 48.3)">
        <path id="Path_26" data-name="Path 26" d="M.156,22.578a1.017,1.017,0,0,1-.071-.949C2.172,16.851,7.694,11.322,14.856,6.838S29.4-.2,34.614.012a1.019,1.019,0,0,1-.082,2.036c-4.744-.192-11.869,2.305-18.594,6.516S3.853,18.094,1.953,22.445a1.018,1.018,0,0,1-1.8.134Z" transform="translate(0 0)" fill="#ebd4b7"/>
      </g>
    </g>
    <text id="FRESH_Pasta" data-name="FRESH Pasta" transform="translate(157.544 41.317)" fill="#f5eee6" font-size="13.999" font-family="NewOrder-Medium, New Order" font-weight="500" baseline-shift="-7.999199867248535"><tspan x="0" y="19">FRESH PASTA</tspan></text>
  </g>
</svg>
