<svg xmlns="http://www.w3.org/2000/svg" width="51.198" height="44.667" viewBox="0 0 51.198 44.667">
  <g id="Component_24_1" data-name="Component 24 – 1" transform="translate(1 1)">
    <circle id="Ellipse_21" data-name="Ellipse 21" cx="3.793" cy="3.793" r="3.793" transform="translate(32.548 35.082)" fill="none" stroke="#52729e" stroke-linecap="round" stroke-linejoin="round" stroke-width="2"/>
    <circle id="Ellipse_22" data-name="Ellipse 22" cx="3.793" cy="3.793" r="3.793" transform="translate(13.585 35.082)" fill="none" stroke="#52729e" stroke-linecap="round" stroke-linejoin="round" stroke-width="2"/>
    <path id="Path_64" data-name="Path 64" d="M29,33H68.386a1.9,1.9,0,0,1,1.77,2.577L62.6,55.221a3.793,3.793,0,0,1-3.54,2.431H36.873a3.793,3.793,0,0,1-3.724-3.076Z" transform="translate(-21.104 -26.363)" fill="none" stroke="#52729e" stroke-linecap="round" stroke-linejoin="round" stroke-width="2"/>
    <path id="Path_65" data-name="Path 65" d="M20.214,25.642,19.5,22.049A3.793,3.793,0,0,0,15.777,19H12.344" transform="translate(-12.344 -19)" fill="none" stroke="#52729e" stroke-linecap="round" stroke-linejoin="round" stroke-width="2"/>
    <line id="Line_46" data-name="Line 46" x2="1.422" transform="translate(36.769 12.326)" fill="none" stroke="#52729e" stroke-linecap="round" stroke-linejoin="round" stroke-width="2"/>
    <line id="Line_47" data-name="Line 47" x2="23.184" transform="translate(9.318 12.326)" fill="none" stroke="#52729e" stroke-linecap="round" stroke-linejoin="round" stroke-width="2"/>
  </g>
</svg>
