<svg id="_5437080_bird_media_social_twit_twitter_icon" data-name="5437080_bird_media_social_twit_twitter_icon" xmlns="http://www.w3.org/2000/svg" width="45.671" height="37.224" viewBox="0 0 45.671 37.224">
  <g id="Group_151" data-name="Group 151" transform="translate(0 0)">
    <path id="Path_71" data-name="Path 71" d="M150.408,167.045h-.157a32.362,32.362,0,0,1-20.592-10.671,1.574,1.574,0,1,1,2.441-1.988,29.752,29.752,0,0,0,18.482,9.537,1.569,1.569,0,0,1,1.395,1.726A1.6,1.6,0,0,1,150.408,167.045Z" transform="translate(-128.549 -153.011)" fill="#1da1f2"/>
    <path id="Path_72" data-name="Path 72" d="M145.363,223.013a19.857,19.857,0,0,1-8.3-1.866c-3.452-1.587-6.015-3.888-6.538-4.934a1.584,1.584,0,0,1,.7-2.11,1.565,1.565,0,0,1,2.075.645c.75,1.064,7.863,7.375,17.122,4.289a1.571,1.571,0,1,1,.994,2.981A18.909,18.909,0,0,1,145.363,223.013Z" transform="translate(-129.414 -202.65)" fill="#1da1f2"/>
    <path id="Path_73" data-name="Path 73" d="M161.708,274.087a19.506,19.506,0,0,1-8.7-1.953,1.568,1.568,0,0,1,1.5-2.755h0a17.49,17.49,0,0,0,12.5.75,1.572,1.572,0,1,1,.942,3A20.48,20.48,0,0,1,161.708,274.087Z" transform="translate(-147.433 -248.266)" fill="#1da1f2"/>
    <path id="Path_74" data-name="Path 74" d="M140.737,207.919A46.914,46.914,0,0,1,126,205.252,1.571,1.571,0,0,1,127,202.27c11.037,3.7,20.173,3.313,26.38-1.151,5.562-3.993,8.526-11.037,8.544-20.382a1.555,1.555,0,0,1,.663-1.273l5.545-3.94a1.563,1.563,0,0,1,1.813,2.546l-4.9,3.487c-.209,9.991-3.609,17.627-9.851,22.108A24.109,24.109,0,0,1,140.737,207.919Z" transform="translate(-124.927 -170.696)" fill="#1da1f2"/>
    <path id="Path_75" data-name="Path 75" d="M242.053,163.242A1.572,1.572,0,0,1,240.5,161.9c-.75-5.021,1.029-9.276,4.743-11.4,3.8-2.162,8.7-1.569,12.519,1.517a1.574,1.574,0,0,1-1.988,2.441c-2.79-2.267-6.329-2.755-9-1.238-2.58,1.465-3.749,4.464-3.191,8.212a1.572,1.572,0,0,1-1.325,1.778A.377.377,0,0,1,242.053,163.242Z" transform="translate(-220.211 -149.208)" fill="#1da1f2"/>
  </g>
</svg>
